<?xml version="1.0" encoding="utf-8" standalone="no"?>
<!DOCTYPE svg PUBLIC "-//W3C//DTD SVG 1.1//EN"
  "http://www.w3.org/Graphics/SVG/1.1/DTD/svg11.dtd">
<svg xmlns:xlink="http://www.w3.org/1999/xlink" width="1072.8pt" height="712.597969pt" viewBox="0 0 1072.8 712.597969" xmlns="http://www.w3.org/2000/svg" version="1.1">
 <metadata>
  <rdf:RDF xmlns:dc="http://purl.org/dc/elements/1.1/" xmlns:cc="http://creativecommons.org/ns#" xmlns:rdf="http://www.w3.org/1999/02/22-rdf-syntax-ns#">
   <cc:Work>
    <dc:type rdf:resource="http://purl.org/dc/dcmitype/StillImage"/>
    <dc:date>2026-05-26T14:06:27.824518</dc:date>
    <dc:format>image/svg+xml</dc:format>
    <dc:creator>
     <cc:Agent>
      <dc:title>Matplotlib v3.10.8, https://matplotlib.org/</dc:title>
     </cc:Agent>
    </dc:creator>
   </cc:Work>
  </rdf:RDF>
 </metadata>
 <defs>
  <style type="text/css">*{stroke-linejoin: round; stroke-linecap: butt}</style>
 </defs>
 <g id="figure_1">
  <g id="patch_1">
   <path d="M 0 712.597969 
L 1072.8 712.597969 
L 1072.8 0 
L 0 0 
z
" style="fill: #ffffff"/>
  </g>
  <g id="axes_1">
   <g id="patch_2">
    <path d="M 113.666629 431.598021 
Q 178.471921 309.464483 214.087841 177.141862 
" clip-path="url(#p40db900c06)" style="fill: none; stroke: #999999; stroke-width: 1.1; stroke-linecap: round"/>
    <path d="M 209.928575 181.82166 
L 214.087841 177.141862 
L 215.33612 183.277154 
z
" clip-path="url(#p40db900c06)" style="fill: #999999; stroke: #999999; stroke-width: 1.1; stroke-linecap: round"/>
   </g>
   <g id="patch_3">
    <path d="M 112.910837 431.239971 
Q 165.689861 303.292515 188.399925 168.009417 
" clip-path="url(#p40db900c06)" style="fill: none; stroke: #999999; stroke-width: 1.1; stroke-linecap: round"/>
    <path d="M 184.71146 173.068589 
L 188.399925 168.009417 
L 190.234183 173.995693 
z
" clip-path="url(#p40db900c06)" style="fill: #999999; stroke: #999999; stroke-width: 1.1; stroke-linecap: round"/>
   </g>
   <g id="patch_4">
    <path d="M 112.309329 431.019749 
Q 155.510209 299.446076 168.16388 162.776058 
" clip-path="url(#p40db900c06)" style="fill: none; stroke: #999999; stroke-width: 1.1; stroke-linecap: round"/>
    <path d="M 164.859533 168.094074 
L 168.16388 162.776058 
L 170.435685 168.610345 
z
" clip-path="url(#p40db900c06)" style="fill: #999999; stroke: #999999; stroke-width: 1.1; stroke-linecap: round"/>
   </g>
   <g id="patch_5">
    <path d="M 233.173183 637.891468 
Q 193.194569 505.588955 125.327568 386.602179 
" clip-path="url(#p40db900c06)" style="fill: none; stroke: #999999; stroke-width: 1.1; stroke-linecap: round"/>
    <path d="M 125.669895 392.853804 
L 125.327568 386.602179 
L 130.534264 390.079292 
z
" clip-path="url(#p40db900c06)" style="fill: #999999; stroke: #999999; stroke-width: 1.1; stroke-linecap: round"/>
   </g>
   <g id="patch_6">
    <path d="M 232.504244 638.12283 
Q 181.915634 509.692067 104.656085 396.791213 
" clip-path="url(#p40db900c06)" style="fill: none; stroke: #999999; stroke-width: 1.1; stroke-linecap: round"/>
    <path d="M 105.507888 402.993989 
L 104.656085 396.791213 
L 110.129388 399.831436 
z
" clip-path="url(#p40db900c06)" style="fill: #999999; stroke: #999999; stroke-width: 1.1; stroke-linecap: round"/>
   </g>
   <g id="patch_7">
    <path d="M 405.294522 456.893646 
Q 269.147289 461.661363 138.674007 496.330172 
" clip-path="url(#p40db900c06)" style="fill: none; stroke: #999999; stroke-width: 1.1; stroke-linecap: round"/>
    <path d="M 144.805254 497.598164 
L 138.674007 496.330172 
L 143.367149 492.185969 
z
" clip-path="url(#p40db900c06)" style="fill: #999999; stroke: #999999; stroke-width: 1.1; stroke-linecap: round"/>
   </g>
   <g id="patch_8">
    <path d="M 405.286157 456.450782 
Q 268.978343 454.249508 136.810346 482.222458 
" clip-path="url(#p40db900c06)" style="fill: none; stroke: #999999; stroke-width: 1.1; stroke-linecap: round"/>
    <path d="M 142.868752 483.80224 
L 136.810346 482.222458 
L 141.709216 478.323602 
z
" clip-path="url(#p40db900c06)" style="fill: #999999; stroke: #999999; stroke-width: 1.1; stroke-linecap: round"/>
   </g>
   <g id="patch_9">
    <path d="M 405.728685 459.354072 
Q 276.265503 502.912522 160.814447 573.585304 
" clip-path="url(#p40db900c06)" style="fill: none; stroke: #999999; stroke-width: 1.1; stroke-linecap: round"/>
    <path d="M 167.052484 573.049679 
L 160.814447 573.585304 
L 164.12877 568.2735 
z
" clip-path="url(#p40db900c06)" style="fill: #999999; stroke: #999999; stroke-width: 1.1; stroke-linecap: round"/>
   </g>
   <g id="patch_10">
    <path d="M 405.69033 459.224153 
Q 275.614978 500.735675 159.120888 569.565915 
" clip-path="url(#p40db900c06)" style="fill: none; stroke: #999999; stroke-width: 1.1; stroke-linecap: round"/>
    <path d="M 165.366539 569.127911 
L 159.120888 569.565915 
L 162.517875 564.306592 
z
" clip-path="url(#p40db900c06)" style="fill: #999999; stroke: #999999; stroke-width: 1.1; stroke-linecap: round"/>
   </g>
   <g id="patch_11">
    <path d="M 405.643255 459.089533 
Q 274.960216 498.438166 157.400908 565.311198 
" clip-path="url(#p40db900c06)" style="fill: none; stroke: #999999; stroke-width: 1.1; stroke-linecap: round"/>
    <path d="M 163.652924 564.97609 
L 157.400908 565.311198 
L 160.884031 560.108521 
z
" clip-path="url(#p40db900c06)" style="fill: #999999; stroke: #999999; stroke-width: 1.1; stroke-linecap: round"/>
   </g>
   <g id="patch_12">
    <path d="M 405.595712 458.909725 
Q 274.153628 495.428187 155.236486 559.734454 
" clip-path="url(#p40db900c06)" style="fill: none; stroke: #999999; stroke-width: 1.1; stroke-linecap: round"/>
    <path d="M 161.494255 559.533649 
L 155.236486 559.734454 
L 158.830503 554.607755 
z
" clip-path="url(#p40db900c06)" style="fill: #999999; stroke: #999999; stroke-width: 1.1; stroke-linecap: round"/>
   </g>
   <g id="patch_13">
    <path d="M 681.449557 372.94776 
Q 547.134917 398.389564 422.995783 452.633909 
" clip-path="url(#p40db900c06)" style="fill: none; stroke: #999999; stroke-width: 1.1; stroke-linecap: round"/>
    <path d="M 429.248412 452.957377 
L 422.995783 452.633909 
L 427.006135 447.825886 
z
" clip-path="url(#p40db900c06)" style="fill: #999999; stroke: #999999; stroke-width: 1.1; stroke-linecap: round"/>
   </g>
   <g id="patch_14">
    <path d="M 687.105889 363.190186 
Q 641.108122 232.974581 567.888294 117.334643 
" clip-path="url(#p40db900c06)" style="fill: none; stroke: #999999; stroke-width: 1.1; stroke-linecap: round"/>
    <path d="M 568.51837 123.563848 
L 567.888294 117.334643 
L 573.249704 120.568106 
z
" clip-path="url(#p40db900c06)" style="fill: #999999; stroke: #999999; stroke-width: 1.1; stroke-linecap: round"/>
   </g>
   <g id="patch_15">
    <path d="M 689.631054 362.712573 
Q 683.854391 224.284538 647.671979 91.818476 
" clip-path="url(#p40db900c06)" style="fill: none; stroke: #999999; stroke-width: 1.1; stroke-linecap: round"/>
    <path d="M 646.446483 97.958359 
L 647.671979 91.818476 
L 651.848588 96.482802 
z
" clip-path="url(#p40db900c06)" style="fill: #999999; stroke: #999999; stroke-width: 1.1; stroke-linecap: round"/>
   </g>
   <g id="patch_16">
    <path d="M 695.257731 364.513222 
Q 779.226983 255.059978 836.163144 130.756602 
" clip-path="url(#p40db900c06)" style="fill: none; stroke: #999999; stroke-width: 1.1; stroke-linecap: round"/>
    <path d="M 831.285441 134.681907 
L 836.163144 130.756602 
L 836.376766 137.013947 
z
" clip-path="url(#p40db900c06)" style="fill: #999999; stroke: #999999; stroke-width: 1.1; stroke-linecap: round"/>
   </g>
   <g id="patch_17">
    <path d="M 692.473295 363.078675 
Q 732.187994 230.349287 741.217085 93.332613 
" clip-path="url(#p40db900c06)" style="fill: none; stroke: #999999; stroke-width: 1.1; stroke-linecap: round"/>
    <path d="M 738.054916 98.736379 
L 741.217085 93.332613 
L 743.642796 99.104608 
z
" clip-path="url(#p40db900c06)" style="fill: #999999; stroke: #999999; stroke-width: 1.1; stroke-linecap: round"/>
   </g>
   <g id="patch_18">
    <path d="M 694.368018 378.823352 
Q 764.809251 497.092823 858.997677 595.789893 
" clip-path="url(#p40db900c06)" style="fill: none; stroke: #999999; stroke-width: 1.1; stroke-linecap: round"/>
    <path d="M 857.157119 589.805551 
L 858.997677 595.789893 
L 853.105869 593.671733 
z
" clip-path="url(#p40db900c06)" style="fill: #999999; stroke: #999999; stroke-width: 1.1; stroke-linecap: round"/>
   </g>
   <g id="patch_19">
    <path d="M 696.711427 376.798644 
Q 803.580441 462.192277 925.68554 521.085749 
" clip-path="url(#p40db900c06)" style="fill: none; stroke: #999999; stroke-width: 1.1; stroke-linecap: round"/>
    <path d="M 921.857976 516.130978 
L 925.68554 521.085749 
L 919.425185 521.174937 
z
" clip-path="url(#p40db900c06)" style="fill: #999999; stroke: #999999; stroke-width: 1.1; stroke-linecap: round"/>
   </g>
   <g id="patch_20">
    <path d="M 698.277616 373.792995 
Q 829.138479 411.477305 963.878329 418.987811 
" clip-path="url(#p40db900c06)" style="fill: none; stroke: #999999; stroke-width: 1.1; stroke-linecap: round"/>
    <path d="M 958.44284 415.880486 
L 963.878329 418.987811 
L 958.131176 421.471807 
z
" clip-path="url(#p40db900c06)" style="fill: #999999; stroke: #999999; stroke-width: 1.1; stroke-linecap: round"/>
   </g>
   <g id="PathCollection_1">
    <defs>
     <path id="C0_0_6c0df21594" d="M 0 10.246951 
C 2.717523 10.246951 5.324109 9.167267 7.245688 7.245688 
C 9.167267 5.324109 10.246951 2.717523 10.246951 -0 
C 10.246951 -2.717523 9.167267 -5.324109 7.245688 -7.245688 
C 5.324109 -9.167267 2.717523 -10.246951 0 -10.246951 
C -2.717523 -10.246951 -5.324109 -9.167267 -7.245688 -7.245688 
C -9.167267 -5.324109 -10.246951 -2.717523 -10.246951 0 
C -10.246951 2.717523 -9.167267 5.324109 -7.245688 7.245688 
C -5.324109 9.167267 -2.717523 10.246951 0 10.246951 
z
"/>
    </defs>
    <g clip-path="url(#p40db900c06)">
     <use xlink:href="#C0_0_6c0df21594" x="702.148897" y="365.35244" style="fill: #cc79a7; fill-opacity: 0.95; stroke: #cc79a7; stroke-opacity: 0.95"/>
    </g>
    <g clip-path="url(#p40db900c06)">
     <use xlink:href="#C0_0_6c0df21594" x="693.077068" y="292.368918" style="fill: #cc79a7; fill-opacity: 0.95; stroke: #cc79a7; stroke-opacity: 0.95"/>
    </g>
    <g clip-path="url(#p40db900c06)">
     <use xlink:href="#C0_0_6c0df21594" x="840.252887" y="121.755181" style="fill: #cc79a7; fill-opacity: 0.95; stroke: #cc79a7; stroke-opacity: 0.95"/>
    </g>
    <g clip-path="url(#p40db900c06)">
     <use xlink:href="#C0_0_6c0df21594" x="741.837189" y="83.464031" style="fill: #cc79a7; fill-opacity: 0.95; stroke: #cc79a7; stroke-opacity: 0.95"/>
    </g>
    <g clip-path="url(#p40db900c06)">
     <use xlink:href="#C0_0_6c0df21594" x="645.037405" y="82.287556" style="fill: #e69f00; fill-opacity: 0.95; stroke: #e69f00; stroke-opacity: 0.95"/>
    </g>
    <g clip-path="url(#p40db900c06)">
     <use xlink:href="#C0_0_6c0df21594" x="562.573525" y="108.997262" style="fill: #e69f00; fill-opacity: 0.95; stroke: #e69f00; stroke-opacity: 0.95"/>
    </g>
    <g clip-path="url(#p40db900c06)">
     <use xlink:href="#C0_0_6c0df21594" x="129.119736" y="498.900628" style="fill: #0072b2; fill-opacity: 0.95; stroke: #0072b2; stroke-opacity: 0.95"/>
    </g>
    <g clip-path="url(#p40db900c06)">
     <use xlink:href="#C0_0_6c0df21594" x="127.139911" y="484.300484" style="fill: #0072b2; fill-opacity: 0.95; stroke: #0072b2; stroke-opacity: 0.95"/>
    </g>
    <g clip-path="url(#p40db900c06)">
     <use xlink:href="#C0_0_6c0df21594" x="291.369504" y="99.880705" style="fill: #0072b2; fill-opacity: 0.95; stroke: #0072b2; stroke-opacity: 0.95"/>
    </g>
    <g clip-path="url(#p40db900c06)">
     <use xlink:href="#C0_0_6c0df21594" x="216.628747" y="167.585496" style="fill: #999999; fill-opacity: 0.95; stroke: #999999; stroke-opacity: 0.95"/>
    </g>
    <g clip-path="url(#p40db900c06)">
     <use xlink:href="#C0_0_6c0df21594" x="190.007225" y="158.252497" style="fill: #999999; fill-opacity: 0.95; stroke: #999999; stroke-opacity: 0.95"/>
    </g>
    <g clip-path="url(#p40db900c06)">
     <use xlink:href="#C0_0_6c0df21594" x="169.045887" y="152.922119" style="fill: #999999; fill-opacity: 0.95; stroke: #999999; stroke-opacity: 0.95"/>
    </g>
    <g clip-path="url(#p40db900c06)">
     <use xlink:href="#C0_0_6c0df21594" x="109.580288" y="439.234745" style="fill: #999999; fill-opacity: 0.95; stroke: #999999; stroke-opacity: 0.95"/>
    </g>
    <g clip-path="url(#p40db900c06)">
     <use xlink:href="#C0_0_6c0df21594" x="120.399254" y="378.022759" style="fill: #999999; fill-opacity: 0.95; stroke: #999999; stroke-opacity: 0.95"/>
    </g>
    <g clip-path="url(#p40db900c06)">
     <use xlink:href="#C0_0_6c0df21594" x="99.044628" y="388.644703" style="fill: #999999; fill-opacity: 0.95; stroke: #999999; stroke-opacity: 0.95"/>
    </g>
    <g clip-path="url(#p40db900c06)">
     <use xlink:href="#C0_0_6c0df21594" x="235.648744" y="646.188382" style="fill: #999999; fill-opacity: 0.95; stroke: #999999; stroke-opacity: 0.95"/>
    </g>
    <g clip-path="url(#p40db900c06)">
     <use xlink:href="#C0_0_6c0df21594" x="413.946851" y="456.621287" style="fill: #d55e00; fill-opacity: 0.95; stroke: #d55e00; stroke-opacity: 0.95"/>
    </g>
    <g clip-path="url(#p40db900c06)">
     <use xlink:href="#C0_0_6c0df21594" x="152.394942" y="578.775103" style="fill: #009e73; fill-opacity: 0.95; stroke: #009e73; stroke-opacity: 0.95"/>
    </g>
    <g clip-path="url(#p40db900c06)">
     <use xlink:href="#C0_0_6c0df21594" x="150.624293" y="574.621599" style="fill: #009e73; fill-opacity: 0.95; stroke: #009e73; stroke-opacity: 0.95"/>
    </g>
    <g clip-path="url(#p40db900c06)">
     <use xlink:href="#C0_0_6c0df21594" x="148.817849" y="570.228839" style="fill: #009e73; fill-opacity: 0.95; stroke: #009e73; stroke-opacity: 0.95"/>
    </g>
    <g clip-path="url(#p40db900c06)">
     <use xlink:href="#C0_0_6c0df21594" x="146.553044" y="564.464936" style="fill: #009e73; fill-opacity: 0.95; stroke: #009e73; stroke-opacity: 0.95"/>
    </g>
    <g clip-path="url(#p40db900c06)">
     <use xlink:href="#C0_0_6c0df21594" x="689.961996" y="371.36641" style="fill: #d55e00; fill-opacity: 0.95; stroke: #d55e00; stroke-opacity: 0.95"/>
    </g>
    <g clip-path="url(#p40db900c06)">
     <use xlink:href="#C0_0_6c0df21594" x="865.845005" y="602.921077" style="fill: #56b4e9; fill-opacity: 0.95; stroke: #56b4e9; stroke-opacity: 0.95"/>
    </g>
    <g clip-path="url(#p40db900c06)">
     <use xlink:href="#C0_0_6c0df21594" x="934.610696" y="525.35659" style="fill: #56b4e9; fill-opacity: 0.95; stroke: #56b4e9; stroke-opacity: 0.95"/>
    </g>
    <g clip-path="url(#p40db900c06)">
     <use xlink:href="#C0_0_6c0df21594" x="973.755372" y="419.507659" style="fill: #56b4e9; fill-opacity: 0.95; stroke: #56b4e9; stroke-opacity: 0.95"/>
    </g>
   </g>
   <g id="text_1">
    <g id="patch_21">
     <path d="M 641.797147 399.229082 
L 762.500647 399.229082 
Q 763.580647 399.229082 763.580647 398.149082 
L 763.580647 390.980582 
Q 763.580647 389.900582 762.500647 389.900582 
L 641.797147 389.900582 
Q 640.717147 389.900582 640.717147 390.980582 
L 640.717147 398.149082 
Q 640.717147 399.229082 641.797147 399.229082 
z
" style="fill: #ffffff; opacity: 0.8"/>
    </g>
    <!-- analysis.linear_change_model -->
    <g transform="translate(641.797147 396.451457) scale(0.072 -0.072)">
     <defs>
      <path id="DejaVuSans-Bold-61" d="M 2106 1575 
Q 1756 1575 1579 1456 
Q 1403 1338 1403 1106 
Q 1403 894 1545 773 
Q 1688 653 1941 653 
Q 2256 653 2472 879 
Q 2688 1106 2688 1447 
L 2688 1575 
L 2106 1575 
z
M 3816 1997 
L 3816 0 
L 2688 0 
L 2688 519 
Q 2463 200 2181 54 
Q 1900 -91 1497 -91 
Q 953 -91 614 226 
Q 275 544 275 1050 
Q 275 1666 698 1953 
Q 1122 2241 2028 2241 
L 2688 2241 
L 2688 2328 
Q 2688 2594 2478 2717 
Q 2269 2841 1825 2841 
Q 1466 2841 1156 2769 
Q 847 2697 581 2553 
L 581 3406 
Q 941 3494 1303 3539 
Q 1666 3584 2028 3584 
Q 2975 3584 3395 3211 
Q 3816 2838 3816 1997 
z
" transform="scale(0.015625)"/>
      <path id="DejaVuSans-Bold-6e" d="M 4056 2131 
L 4056 0 
L 2931 0 
L 2931 347 
L 2931 1631 
Q 2931 2084 2911 2256 
Q 2891 2428 2841 2509 
Q 2775 2619 2662 2680 
Q 2550 2741 2406 2741 
Q 2056 2741 1856 2470 
Q 1656 2200 1656 1722 
L 1656 0 
L 538 0 
L 538 3500 
L 1656 3500 
L 1656 2988 
Q 1909 3294 2193 3439 
Q 2478 3584 2822 3584 
Q 3428 3584 3742 3212 
Q 4056 2841 4056 2131 
z
" transform="scale(0.015625)"/>
      <path id="DejaVuSans-Bold-6c" d="M 538 4863 
L 1656 4863 
L 1656 0 
L 538 0 
L 538 4863 
z
" transform="scale(0.015625)"/>
      <path id="DejaVuSans-Bold-79" d="M 78 3500 
L 1197 3500 
L 2138 1125 
L 2938 3500 
L 4056 3500 
L 2584 -331 
Q 2363 -916 2067 -1148 
Q 1772 -1381 1288 -1381 
L 641 -1381 
L 641 -647 
L 991 -647 
Q 1275 -647 1404 -556 
Q 1534 -466 1606 -231 
L 1638 -134 
L 78 3500 
z
" transform="scale(0.015625)"/>
      <path id="DejaVuSans-Bold-73" d="M 3272 3391 
L 3272 2541 
Q 2913 2691 2578 2766 
Q 2244 2841 1947 2841 
Q 1628 2841 1473 2761 
Q 1319 2681 1319 2516 
Q 1319 2381 1436 2309 
Q 1553 2238 1856 2203 
L 2053 2175 
Q 2913 2066 3209 1816 
Q 3506 1566 3506 1031 
Q 3506 472 3093 190 
Q 2681 -91 1863 -91 
Q 1516 -91 1145 -36 
Q 775 19 384 128 
L 384 978 
Q 719 816 1070 734 
Q 1422 653 1784 653 
Q 2113 653 2278 743 
Q 2444 834 2444 1013 
Q 2444 1163 2330 1236 
Q 2216 1309 1875 1350 
L 1678 1375 
Q 931 1469 631 1722 
Q 331 1975 331 2491 
Q 331 3047 712 3315 
Q 1094 3584 1881 3584 
Q 2191 3584 2531 3537 
Q 2872 3491 3272 3391 
z
" transform="scale(0.015625)"/>
      <path id="DejaVuSans-Bold-69" d="M 538 3500 
L 1656 3500 
L 1656 0 
L 538 0 
L 538 3500 
z
M 538 4863 
L 1656 4863 
L 1656 3950 
L 538 3950 
L 538 4863 
z
" transform="scale(0.015625)"/>
      <path id="DejaVuSans-Bold-2e" d="M 653 1209 
L 1778 1209 
L 1778 0 
L 653 0 
L 653 1209 
z
" transform="scale(0.015625)"/>
      <path id="DejaVuSans-Bold-65" d="M 4031 1759 
L 4031 1441 
L 1416 1441 
Q 1456 1047 1700 850 
Q 1944 653 2381 653 
Q 2734 653 3104 758 
Q 3475 863 3866 1075 
L 3866 213 
Q 3469 63 3072 -14 
Q 2675 -91 2278 -91 
Q 1328 -91 801 392 
Q 275 875 275 1747 
Q 275 2603 792 3093 
Q 1309 3584 2216 3584 
Q 3041 3584 3536 3087 
Q 4031 2591 4031 1759 
z
M 2881 2131 
Q 2881 2450 2695 2645 
Q 2509 2841 2209 2841 
Q 1884 2841 1681 2658 
Q 1478 2475 1428 2131 
L 2881 2131 
z
" transform="scale(0.015625)"/>
      <path id="DejaVuSans-Bold-72" d="M 3138 2547 
Q 2991 2616 2845 2648 
Q 2700 2681 2553 2681 
Q 2122 2681 1889 2404 
Q 1656 2128 1656 1613 
L 1656 0 
L 538 0 
L 538 3500 
L 1656 3500 
L 1656 2925 
Q 1872 3269 2151 3426 
Q 2431 3584 2822 3584 
Q 2878 3584 2943 3579 
Q 3009 3575 3134 3559 
L 3138 2547 
z
" transform="scale(0.015625)"/>
      <path id="DejaVuSans-Bold-5f" d="M 3200 -916 
L 3200 -1509 
L 0 -1509 
L 0 -916 
L 3200 -916 
z
" transform="scale(0.015625)"/>
      <path id="DejaVuSans-Bold-63" d="M 3366 3391 
L 3366 2478 
Q 3138 2634 2908 2709 
Q 2678 2784 2431 2784 
Q 1963 2784 1702 2511 
Q 1441 2238 1441 1747 
Q 1441 1256 1702 982 
Q 1963 709 2431 709 
Q 2694 709 2930 787 
Q 3166 866 3366 1019 
L 3366 103 
Q 3103 6 2833 -42 
Q 2563 -91 2291 -91 
Q 1344 -91 809 395 
Q 275 881 275 1747 
Q 275 2613 809 3098 
Q 1344 3584 2291 3584 
Q 2566 3584 2833 3536 
Q 3100 3488 3366 3391 
z
" transform="scale(0.015625)"/>
      <path id="DejaVuSans-Bold-68" d="M 4056 2131 
L 4056 0 
L 2931 0 
L 2931 347 
L 2931 1625 
Q 2931 2084 2911 2256 
Q 2891 2428 2841 2509 
Q 2775 2619 2662 2680 
Q 2550 2741 2406 2741 
Q 2056 2741 1856 2470 
Q 1656 2200 1656 1722 
L 1656 0 
L 538 0 
L 538 4863 
L 1656 4863 
L 1656 2988 
Q 1909 3294 2193 3439 
Q 2478 3584 2822 3584 
Q 3428 3584 3742 3212 
Q 4056 2841 4056 2131 
z
" transform="scale(0.015625)"/>
      <path id="DejaVuSans-Bold-67" d="M 2919 594 
Q 2688 288 2409 144 
Q 2131 0 1766 0 
Q 1125 0 706 504 
Q 288 1009 288 1791 
Q 288 2575 706 3076 
Q 1125 3578 1766 3578 
Q 2131 3578 2409 3434 
Q 2688 3291 2919 2981 
L 2919 3500 
L 4044 3500 
L 4044 353 
Q 4044 -491 3511 -936 
Q 2978 -1381 1966 -1381 
Q 1638 -1381 1331 -1331 
Q 1025 -1281 716 -1178 
L 716 -306 
Q 1009 -475 1290 -558 
Q 1572 -641 1856 -641 
Q 2406 -641 2662 -400 
Q 2919 -159 2919 353 
L 2919 594 
z
M 2181 2772 
Q 1834 2772 1640 2515 
Q 1447 2259 1447 1791 
Q 1447 1309 1634 1061 
Q 1822 813 2181 813 
Q 2531 813 2725 1069 
Q 2919 1325 2919 1791 
Q 2919 2259 2725 2515 
Q 2531 2772 2181 2772 
z
" transform="scale(0.015625)"/>
      <path id="DejaVuSans-Bold-6d" d="M 3781 2919 
Q 3994 3244 4286 3414 
Q 4578 3584 4928 3584 
Q 5531 3584 5847 3212 
Q 6163 2841 6163 2131 
L 6163 0 
L 5038 0 
L 5038 1825 
Q 5041 1866 5042 1909 
Q 5044 1953 5044 2034 
Q 5044 2406 4934 2573 
Q 4825 2741 4581 2741 
Q 4263 2741 4089 2478 
Q 3916 2216 3909 1719 
L 3909 0 
L 2784 0 
L 2784 1825 
Q 2784 2406 2684 2573 
Q 2584 2741 2328 2741 
Q 2006 2741 1831 2477 
Q 1656 2213 1656 1722 
L 1656 0 
L 531 0 
L 531 3500 
L 1656 3500 
L 1656 2988 
Q 1863 3284 2130 3434 
Q 2397 3584 2719 3584 
Q 3081 3584 3359 3409 
Q 3638 3234 3781 2919 
z
" transform="scale(0.015625)"/>
      <path id="DejaVuSans-Bold-6f" d="M 2203 2784 
Q 1831 2784 1636 2517 
Q 1441 2250 1441 1747 
Q 1441 1244 1636 976 
Q 1831 709 2203 709 
Q 2569 709 2762 976 
Q 2956 1244 2956 1747 
Q 2956 2250 2762 2517 
Q 2569 2784 2203 2784 
z
M 2203 3584 
Q 3106 3584 3614 3096 
Q 4122 2609 4122 1747 
Q 4122 884 3614 396 
Q 3106 -91 2203 -91 
Q 1297 -91 786 396 
Q 275 884 275 1747 
Q 275 2609 786 3096 
Q 1297 3584 2203 3584 
z
" transform="scale(0.015625)"/>
      <path id="DejaVuSans-Bold-64" d="M 2919 2988 
L 2919 4863 
L 4044 4863 
L 4044 0 
L 2919 0 
L 2919 506 
Q 2688 197 2409 53 
Q 2131 -91 1766 -91 
Q 1119 -91 703 423 
Q 288 938 288 1747 
Q 288 2556 703 3070 
Q 1119 3584 1766 3584 
Q 2128 3584 2408 3439 
Q 2688 3294 2919 2988 
z
M 2181 722 
Q 2541 722 2730 984 
Q 2919 1247 2919 1747 
Q 2919 2247 2730 2509 
Q 2541 2772 2181 2772 
Q 1825 2772 1636 2509 
Q 1447 2247 1447 1747 
Q 1447 1247 1636 984 
Q 1825 722 2181 722 
z
" transform="scale(0.015625)"/>
     </defs>
     <use xlink:href="#DejaVuSans-Bold-61"/>
     <use xlink:href="#DejaVuSans-Bold-6e" transform="translate(67.480469 0)"/>
     <use xlink:href="#DejaVuSans-Bold-61" transform="translate(138.671875 0)"/>
     <use xlink:href="#DejaVuSans-Bold-6c" transform="translate(206.152344 0)"/>
     <use xlink:href="#DejaVuSans-Bold-79" transform="translate(240.429688 0)"/>
     <use xlink:href="#DejaVuSans-Bold-73" transform="translate(305.615234 0)"/>
     <use xlink:href="#DejaVuSans-Bold-69" transform="translate(365.136719 0)"/>
     <use xlink:href="#DejaVuSans-Bold-73" transform="translate(399.414062 0)"/>
     <use xlink:href="#DejaVuSans-Bold-2e" transform="translate(458.935547 0)"/>
     <use xlink:href="#DejaVuSans-Bold-6c" transform="translate(496.923828 0)"/>
     <use xlink:href="#DejaVuSans-Bold-69" transform="translate(531.201172 0)"/>
     <use xlink:href="#DejaVuSans-Bold-6e" transform="translate(565.478516 0)"/>
     <use xlink:href="#DejaVuSans-Bold-65" transform="translate(636.669922 0)"/>
     <use xlink:href="#DejaVuSans-Bold-61" transform="translate(704.492188 0)"/>
     <use xlink:href="#DejaVuSans-Bold-72" transform="translate(771.972656 0)"/>
     <use xlink:href="#DejaVuSans-Bold-5f" transform="translate(821.289062 0)"/>
     <use xlink:href="#DejaVuSans-Bold-63" transform="translate(871.289062 0)"/>
     <use xlink:href="#DejaVuSans-Bold-68" transform="translate(930.566406 0)"/>
     <use xlink:href="#DejaVuSans-Bold-61" transform="translate(1001.757812 0)"/>
     <use xlink:href="#DejaVuSans-Bold-6e" transform="translate(1069.238281 0)"/>
     <use xlink:href="#DejaVuSans-Bold-67" transform="translate(1140.429688 0)"/>
     <use xlink:href="#DejaVuSans-Bold-65" transform="translate(1212.011719 0)"/>
     <use xlink:href="#DejaVuSans-Bold-5f" transform="translate(1279.833984 0)"/>
     <use xlink:href="#DejaVuSans-Bold-6d" transform="translate(1329.833984 0)"/>
     <use xlink:href="#DejaVuSans-Bold-6f" transform="translate(1434.033203 0)"/>
     <use xlink:href="#DejaVuSans-Bold-64" transform="translate(1502.734375 0)"/>
     <use xlink:href="#DejaVuSans-Bold-65" transform="translate(1574.316406 0)"/>
     <use xlink:href="#DejaVuSans-Bold-6c" transform="translate(1642.138672 0)"/>
    </g>
   </g>
   <g id="text_2">
    <g id="patch_22">
     <path d="M 648.94163 326.245561 
L 737.212505 326.245561 
Q 738.292505 326.245561 738.292505 325.165561 
L 738.292505 317.997061 
Q 738.292505 316.917061 737.212505 316.917061 
L 648.94163 316.917061 
Q 647.86163 316.917061 647.86163 317.997061 
L 647.86163 325.165561 
Q 647.86163 326.245561 648.94163 326.245561 
z
" style="fill: #ffffff; opacity: 0.8"/>
    </g>
    <!-- analysis.mcid_logistic -->
    <g transform="translate(648.94163 323.467936) scale(0.072 -0.072)">
     <defs>
      <path id="DejaVuSans-Bold-74" d="M 1759 4494 
L 1759 3500 
L 2913 3500 
L 2913 2700 
L 1759 2700 
L 1759 1216 
Q 1759 972 1856 886 
Q 1953 800 2241 800 
L 2816 800 
L 2816 0 
L 1856 0 
Q 1194 0 917 276 
Q 641 553 641 1216 
L 641 2700 
L 84 2700 
L 84 3500 
L 641 3500 
L 641 4494 
L 1759 4494 
z
" transform="scale(0.015625)"/>
     </defs>
     <use xlink:href="#DejaVuSans-Bold-61"/>
     <use xlink:href="#DejaVuSans-Bold-6e" transform="translate(67.480469 0)"/>
     <use xlink:href="#DejaVuSans-Bold-61" transform="translate(138.671875 0)"/>
     <use xlink:href="#DejaVuSans-Bold-6c" transform="translate(206.152344 0)"/>
     <use xlink:href="#DejaVuSans-Bold-79" transform="translate(240.429688 0)"/>
     <use xlink:href="#DejaVuSans-Bold-73" transform="translate(305.615234 0)"/>
     <use xlink:href="#DejaVuSans-Bold-69" transform="translate(365.136719 0)"/>
     <use xlink:href="#DejaVuSans-Bold-73" transform="translate(399.414062 0)"/>
     <use xlink:href="#DejaVuSans-Bold-2e" transform="translate(458.935547 0)"/>
     <use xlink:href="#DejaVuSans-Bold-6d" transform="translate(496.923828 0)"/>
     <use xlink:href="#DejaVuSans-Bold-63" transform="translate(601.123047 0)"/>
     <use xlink:href="#DejaVuSans-Bold-69" transform="translate(660.400391 0)"/>
     <use xlink:href="#DejaVuSans-Bold-64" transform="translate(694.677734 0)"/>
     <use xlink:href="#DejaVuSans-Bold-5f" transform="translate(766.259766 0)"/>
     <use xlink:href="#DejaVuSans-Bold-6c" transform="translate(816.259766 0)"/>
     <use xlink:href="#DejaVuSans-Bold-6f" transform="translate(850.537109 0)"/>
     <use xlink:href="#DejaVuSans-Bold-67" transform="translate(919.238281 0)"/>
     <use xlink:href="#DejaVuSans-Bold-69" transform="translate(990.820312 0)"/>
     <use xlink:href="#DejaVuSans-Bold-73" transform="translate(1025.097656 0)"/>
     <use xlink:href="#DejaVuSans-Bold-74" transform="translate(1084.619141 0)"/>
     <use xlink:href="#DejaVuSans-Bold-69" transform="translate(1132.421875 0)"/>
     <use xlink:href="#DejaVuSans-Bold-63" transform="translate(1166.699219 0)"/>
    </g>
   </g>
   <g id="text_3">
    <g id="patch_23">
     <path d="M 808.765262 155.631824 
L 871.740512 155.631824 
Q 872.820512 155.631824 872.820512 154.551824 
L 872.820512 147.383324 
Q 872.820512 146.303324 871.740512 146.303324 
L 808.765262 146.303324 
Q 807.685262 146.303324 807.685262 147.383324 
L 807.685262 154.551824 
Q 807.685262 155.631824 808.765262 155.631824 
z
" style="fill: #ffffff; opacity: 0.8"/>
    </g>
    <!-- analysis.run_all -->
    <g transform="translate(808.765262 152.854199) scale(0.072 -0.072)">
     <defs>
      <path id="DejaVuSans-Bold-75" d="M 500 1363 
L 500 3500 
L 1625 3500 
L 1625 3150 
Q 1625 2866 1622 2436 
Q 1619 2006 1619 1863 
Q 1619 1441 1641 1255 
Q 1663 1069 1716 984 
Q 1784 875 1895 815 
Q 2006 756 2150 756 
Q 2500 756 2700 1025 
Q 2900 1294 2900 1772 
L 2900 3500 
L 4019 3500 
L 4019 0 
L 2900 0 
L 2900 506 
Q 2647 200 2364 54 
Q 2081 -91 1741 -91 
Q 1134 -91 817 281 
Q 500 653 500 1363 
z
" transform="scale(0.015625)"/>
     </defs>
     <use xlink:href="#DejaVuSans-Bold-61"/>
     <use xlink:href="#DejaVuSans-Bold-6e" transform="translate(67.480469 0)"/>
     <use xlink:href="#DejaVuSans-Bold-61" transform="translate(138.671875 0)"/>
     <use xlink:href="#DejaVuSans-Bold-6c" transform="translate(206.152344 0)"/>
     <use xlink:href="#DejaVuSans-Bold-79" transform="translate(240.429688 0)"/>
     <use xlink:href="#DejaVuSans-Bold-73" transform="translate(305.615234 0)"/>
     <use xlink:href="#DejaVuSans-Bold-69" transform="translate(365.136719 0)"/>
     <use xlink:href="#DejaVuSans-Bold-73" transform="translate(399.414062 0)"/>
     <use xlink:href="#DejaVuSans-Bold-2e" transform="translate(458.935547 0)"/>
     <use xlink:href="#DejaVuSans-Bold-72" transform="translate(496.923828 0)"/>
     <use xlink:href="#DejaVuSans-Bold-75" transform="translate(546.240234 0)"/>
     <use xlink:href="#DejaVuSans-Bold-6e" transform="translate(617.431641 0)"/>
     <use xlink:href="#DejaVuSans-Bold-5f" transform="translate(688.623047 0)"/>
     <use xlink:href="#DejaVuSans-Bold-61" transform="translate(738.623047 0)"/>
     <use xlink:href="#DejaVuSans-Bold-6c" transform="translate(806.103516 0)"/>
     <use xlink:href="#DejaVuSans-Bold-6c" transform="translate(840.380859 0)"/>
    </g>
   </g>
   <g id="text_4">
    <g id="patch_24">
     <path d="M 702.821064 117.196674 
L 780.853314 117.196674 
Q 781.933314 117.196674 781.933314 116.116674 
L 781.933314 109.092174 
Q 781.933314 108.012174 780.853314 108.012174 
L 702.821064 108.012174 
Q 701.741064 108.012174 701.741064 109.092174 
L 701.741064 116.116674 
Q 701.741064 117.196674 702.821064 117.196674 
z
" style="fill: #ffffff; opacity: 0.8"/>
    </g>
    <!-- analysis.sensitivity -->
    <g transform="translate(702.821064 114.563049) scale(0.072 -0.072)">
     <defs>
      <path id="DejaVuSans-Bold-76" d="M 97 3500 
L 1216 3500 
L 2088 1081 
L 2956 3500 
L 4078 3500 
L 2700 0 
L 1472 0 
L 97 3500 
z
" transform="scale(0.015625)"/>
     </defs>
     <use xlink:href="#DejaVuSans-Bold-61"/>
     <use xlink:href="#DejaVuSans-Bold-6e" transform="translate(67.480469 0)"/>
     <use xlink:href="#DejaVuSans-Bold-61" transform="translate(138.671875 0)"/>
     <use xlink:href="#DejaVuSans-Bold-6c" transform="translate(206.152344 0)"/>
     <use xlink:href="#DejaVuSans-Bold-79" transform="translate(240.429688 0)"/>
     <use xlink:href="#DejaVuSans-Bold-73" transform="translate(305.615234 0)"/>
     <use xlink:href="#DejaVuSans-Bold-69" transform="translate(365.136719 0)"/>
     <use xlink:href="#DejaVuSans-Bold-73" transform="translate(399.414062 0)"/>
     <use xlink:href="#DejaVuSans-Bold-2e" transform="translate(458.935547 0)"/>
     <use xlink:href="#DejaVuSans-Bold-73" transform="translate(496.923828 0)"/>
     <use xlink:href="#DejaVuSans-Bold-65" transform="translate(556.445312 0)"/>
     <use xlink:href="#DejaVuSans-Bold-6e" transform="translate(624.267578 0)"/>
     <use xlink:href="#DejaVuSans-Bold-73" transform="translate(695.458984 0)"/>
     <use xlink:href="#DejaVuSans-Bold-69" transform="translate(754.980469 0)"/>
     <use xlink:href="#DejaVuSans-Bold-74" transform="translate(789.257812 0)"/>
     <use xlink:href="#DejaVuSans-Bold-69" transform="translate(837.060547 0)"/>
     <use xlink:href="#DejaVuSans-Bold-76" transform="translate(871.337891 0)"/>
     <use xlink:href="#DejaVuSans-Bold-69" transform="translate(936.523438 0)"/>
     <use xlink:href="#DejaVuSans-Bold-74" transform="translate(970.800781 0)"/>
     <use xlink:href="#DejaVuSans-Bold-79" transform="translate(1018.603516 0)"/>
    </g>
   </g>
   <g id="text_5">
    <g id="patch_25">
     <path d="M 587.51503 116.164198 
L 702.55978 116.164198 
Q 703.63978 116.164198 703.63978 115.084198 
L 703.63978 107.915698 
Q 703.63978 106.835698 702.55978 106.835698 
L 587.51503 106.835698 
Q 586.43503 106.835698 586.43503 107.915698 
L 586.43503 115.084198 
Q 586.43503 116.164198 587.51503 116.164198 
z
" style="fill: #ffffff; opacity: 0.8"/>
    </g>
    <!-- cohort.build_analytic_cohort -->
    <g transform="translate(587.51503 113.386573) scale(0.072 -0.072)">
     <defs>
      <path id="DejaVuSans-Bold-62" d="M 2400 722 
Q 2759 722 2948 984 
Q 3138 1247 3138 1747 
Q 3138 2247 2948 2509 
Q 2759 2772 2400 2772 
Q 2041 2772 1848 2508 
Q 1656 2244 1656 1747 
Q 1656 1250 1848 986 
Q 2041 722 2400 722 
z
M 1656 2988 
Q 1888 3294 2169 3439 
Q 2450 3584 2816 3584 
Q 3463 3584 3878 3070 
Q 4294 2556 4294 1747 
Q 4294 938 3878 423 
Q 3463 -91 2816 -91 
Q 2450 -91 2169 54 
Q 1888 200 1656 506 
L 1656 0 
L 538 0 
L 538 4863 
L 1656 4863 
L 1656 2988 
z
" transform="scale(0.015625)"/>
     </defs>
     <use xlink:href="#DejaVuSans-Bold-63"/>
     <use xlink:href="#DejaVuSans-Bold-6f" transform="translate(59.277344 0)"/>
     <use xlink:href="#DejaVuSans-Bold-68" transform="translate(127.978516 0)"/>
     <use xlink:href="#DejaVuSans-Bold-6f" transform="translate(199.169922 0)"/>
     <use xlink:href="#DejaVuSans-Bold-72" transform="translate(267.871094 0)"/>
     <use xlink:href="#DejaVuSans-Bold-74" transform="translate(317.1875 0)"/>
     <use xlink:href="#DejaVuSans-Bold-2e" transform="translate(364.990234 0)"/>
     <use xlink:href="#DejaVuSans-Bold-62" transform="translate(402.978516 0)"/>
     <use xlink:href="#DejaVuSans-Bold-75" transform="translate(474.560547 0)"/>
     <use xlink:href="#DejaVuSans-Bold-69" transform="translate(545.751953 0)"/>
     <use xlink:href="#DejaVuSans-Bold-6c" transform="translate(580.029297 0)"/>
     <use xlink:href="#DejaVuSans-Bold-64" transform="translate(614.306641 0)"/>
     <use xlink:href="#DejaVuSans-Bold-5f" transform="translate(685.888672 0)"/>
     <use xlink:href="#DejaVuSans-Bold-61" transform="translate(735.888672 0)"/>
     <use xlink:href="#DejaVuSans-Bold-6e" transform="translate(803.369141 0)"/>
     <use xlink:href="#DejaVuSans-Bold-61" transform="translate(874.560547 0)"/>
     <use xlink:href="#DejaVuSans-Bold-6c" transform="translate(942.041016 0)"/>
     <use xlink:href="#DejaVuSans-Bold-79" transform="translate(976.318359 0)"/>
     <use xlink:href="#DejaVuSans-Bold-74" transform="translate(1041.503906 0)"/>
     <use xlink:href="#DejaVuSans-Bold-69" transform="translate(1089.306641 0)"/>
     <use xlink:href="#DejaVuSans-Bold-63" transform="translate(1123.583984 0)"/>
     <use xlink:href="#DejaVuSans-Bold-5f" transform="translate(1182.861328 0)"/>
     <use xlink:href="#DejaVuSans-Bold-63" transform="translate(1232.861328 0)"/>
     <use xlink:href="#DejaVuSans-Bold-6f" transform="translate(1292.138672 0)"/>
     <use xlink:href="#DejaVuSans-Bold-68" transform="translate(1360.839844 0)"/>
     <use xlink:href="#DejaVuSans-Bold-6f" transform="translate(1432.03125 0)"/>
     <use xlink:href="#DejaVuSans-Bold-72" transform="translate(1500.732422 0)"/>
     <use xlink:href="#DejaVuSans-Bold-74" transform="translate(1550.048828 0)"/>
    </g>
   </g>
   <g id="text_6">
    <g id="patch_26">
     <path d="M 524.070963 142.873905 
L 601.076088 142.873905 
Q 602.156088 142.873905 602.156088 141.793905 
L 602.156088 134.625405 
Q 602.156088 133.545405 601.076088 133.545405 
L 524.070963 133.545405 
Q 522.990963 133.545405 522.990963 134.625405 
L 522.990963 141.793905 
Q 522.990963 142.873905 524.070963 142.873905 
z
" style="fill: #ffffff; opacity: 0.8"/>
    </g>
    <!-- cohort.flow_counts -->
    <g transform="translate(524.070963 140.09628) scale(0.072 -0.072)">
     <defs>
      <path id="DejaVuSans-Bold-66" d="M 2841 4863 
L 2841 4128 
L 2222 4128 
Q 1984 4128 1890 4042 
Q 1797 3956 1797 3744 
L 1797 3500 
L 2753 3500 
L 2753 2700 
L 1797 2700 
L 1797 0 
L 678 0 
L 678 2700 
L 122 2700 
L 122 3500 
L 678 3500 
L 678 3744 
Q 678 4316 997 4589 
Q 1316 4863 1984 4863 
L 2841 4863 
z
" transform="scale(0.015625)"/>
      <path id="DejaVuSans-Bold-77" d="M 225 3500 
L 1313 3500 
L 1900 1088 
L 2491 3500 
L 3425 3500 
L 4013 1113 
L 4603 3500 
L 5691 3500 
L 4769 0 
L 3547 0 
L 2956 2406 
L 2369 0 
L 1147 0 
L 225 3500 
z
" transform="scale(0.015625)"/>
     </defs>
     <use xlink:href="#DejaVuSans-Bold-63"/>
     <use xlink:href="#DejaVuSans-Bold-6f" transform="translate(59.277344 0)"/>
     <use xlink:href="#DejaVuSans-Bold-68" transform="translate(127.978516 0)"/>
     <use xlink:href="#DejaVuSans-Bold-6f" transform="translate(199.169922 0)"/>
     <use xlink:href="#DejaVuSans-Bold-72" transform="translate(267.871094 0)"/>
     <use xlink:href="#DejaVuSans-Bold-74" transform="translate(317.1875 0)"/>
     <use xlink:href="#DejaVuSans-Bold-2e" transform="translate(364.990234 0)"/>
     <use xlink:href="#DejaVuSans-Bold-66" transform="translate(402.978516 0)"/>
     <use xlink:href="#DejaVuSans-Bold-6c" transform="translate(446.484375 0)"/>
     <use xlink:href="#DejaVuSans-Bold-6f" transform="translate(480.761719 0)"/>
     <use xlink:href="#DejaVuSans-Bold-77" transform="translate(549.462891 0)"/>
     <use xlink:href="#DejaVuSans-Bold-5f" transform="translate(641.845703 0)"/>
     <use xlink:href="#DejaVuSans-Bold-63" transform="translate(691.845703 0)"/>
     <use xlink:href="#DejaVuSans-Bold-6f" transform="translate(751.123047 0)"/>
     <use xlink:href="#DejaVuSans-Bold-75" transform="translate(819.824219 0)"/>
     <use xlink:href="#DejaVuSans-Bold-6e" transform="translate(891.015625 0)"/>
     <use xlink:href="#DejaVuSans-Bold-74" transform="translate(962.207031 0)"/>
     <use xlink:href="#DejaVuSans-Bold-73" transform="translate(1010.009766 0)"/>
    </g>
   </g>
   <g id="text_7">
    <g id="patch_27">
     <path d="M 78.647736 532.77727 
L 179.591736 532.77727 
Q 180.671736 532.77727 180.671736 531.69727 
L 180.671736 524.52877 
Q 180.671736 523.44877 179.591736 523.44877 
L 78.647736 523.44877 
Q 77.567736 523.44877 77.567736 524.52877 
L 77.567736 531.69727 
Q 77.567736 532.77727 78.647736 532.77727 
z
" style="fill: #ffffff; opacity: 0.8"/>
    </g>
    <!-- data_loading.load_config -->
    <g transform="translate(78.647736 529.999645) scale(0.072 -0.072)">
     <use xlink:href="#DejaVuSans-Bold-64"/>
     <use xlink:href="#DejaVuSans-Bold-61" transform="translate(71.582031 0)"/>
     <use xlink:href="#DejaVuSans-Bold-74" transform="translate(139.0625 0)"/>
     <use xlink:href="#DejaVuSans-Bold-61" transform="translate(186.865234 0)"/>
     <use xlink:href="#DejaVuSans-Bold-5f" transform="translate(254.345703 0)"/>
     <use xlink:href="#DejaVuSans-Bold-6c" transform="translate(304.345703 0)"/>
     <use xlink:href="#DejaVuSans-Bold-6f" transform="translate(338.623047 0)"/>
     <use xlink:href="#DejaVuSans-Bold-61" transform="translate(407.324219 0)"/>
     <use xlink:href="#DejaVuSans-Bold-64" transform="translate(474.804688 0)"/>
     <use xlink:href="#DejaVuSans-Bold-69" transform="translate(546.386719 0)"/>
     <use xlink:href="#DejaVuSans-Bold-6e" transform="translate(580.664062 0)"/>
     <use xlink:href="#DejaVuSans-Bold-67" transform="translate(651.855469 0)"/>
     <use xlink:href="#DejaVuSans-Bold-2e" transform="translate(723.4375 0)"/>
     <use xlink:href="#DejaVuSans-Bold-6c" transform="translate(761.425781 0)"/>
     <use xlink:href="#DejaVuSans-Bold-6f" transform="translate(795.703125 0)"/>
     <use xlink:href="#DejaVuSans-Bold-61" transform="translate(864.404297 0)"/>
     <use xlink:href="#DejaVuSans-Bold-64" transform="translate(931.884766 0)"/>
     <use xlink:href="#DejaVuSans-Bold-5f" transform="translate(1003.466797 0)"/>
     <use xlink:href="#DejaVuSans-Bold-63" transform="translate(1053.466797 0)"/>
     <use xlink:href="#DejaVuSans-Bold-6f" transform="translate(1112.744141 0)"/>
     <use xlink:href="#DejaVuSans-Bold-6e" transform="translate(1181.445312 0)"/>
     <use xlink:href="#DejaVuSans-Bold-66" transform="translate(1252.636719 0)"/>
     <use xlink:href="#DejaVuSans-Bold-69" transform="translate(1296.142578 0)"/>
     <use xlink:href="#DejaVuSans-Bold-67" transform="translate(1330.419922 0)"/>
    </g>
   </g>
   <g id="text_8">
    <g id="patch_28">
     <path d="M 81.684286 518.177127 
L 172.595536 518.177127 
Q 173.675536 518.177127 173.675536 517.097127 
L 173.675536 509.928627 
Q 173.675536 508.848627 172.595536 508.848627 
L 81.684286 508.848627 
Q 80.604286 508.848627 80.604286 509.928627 
L 80.604286 517.097127 
Q 80.604286 518.177127 81.684286 518.177127 
z
" style="fill: #ffffff; opacity: 0.8"/>
    </g>
    <!-- data_loading.load_raw -->
    <g transform="translate(81.684286 515.399502) scale(0.072 -0.072)">
     <use xlink:href="#DejaVuSans-Bold-64"/>
     <use xlink:href="#DejaVuSans-Bold-61" transform="translate(71.582031 0)"/>
     <use xlink:href="#DejaVuSans-Bold-74" transform="translate(139.0625 0)"/>
     <use xlink:href="#DejaVuSans-Bold-61" transform="translate(186.865234 0)"/>
     <use xlink:href="#DejaVuSans-Bold-5f" transform="translate(254.345703 0)"/>
     <use xlink:href="#DejaVuSans-Bold-6c" transform="translate(304.345703 0)"/>
     <use xlink:href="#DejaVuSans-Bold-6f" transform="translate(338.623047 0)"/>
     <use xlink:href="#DejaVuSans-Bold-61" transform="translate(407.324219 0)"/>
     <use xlink:href="#DejaVuSans-Bold-64" transform="translate(474.804688 0)"/>
     <use xlink:href="#DejaVuSans-Bold-69" transform="translate(546.386719 0)"/>
     <use xlink:href="#DejaVuSans-Bold-6e" transform="translate(580.664062 0)"/>
     <use xlink:href="#DejaVuSans-Bold-67" transform="translate(651.855469 0)"/>
     <use xlink:href="#DejaVuSans-Bold-2e" transform="translate(723.4375 0)"/>
     <use xlink:href="#DejaVuSans-Bold-6c" transform="translate(761.425781 0)"/>
     <use xlink:href="#DejaVuSans-Bold-6f" transform="translate(795.703125 0)"/>
     <use xlink:href="#DejaVuSans-Bold-61" transform="translate(864.404297 0)"/>
     <use xlink:href="#DejaVuSans-Bold-64" transform="translate(931.884766 0)"/>
     <use xlink:href="#DejaVuSans-Bold-5f" transform="translate(1003.466797 0)"/>
     <use xlink:href="#DejaVuSans-Bold-72" transform="translate(1053.466797 0)"/>
     <use xlink:href="#DejaVuSans-Bold-61" transform="translate(1102.783203 0)"/>
     <use xlink:href="#DejaVuSans-Bold-77" transform="translate(1170.263672 0)"/>
    </g>
   </g>
   <g id="text_9">
    <g id="patch_29">
     <path d="M 258.116754 133.757348 
L 324.622254 133.757348 
Q 325.702254 133.757348 325.702254 132.677348 
L 325.702254 125.508848 
Q 325.702254 124.428848 324.622254 124.428848 
L 258.116754 124.428848 
Q 257.036754 124.428848 257.036754 125.508848 
L 257.036754 132.677348 
Q 257.036754 133.757348 258.116754 133.757348 
z
" style="fill: #ffffff; opacity: 0.8"/>
    </g>
    <!-- data_loading.col -->
    <g transform="translate(258.116754 130.979723) scale(0.072 -0.072)">
     <use xlink:href="#DejaVuSans-Bold-64"/>
     <use xlink:href="#DejaVuSans-Bold-61" transform="translate(71.582031 0)"/>
     <use xlink:href="#DejaVuSans-Bold-74" transform="translate(139.0625 0)"/>
     <use xlink:href="#DejaVuSans-Bold-61" transform="translate(186.865234 0)"/>
     <use xlink:href="#DejaVuSans-Bold-5f" transform="translate(254.345703 0)"/>
     <use xlink:href="#DejaVuSans-Bold-6c" transform="translate(304.345703 0)"/>
     <use xlink:href="#DejaVuSans-Bold-6f" transform="translate(338.623047 0)"/>
     <use xlink:href="#DejaVuSans-Bold-61" transform="translate(407.324219 0)"/>
     <use xlink:href="#DejaVuSans-Bold-64" transform="translate(474.804688 0)"/>
     <use xlink:href="#DejaVuSans-Bold-69" transform="translate(546.386719 0)"/>
     <use xlink:href="#DejaVuSans-Bold-6e" transform="translate(580.664062 0)"/>
     <use xlink:href="#DejaVuSans-Bold-67" transform="translate(651.855469 0)"/>
     <use xlink:href="#DejaVuSans-Bold-2e" transform="translate(723.4375 0)"/>
     <use xlink:href="#DejaVuSans-Bold-63" transform="translate(761.425781 0)"/>
     <use xlink:href="#DejaVuSans-Bold-6f" transform="translate(820.703125 0)"/>
     <use xlink:href="#DejaVuSans-Bold-6c" transform="translate(889.404297 0)"/>
    </g>
   </g>
   <g id="text_10">
    <g id="patch_30">
     <path d="M 172.408934 201.462139 
L 260.848559 201.462139 
Q 261.928559 201.462139 261.928559 200.382139 
L 261.928559 193.213639 
Q 261.928559 192.133639 260.848559 192.133639 
L 172.408934 192.133639 
Q 171.328934 192.133639 171.328934 193.213639 
L 171.328934 200.382139 
Q 171.328934 201.462139 172.408934 201.462139 
z
" style="fill: #ffffff; opacity: 0.8"/>
    </g>
    <!-- callgraph.collect_defs -->
    <g transform="translate(172.408934 198.684514) scale(0.072 -0.072)">
     <defs>
      <path id="DejaVuSans-Bold-70" d="M 1656 506 
L 1656 -1331 
L 538 -1331 
L 538 3500 
L 1656 3500 
L 1656 2988 
Q 1888 3294 2169 3439 
Q 2450 3584 2816 3584 
Q 3463 3584 3878 3070 
Q 4294 2556 4294 1747 
Q 4294 938 3878 423 
Q 3463 -91 2816 -91 
Q 2450 -91 2169 54 
Q 1888 200 1656 506 
z
M 2400 2772 
Q 2041 2772 1848 2508 
Q 1656 2244 1656 1747 
Q 1656 1250 1848 986 
Q 2041 722 2400 722 
Q 2759 722 2948 984 
Q 3138 1247 3138 1747 
Q 3138 2247 2948 2509 
Q 2759 2772 2400 2772 
z
" transform="scale(0.015625)"/>
     </defs>
     <use xlink:href="#DejaVuSans-Bold-63"/>
     <use xlink:href="#DejaVuSans-Bold-61" transform="translate(59.277344 0)"/>
     <use xlink:href="#DejaVuSans-Bold-6c" transform="translate(126.757812 0)"/>
     <use xlink:href="#DejaVuSans-Bold-6c" transform="translate(161.035156 0)"/>
     <use xlink:href="#DejaVuSans-Bold-67" transform="translate(195.3125 0)"/>
     <use xlink:href="#DejaVuSans-Bold-72" transform="translate(266.894531 0)"/>
     <use xlink:href="#DejaVuSans-Bold-61" transform="translate(316.210938 0)"/>
     <use xlink:href="#DejaVuSans-Bold-70" transform="translate(383.691406 0)"/>
     <use xlink:href="#DejaVuSans-Bold-68" transform="translate(455.273438 0)"/>
     <use xlink:href="#DejaVuSans-Bold-2e" transform="translate(526.464844 0)"/>
     <use xlink:href="#DejaVuSans-Bold-63" transform="translate(564.453125 0)"/>
     <use xlink:href="#DejaVuSans-Bold-6f" transform="translate(623.730469 0)"/>
     <use xlink:href="#DejaVuSans-Bold-6c" transform="translate(692.431641 0)"/>
     <use xlink:href="#DejaVuSans-Bold-6c" transform="translate(726.708984 0)"/>
     <use xlink:href="#DejaVuSans-Bold-65" transform="translate(760.986328 0)"/>
     <use xlink:href="#DejaVuSans-Bold-63" transform="translate(828.808594 0)"/>
     <use xlink:href="#DejaVuSans-Bold-74" transform="translate(888.085938 0)"/>
     <use xlink:href="#DejaVuSans-Bold-5f" transform="translate(935.888672 0)"/>
     <use xlink:href="#DejaVuSans-Bold-64" transform="translate(985.888672 0)"/>
     <use xlink:href="#DejaVuSans-Bold-65" transform="translate(1057.470703 0)"/>
     <use xlink:href="#DejaVuSans-Bold-66" transform="translate(1125.292969 0)"/>
     <use xlink:href="#DejaVuSans-Bold-73" transform="translate(1168.798828 0)"/>
    </g>
   </g>
   <g id="text_11">
    <g id="patch_31">
     <path d="M 145.781225 192.12914 
L 234.233225 192.12914 
Q 235.313225 192.12914 235.313225 191.04914 
L 235.313225 183.88064 
Q 235.313225 182.80064 234.233225 182.80064 
L 145.781225 182.80064 
Q 144.701225 182.80064 144.701225 183.88064 
L 144.701225 191.04914 
Q 144.701225 192.12914 145.781225 192.12914 
z
" style="fill: #ffffff; opacity: 0.8"/>
    </g>
    <!-- callgraph.build_graph -->
    <g transform="translate(145.781225 189.351515) scale(0.072 -0.072)">
     <use xlink:href="#DejaVuSans-Bold-63"/>
     <use xlink:href="#DejaVuSans-Bold-61" transform="translate(59.277344 0)"/>
     <use xlink:href="#DejaVuSans-Bold-6c" transform="translate(126.757812 0)"/>
     <use xlink:href="#DejaVuSans-Bold-6c" transform="translate(161.035156 0)"/>
     <use xlink:href="#DejaVuSans-Bold-67" transform="translate(195.3125 0)"/>
     <use xlink:href="#DejaVuSans-Bold-72" transform="translate(266.894531 0)"/>
     <use xlink:href="#DejaVuSans-Bold-61" transform="translate(316.210938 0)"/>
     <use xlink:href="#DejaVuSans-Bold-70" transform="translate(383.691406 0)"/>
     <use xlink:href="#DejaVuSans-Bold-68" transform="translate(455.273438 0)"/>
     <use xlink:href="#DejaVuSans-Bold-2e" transform="translate(526.464844 0)"/>
     <use xlink:href="#DejaVuSans-Bold-62" transform="translate(564.453125 0)"/>
     <use xlink:href="#DejaVuSans-Bold-75" transform="translate(636.035156 0)"/>
     <use xlink:href="#DejaVuSans-Bold-69" transform="translate(707.226562 0)"/>
     <use xlink:href="#DejaVuSans-Bold-6c" transform="translate(741.503906 0)"/>
     <use xlink:href="#DejaVuSans-Bold-64" transform="translate(775.78125 0)"/>
     <use xlink:href="#DejaVuSans-Bold-5f" transform="translate(847.363281 0)"/>
     <use xlink:href="#DejaVuSans-Bold-67" transform="translate(897.363281 0)"/>
     <use xlink:href="#DejaVuSans-Bold-72" transform="translate(968.945312 0)"/>
     <use xlink:href="#DejaVuSans-Bold-61" transform="translate(1018.261719 0)"/>
     <use xlink:href="#DejaVuSans-Bold-70" transform="translate(1085.742188 0)"/>
     <use xlink:href="#DejaVuSans-Bold-68" transform="translate(1157.324219 0)"/>
    </g>
   </g>
   <g id="text_12">
    <g id="patch_32">
     <path d="M 135.151887 186.654761 
L 202.939887 186.654761 
Q 204.019887 186.654761 204.019887 185.574761 
L 204.019887 178.550261 
Q 204.019887 177.470261 202.939887 177.470261 
L 135.151887 177.470261 
Q 134.071887 177.470261 134.071887 178.550261 
L 134.071887 185.574761 
Q 134.071887 186.654761 135.151887 186.654761 
z
" style="fill: #ffffff; opacity: 0.8"/>
    </g>
    <!-- callgraph.render -->
    <g transform="translate(135.151887 184.021136) scale(0.072 -0.072)">
     <use xlink:href="#DejaVuSans-Bold-63"/>
     <use xlink:href="#DejaVuSans-Bold-61" transform="translate(59.277344 0)"/>
     <use xlink:href="#DejaVuSans-Bold-6c" transform="translate(126.757812 0)"/>
     <use xlink:href="#DejaVuSans-Bold-6c" transform="translate(161.035156 0)"/>
     <use xlink:href="#DejaVuSans-Bold-67" transform="translate(195.3125 0)"/>
     <use xlink:href="#DejaVuSans-Bold-72" transform="translate(266.894531 0)"/>
     <use xlink:href="#DejaVuSans-Bold-61" transform="translate(316.210938 0)"/>
     <use xlink:href="#DejaVuSans-Bold-70" transform="translate(383.691406 0)"/>
     <use xlink:href="#DejaVuSans-Bold-68" transform="translate(455.273438 0)"/>
     <use xlink:href="#DejaVuSans-Bold-2e" transform="translate(526.464844 0)"/>
     <use xlink:href="#DejaVuSans-Bold-72" transform="translate(564.453125 0)"/>
     <use xlink:href="#DejaVuSans-Bold-65" transform="translate(613.769531 0)"/>
     <use xlink:href="#DejaVuSans-Bold-6e" transform="translate(681.591797 0)"/>
     <use xlink:href="#DejaVuSans-Bold-64" transform="translate(752.783203 0)"/>
     <use xlink:href="#DejaVuSans-Bold-65" transform="translate(824.365234 0)"/>
     <use xlink:href="#DejaVuSans-Bold-72" transform="translate(892.1875 0)"/>
    </g>
   </g>
   <g id="text_13">
    <g id="patch_33">
     <path d="M 79.28235 472.967387 
L 139.878225 472.967387 
Q 140.958225 472.967387 140.958225 471.887387 
L 140.958225 464.862887 
Q 140.958225 463.782887 139.878225 463.782887 
L 79.28235 463.782887 
Q 78.20235 463.782887 78.20235 464.862887 
L 78.20235 471.887387 
Q 78.20235 472.967387 79.28235 472.967387 
z
" style="fill: #ffffff; opacity: 0.8"/>
    </g>
    <!-- callgraph.main -->
    <g transform="translate(79.28235 470.333762) scale(0.072 -0.072)">
     <use xlink:href="#DejaVuSans-Bold-63"/>
     <use xlink:href="#DejaVuSans-Bold-61" transform="translate(59.277344 0)"/>
     <use xlink:href="#DejaVuSans-Bold-6c" transform="translate(126.757812 0)"/>
     <use xlink:href="#DejaVuSans-Bold-6c" transform="translate(161.035156 0)"/>
     <use xlink:href="#DejaVuSans-Bold-67" transform="translate(195.3125 0)"/>
     <use xlink:href="#DejaVuSans-Bold-72" transform="translate(266.894531 0)"/>
     <use xlink:href="#DejaVuSans-Bold-61" transform="translate(316.210938 0)"/>
     <use xlink:href="#DejaVuSans-Bold-70" transform="translate(383.691406 0)"/>
     <use xlink:href="#DejaVuSans-Bold-68" transform="translate(455.273438 0)"/>
     <use xlink:href="#DejaVuSans-Bold-2e" transform="translate(526.464844 0)"/>
     <use xlink:href="#DejaVuSans-Bold-6d" transform="translate(564.453125 0)"/>
     <use xlink:href="#DejaVuSans-Bold-61" transform="translate(668.652344 0)"/>
     <use xlink:href="#DejaVuSans-Bold-69" transform="translate(736.132812 0)"/>
     <use xlink:href="#DejaVuSans-Bold-6e" transform="translate(770.410156 0)"/>
    </g>
   </g>
   <g id="text_14">
    <g id="patch_34">
     <path d="M 78.386691 411.899402 
L 162.411816 411.899402 
Q 163.491816 411.899402 163.491816 410.819402 
L 163.491816 403.650902 
Q 163.491816 402.570902 162.411816 402.570902 
L 78.386691 402.570902 
Q 77.306691 402.570902 77.306691 403.650902 
L 77.306691 410.819402 
Q 77.306691 411.899402 78.386691 411.899402 
z
" style="fill: #ffffff; opacity: 0.8"/>
    </g>
    <!-- make_schematic.box -->
    <g transform="translate(78.386691 409.121777) scale(0.072 -0.072)">
     <defs>
      <path id="DejaVuSans-Bold-6b" d="M 538 4863 
L 1656 4863 
L 1656 2216 
L 2944 3500 
L 4244 3500 
L 2534 1894 
L 4378 0 
L 3022 0 
L 1656 1459 
L 1656 0 
L 538 0 
L 538 4863 
z
" transform="scale(0.015625)"/>
      <path id="DejaVuSans-Bold-78" d="M 1422 1791 
L 159 3500 
L 1344 3500 
L 2059 2463 
L 2784 3500 
L 3969 3500 
L 2706 1797 
L 4031 0 
L 2847 0 
L 2059 1106 
L 1281 0 
L 97 0 
L 1422 1791 
z
" transform="scale(0.015625)"/>
     </defs>
     <use xlink:href="#DejaVuSans-Bold-6d"/>
     <use xlink:href="#DejaVuSans-Bold-61" transform="translate(104.199219 0)"/>
     <use xlink:href="#DejaVuSans-Bold-6b" transform="translate(171.679688 0)"/>
     <use xlink:href="#DejaVuSans-Bold-65" transform="translate(235.558594 0)"/>
     <use xlink:href="#DejaVuSans-Bold-5f" transform="translate(303.380859 0)"/>
     <use xlink:href="#DejaVuSans-Bold-73" transform="translate(353.380859 0)"/>
     <use xlink:href="#DejaVuSans-Bold-63" transform="translate(412.902344 0)"/>
     <use xlink:href="#DejaVuSans-Bold-68" transform="translate(472.179688 0)"/>
     <use xlink:href="#DejaVuSans-Bold-65" transform="translate(543.371094 0)"/>
     <use xlink:href="#DejaVuSans-Bold-6d" transform="translate(611.193359 0)"/>
     <use xlink:href="#DejaVuSans-Bold-61" transform="translate(715.392578 0)"/>
     <use xlink:href="#DejaVuSans-Bold-74" transform="translate(782.873047 0)"/>
     <use xlink:href="#DejaVuSans-Bold-69" transform="translate(830.675781 0)"/>
     <use xlink:href="#DejaVuSans-Bold-63" transform="translate(864.953125 0)"/>
     <use xlink:href="#DejaVuSans-Bold-2e" transform="translate(924.230469 0)"/>
     <use xlink:href="#DejaVuSans-Bold-62" transform="translate(962.21875 0)"/>
     <use xlink:href="#DejaVuSans-Bold-6f" transform="translate(1033.800781 0)"/>
     <use xlink:href="#DejaVuSans-Bold-78" transform="translate(1102.501953 0)"/>
    </g>
   </g>
   <g id="text_15">
    <g id="patch_35">
     <path d="M 52.624878 422.521346 
L 145.464378 422.521346 
Q 146.544378 422.521346 146.544378 421.441346 
L 146.544378 414.272846 
Q 146.544378 413.192846 145.464378 413.192846 
L 52.624878 413.192846 
Q 51.544878 413.192846 51.544878 414.272846 
L 51.544878 421.441346 
Q 51.544878 422.521346 52.624878 422.521346 
z
" style="fill: #ffffff; opacity: 0.8"/>
    </g>
    <!-- make_schematic.arrow -->
    <g transform="translate(52.624878 419.743721) scale(0.072 -0.072)">
     <use xlink:href="#DejaVuSans-Bold-6d"/>
     <use xlink:href="#DejaVuSans-Bold-61" transform="translate(104.199219 0)"/>
     <use xlink:href="#DejaVuSans-Bold-6b" transform="translate(171.679688 0)"/>
     <use xlink:href="#DejaVuSans-Bold-65" transform="translate(235.558594 0)"/>
     <use xlink:href="#DejaVuSans-Bold-5f" transform="translate(303.380859 0)"/>
     <use xlink:href="#DejaVuSans-Bold-73" transform="translate(353.380859 0)"/>
     <use xlink:href="#DejaVuSans-Bold-63" transform="translate(412.902344 0)"/>
     <use xlink:href="#DejaVuSans-Bold-68" transform="translate(472.179688 0)"/>
     <use xlink:href="#DejaVuSans-Bold-65" transform="translate(543.371094 0)"/>
     <use xlink:href="#DejaVuSans-Bold-6d" transform="translate(611.193359 0)"/>
     <use xlink:href="#DejaVuSans-Bold-61" transform="translate(715.392578 0)"/>
     <use xlink:href="#DejaVuSans-Bold-74" transform="translate(782.873047 0)"/>
     <use xlink:href="#DejaVuSans-Bold-69" transform="translate(830.675781 0)"/>
     <use xlink:href="#DejaVuSans-Bold-63" transform="translate(864.953125 0)"/>
     <use xlink:href="#DejaVuSans-Bold-2e" transform="translate(924.230469 0)"/>
     <use xlink:href="#DejaVuSans-Bold-61" transform="translate(962.21875 0)"/>
     <use xlink:href="#DejaVuSans-Bold-72" transform="translate(1029.699219 0)"/>
     <use xlink:href="#DejaVuSans-Bold-72" transform="translate(1079.015625 0)"/>
     <use xlink:href="#DejaVuSans-Bold-6f" transform="translate(1128.332031 0)"/>
     <use xlink:href="#DejaVuSans-Bold-77" transform="translate(1197.033203 0)"/>
    </g>
   </g>
   <g id="text_16">
    <g id="patch_36">
     <path d="M 191.030682 680.065025 
L 280.266807 680.065025 
Q 281.346807 680.065025 281.346807 678.985025 
L 281.346807 671.816525 
Q 281.346807 670.736525 280.266807 670.736525 
L 191.030682 670.736525 
Q 189.950682 670.736525 189.950682 671.816525 
L 189.950682 678.985025 
Q 189.950682 680.065025 191.030682 680.065025 
z
" style="fill: #ffffff; opacity: 0.8"/>
    </g>
    <!-- make_schematic.main -->
    <g transform="translate(191.030682 677.2874) scale(0.072 -0.072)">
     <use xlink:href="#DejaVuSans-Bold-6d"/>
     <use xlink:href="#DejaVuSans-Bold-61" transform="translate(104.199219 0)"/>
     <use xlink:href="#DejaVuSans-Bold-6b" transform="translate(171.679688 0)"/>
     <use xlink:href="#DejaVuSans-Bold-65" transform="translate(235.558594 0)"/>
     <use xlink:href="#DejaVuSans-Bold-5f" transform="translate(303.380859 0)"/>
     <use xlink:href="#DejaVuSans-Bold-73" transform="translate(353.380859 0)"/>
     <use xlink:href="#DejaVuSans-Bold-63" transform="translate(412.902344 0)"/>
     <use xlink:href="#DejaVuSans-Bold-68" transform="translate(472.179688 0)"/>
     <use xlink:href="#DejaVuSans-Bold-65" transform="translate(543.371094 0)"/>
     <use xlink:href="#DejaVuSans-Bold-6d" transform="translate(611.193359 0)"/>
     <use xlink:href="#DejaVuSans-Bold-61" transform="translate(715.392578 0)"/>
     <use xlink:href="#DejaVuSans-Bold-74" transform="translate(782.873047 0)"/>
     <use xlink:href="#DejaVuSans-Bold-69" transform="translate(830.675781 0)"/>
     <use xlink:href="#DejaVuSans-Bold-63" transform="translate(864.953125 0)"/>
     <use xlink:href="#DejaVuSans-Bold-2e" transform="translate(924.230469 0)"/>
     <use xlink:href="#DejaVuSans-Bold-6d" transform="translate(962.21875 0)"/>
     <use xlink:href="#DejaVuSans-Bold-61" transform="translate(1066.417969 0)"/>
     <use xlink:href="#DejaVuSans-Bold-69" transform="translate(1133.898438 0)"/>
     <use xlink:href="#DejaVuSans-Bold-6e" transform="translate(1168.175781 0)"/>
    </g>
   </g>
   <g id="text_17">
    <g id="patch_37">
     <path d="M 380.259851 490.29768 
L 447.633851 490.29768 
Q 448.713851 490.29768 448.713851 489.21768 
L 448.713851 482.24943 
Q 448.713851 481.16943 447.633851 481.16943 
L 380.259851 481.16943 
Q 379.179851 481.16943 379.179851 482.24943 
L 379.179851 489.21768 
Q 379.179851 490.29768 380.259851 490.29768 
z
" style="fill: #ffffff; opacity: 0.8"/>
    </g>
    <!-- pipeline.prepare -->
    <g transform="translate(380.259851 487.720305) scale(0.072 -0.072)">
     <use xlink:href="#DejaVuSans-Bold-70"/>
     <use xlink:href="#DejaVuSans-Bold-69" transform="translate(71.582031 0)"/>
     <use xlink:href="#DejaVuSans-Bold-70" transform="translate(105.859375 0)"/>
     <use xlink:href="#DejaVuSans-Bold-65" transform="translate(177.441406 0)"/>
     <use xlink:href="#DejaVuSans-Bold-6c" transform="translate(245.263672 0)"/>
     <use xlink:href="#DejaVuSans-Bold-69" transform="translate(279.541016 0)"/>
     <use xlink:href="#DejaVuSans-Bold-6e" transform="translate(313.818359 0)"/>
     <use xlink:href="#DejaVuSans-Bold-65" transform="translate(385.009766 0)"/>
     <use xlink:href="#DejaVuSans-Bold-2e" transform="translate(452.832031 0)"/>
     <use xlink:href="#DejaVuSans-Bold-70" transform="translate(490.820312 0)"/>
     <use xlink:href="#DejaVuSans-Bold-72" transform="translate(562.402344 0)"/>
     <use xlink:href="#DejaVuSans-Bold-65" transform="translate(611.71875 0)"/>
     <use xlink:href="#DejaVuSans-Bold-70" transform="translate(679.541016 0)"/>
     <use xlink:href="#DejaVuSans-Bold-61" transform="translate(751.123047 0)"/>
     <use xlink:href="#DejaVuSans-Bold-72" transform="translate(818.603516 0)"/>
     <use xlink:href="#DejaVuSans-Bold-65" transform="translate(867.919922 0)"/>
    </g>
   </g>
   <g id="text_18">
    <g id="patch_38">
     <path d="M 90.55988 612.651746 
L 214.230005 612.651746 
Q 215.310005 612.651746 215.310005 611.571746 
L 215.310005 604.403246 
Q 215.310005 603.323246 214.230005 603.323246 
L 90.55988 603.323246 
Q 89.47988 603.323246 89.47988 604.403246 
L 89.47988 611.571746 
Q 89.47988 612.651746 90.55988 612.651746 
z
" style="fill: #ffffff; opacity: 0.8"/>
    </g>
    <!-- cleaning.derive_demographics -->
    <g transform="translate(90.55988 609.874121) scale(0.072 -0.072)">
     <use xlink:href="#DejaVuSans-Bold-63"/>
     <use xlink:href="#DejaVuSans-Bold-6c" transform="translate(59.277344 0)"/>
     <use xlink:href="#DejaVuSans-Bold-65" transform="translate(93.554688 0)"/>
     <use xlink:href="#DejaVuSans-Bold-61" transform="translate(161.376953 0)"/>
     <use xlink:href="#DejaVuSans-Bold-6e" transform="translate(228.857422 0)"/>
     <use xlink:href="#DejaVuSans-Bold-69" transform="translate(300.048828 0)"/>
     <use xlink:href="#DejaVuSans-Bold-6e" transform="translate(334.326172 0)"/>
     <use xlink:href="#DejaVuSans-Bold-67" transform="translate(405.517578 0)"/>
     <use xlink:href="#DejaVuSans-Bold-2e" transform="translate(477.099609 0)"/>
     <use xlink:href="#DejaVuSans-Bold-64" transform="translate(515.087891 0)"/>
     <use xlink:href="#DejaVuSans-Bold-65" transform="translate(586.669922 0)"/>
     <use xlink:href="#DejaVuSans-Bold-72" transform="translate(654.492188 0)"/>
     <use xlink:href="#DejaVuSans-Bold-69" transform="translate(703.808594 0)"/>
     <use xlink:href="#DejaVuSans-Bold-76" transform="translate(738.085938 0)"/>
     <use xlink:href="#DejaVuSans-Bold-65" transform="translate(803.271484 0)"/>
     <use xlink:href="#DejaVuSans-Bold-5f" transform="translate(871.09375 0)"/>
     <use xlink:href="#DejaVuSans-Bold-64" transform="translate(921.09375 0)"/>
     <use xlink:href="#DejaVuSans-Bold-65" transform="translate(992.675781 0)"/>
     <use xlink:href="#DejaVuSans-Bold-6d" transform="translate(1060.498047 0)"/>
     <use xlink:href="#DejaVuSans-Bold-6f" transform="translate(1164.697266 0)"/>
     <use xlink:href="#DejaVuSans-Bold-67" transform="translate(1233.398438 0)"/>
     <use xlink:href="#DejaVuSans-Bold-72" transform="translate(1304.980469 0)"/>
     <use xlink:href="#DejaVuSans-Bold-61" transform="translate(1354.296875 0)"/>
     <use xlink:href="#DejaVuSans-Bold-70" transform="translate(1421.777344 0)"/>
     <use xlink:href="#DejaVuSans-Bold-68" transform="translate(1493.359375 0)"/>
     <use xlink:href="#DejaVuSans-Bold-69" transform="translate(1564.550781 0)"/>
     <use xlink:href="#DejaVuSans-Bold-63" transform="translate(1598.828125 0)"/>
     <use xlink:href="#DejaVuSans-Bold-73" transform="translate(1658.105469 0)"/>
    </g>
   </g>
   <g id="text_19">
    <g id="patch_39">
     <path d="M 94.042981 608.498241 
L 207.205606 608.498241 
Q 208.285606 608.498241 208.285606 607.418241 
L 208.285606 600.249741 
Q 208.285606 599.169741 207.205606 599.169741 
L 94.042981 599.169741 
Q 92.962981 599.169741 92.962981 600.249741 
L 92.962981 607.418241 
Q 92.962981 608.498241 94.042981 608.498241 
z
" style="fill: #ffffff; opacity: 0.8"/>
    </g>
    <!-- cleaning.winsorize_volumes -->
    <g transform="translate(94.042981 605.720616) scale(0.072 -0.072)">
     <defs>
      <path id="DejaVuSans-Bold-7a" d="M 366 3500 
L 3419 3500 
L 3419 2719 
L 1575 800 
L 3419 800 
L 3419 0 
L 288 0 
L 288 781 
L 2131 2700 
L 366 2700 
L 366 3500 
z
" transform="scale(0.015625)"/>
     </defs>
     <use xlink:href="#DejaVuSans-Bold-63"/>
     <use xlink:href="#DejaVuSans-Bold-6c" transform="translate(59.277344 0)"/>
     <use xlink:href="#DejaVuSans-Bold-65" transform="translate(93.554688 0)"/>
     <use xlink:href="#DejaVuSans-Bold-61" transform="translate(161.376953 0)"/>
     <use xlink:href="#DejaVuSans-Bold-6e" transform="translate(228.857422 0)"/>
     <use xlink:href="#DejaVuSans-Bold-69" transform="translate(300.048828 0)"/>
     <use xlink:href="#DejaVuSans-Bold-6e" transform="translate(334.326172 0)"/>
     <use xlink:href="#DejaVuSans-Bold-67" transform="translate(405.517578 0)"/>
     <use xlink:href="#DejaVuSans-Bold-2e" transform="translate(477.099609 0)"/>
     <use xlink:href="#DejaVuSans-Bold-77" transform="translate(515.087891 0)"/>
     <use xlink:href="#DejaVuSans-Bold-69" transform="translate(607.470703 0)"/>
     <use xlink:href="#DejaVuSans-Bold-6e" transform="translate(641.748047 0)"/>
     <use xlink:href="#DejaVuSans-Bold-73" transform="translate(712.939453 0)"/>
     <use xlink:href="#DejaVuSans-Bold-6f" transform="translate(772.460938 0)"/>
     <use xlink:href="#DejaVuSans-Bold-72" transform="translate(841.162109 0)"/>
     <use xlink:href="#DejaVuSans-Bold-69" transform="translate(890.478516 0)"/>
     <use xlink:href="#DejaVuSans-Bold-7a" transform="translate(924.755859 0)"/>
     <use xlink:href="#DejaVuSans-Bold-65" transform="translate(982.958984 0)"/>
     <use xlink:href="#DejaVuSans-Bold-5f" transform="translate(1050.78125 0)"/>
     <use xlink:href="#DejaVuSans-Bold-76" transform="translate(1100.78125 0)"/>
     <use xlink:href="#DejaVuSans-Bold-6f" transform="translate(1165.966797 0)"/>
     <use xlink:href="#DejaVuSans-Bold-6c" transform="translate(1234.667969 0)"/>
     <use xlink:href="#DejaVuSans-Bold-75" transform="translate(1268.945312 0)"/>
     <use xlink:href="#DejaVuSans-Bold-6d" transform="translate(1340.136719 0)"/>
     <use xlink:href="#DejaVuSans-Bold-65" transform="translate(1444.335938 0)"/>
     <use xlink:href="#DejaVuSans-Bold-73" transform="translate(1512.158203 0)"/>
    </g>
   </g>
   <g id="text_20">
    <g id="patch_40">
     <path d="M 81.344286 604.105481 
L 216.291411 604.105481 
Q 217.371411 604.105481 217.371411 603.025481 
L 217.371411 595.856981 
Q 217.371411 594.776981 216.291411 594.776981 
L 81.344286 594.776981 
Q 80.264286 594.776981 80.264286 595.856981 
L 80.264286 603.025481 
Q 80.264286 604.105481 81.344286 604.105481 
z
" style="fill: #ffffff; opacity: 0.8"/>
    </g>
    <!-- cleaning.build_muscle_exposures -->
    <g transform="translate(81.344286 601.327856) scale(0.072 -0.072)">
     <use xlink:href="#DejaVuSans-Bold-63"/>
     <use xlink:href="#DejaVuSans-Bold-6c" transform="translate(59.277344 0)"/>
     <use xlink:href="#DejaVuSans-Bold-65" transform="translate(93.554688 0)"/>
     <use xlink:href="#DejaVuSans-Bold-61" transform="translate(161.376953 0)"/>
     <use xlink:href="#DejaVuSans-Bold-6e" transform="translate(228.857422 0)"/>
     <use xlink:href="#DejaVuSans-Bold-69" transform="translate(300.048828 0)"/>
     <use xlink:href="#DejaVuSans-Bold-6e" transform="translate(334.326172 0)"/>
     <use xlink:href="#DejaVuSans-Bold-67" transform="translate(405.517578 0)"/>
     <use xlink:href="#DejaVuSans-Bold-2e" transform="translate(477.099609 0)"/>
     <use xlink:href="#DejaVuSans-Bold-62" transform="translate(515.087891 0)"/>
     <use xlink:href="#DejaVuSans-Bold-75" transform="translate(586.669922 0)"/>
     <use xlink:href="#DejaVuSans-Bold-69" transform="translate(657.861328 0)"/>
     <use xlink:href="#DejaVuSans-Bold-6c" transform="translate(692.138672 0)"/>
     <use xlink:href="#DejaVuSans-Bold-64" transform="translate(726.416016 0)"/>
     <use xlink:href="#DejaVuSans-Bold-5f" transform="translate(797.998047 0)"/>
     <use xlink:href="#DejaVuSans-Bold-6d" transform="translate(847.998047 0)"/>
     <use xlink:href="#DejaVuSans-Bold-75" transform="translate(952.197266 0)"/>
     <use xlink:href="#DejaVuSans-Bold-73" transform="translate(1023.388672 0)"/>
     <use xlink:href="#DejaVuSans-Bold-63" transform="translate(1082.910156 0)"/>
     <use xlink:href="#DejaVuSans-Bold-6c" transform="translate(1142.1875 0)"/>
     <use xlink:href="#DejaVuSans-Bold-65" transform="translate(1176.464844 0)"/>
     <use xlink:href="#DejaVuSans-Bold-5f" transform="translate(1244.287109 0)"/>
     <use xlink:href="#DejaVuSans-Bold-65" transform="translate(1294.287109 0)"/>
     <use xlink:href="#DejaVuSans-Bold-78" transform="translate(1362.109375 0)"/>
     <use xlink:href="#DejaVuSans-Bold-70" transform="translate(1426.611328 0)"/>
     <use xlink:href="#DejaVuSans-Bold-6f" transform="translate(1498.193359 0)"/>
     <use xlink:href="#DejaVuSans-Bold-73" transform="translate(1566.894531 0)"/>
     <use xlink:href="#DejaVuSans-Bold-75" transform="translate(1626.416016 0)"/>
     <use xlink:href="#DejaVuSans-Bold-72" transform="translate(1697.607422 0)"/>
     <use xlink:href="#DejaVuSans-Bold-65" transform="translate(1746.923828 0)"/>
     <use xlink:href="#DejaVuSans-Bold-73" transform="translate(1814.746094 0)"/>
    </g>
   </g>
   <g id="text_21">
    <g id="patch_41">
     <path d="M 96.325169 598.341579 
L 196.780919 598.341579 
Q 197.860919 598.341579 197.860919 597.261579 
L 197.860919 590.093079 
Q 197.860919 589.013079 196.780919 589.013079 
L 96.325169 589.013079 
Q 95.245169 589.013079 95.245169 590.093079 
L 95.245169 597.261579 
Q 95.245169 598.341579 96.325169 598.341579 
z
" style="fill: #ffffff; opacity: 0.8"/>
    </g>
    <!-- cleaning.build_outcomes -->
    <g transform="translate(96.325169 595.563954) scale(0.072 -0.072)">
     <use xlink:href="#DejaVuSans-Bold-63"/>
     <use xlink:href="#DejaVuSans-Bold-6c" transform="translate(59.277344 0)"/>
     <use xlink:href="#DejaVuSans-Bold-65" transform="translate(93.554688 0)"/>
     <use xlink:href="#DejaVuSans-Bold-61" transform="translate(161.376953 0)"/>
     <use xlink:href="#DejaVuSans-Bold-6e" transform="translate(228.857422 0)"/>
     <use xlink:href="#DejaVuSans-Bold-69" transform="translate(300.048828 0)"/>
     <use xlink:href="#DejaVuSans-Bold-6e" transform="translate(334.326172 0)"/>
     <use xlink:href="#DejaVuSans-Bold-67" transform="translate(405.517578 0)"/>
     <use xlink:href="#DejaVuSans-Bold-2e" transform="translate(477.099609 0)"/>
     <use xlink:href="#DejaVuSans-Bold-62" transform="translate(515.087891 0)"/>
     <use xlink:href="#DejaVuSans-Bold-75" transform="translate(586.669922 0)"/>
     <use xlink:href="#DejaVuSans-Bold-69" transform="translate(657.861328 0)"/>
     <use xlink:href="#DejaVuSans-Bold-6c" transform="translate(692.138672 0)"/>
     <use xlink:href="#DejaVuSans-Bold-64" transform="translate(726.416016 0)"/>
     <use xlink:href="#DejaVuSans-Bold-5f" transform="translate(797.998047 0)"/>
     <use xlink:href="#DejaVuSans-Bold-6f" transform="translate(847.998047 0)"/>
     <use xlink:href="#DejaVuSans-Bold-75" transform="translate(916.699219 0)"/>
     <use xlink:href="#DejaVuSans-Bold-74" transform="translate(987.890625 0)"/>
     <use xlink:href="#DejaVuSans-Bold-63" transform="translate(1035.693359 0)"/>
     <use xlink:href="#DejaVuSans-Bold-6f" transform="translate(1094.970703 0)"/>
     <use xlink:href="#DejaVuSans-Bold-6d" transform="translate(1163.671875 0)"/>
     <use xlink:href="#DejaVuSans-Bold-65" transform="translate(1267.871094 0)"/>
     <use xlink:href="#DejaVuSans-Bold-73" transform="translate(1335.693359 0)"/>
    </g>
   </g>
   <g id="text_22">
    <g id="patch_42">
     <path d="M 665.391433 405.042803 
L 714.532558 405.042803 
Q 715.612558 405.042803 715.612558 403.962803 
L 715.612558 396.994553 
Q 715.612558 395.914553 714.532558 395.914553 
L 665.391433 395.914553 
Q 664.311433 395.914553 664.311433 396.994553 
L 664.311433 403.962803 
Q 664.311433 405.042803 665.391433 405.042803 
z
" style="fill: #ffffff; opacity: 0.8"/>
    </g>
    <!-- pipeline.run -->
    <g transform="translate(665.391433 402.465428) scale(0.072 -0.072)">
     <use xlink:href="#DejaVuSans-Bold-70"/>
     <use xlink:href="#DejaVuSans-Bold-69" transform="translate(71.582031 0)"/>
     <use xlink:href="#DejaVuSans-Bold-70" transform="translate(105.859375 0)"/>
     <use xlink:href="#DejaVuSans-Bold-65" transform="translate(177.441406 0)"/>
     <use xlink:href="#DejaVuSans-Bold-6c" transform="translate(245.263672 0)"/>
     <use xlink:href="#DejaVuSans-Bold-69" transform="translate(279.541016 0)"/>
     <use xlink:href="#DejaVuSans-Bold-6e" transform="translate(313.818359 0)"/>
     <use xlink:href="#DejaVuSans-Bold-65" transform="translate(385.009766 0)"/>
     <use xlink:href="#DejaVuSans-Bold-2e" transform="translate(452.832031 0)"/>
     <use xlink:href="#DejaVuSans-Bold-72" transform="translate(490.820312 0)"/>
     <use xlink:href="#DejaVuSans-Bold-75" transform="translate(540.136719 0)"/>
     <use xlink:href="#DejaVuSans-Bold-6e" transform="translate(611.328125 0)"/>
    </g>
   </g>
   <g id="text_23">
    <g id="patch_43">
     <path d="M 828.253693 636.797719 
L 903.436318 636.797719 
Q 904.516318 636.797719 904.516318 635.717719 
L 904.516318 628.549219 
Q 904.516318 627.469219 903.436318 627.469219 
L 828.253693 627.469219 
Q 827.173693 627.469219 827.173693 628.549219 
L 827.173693 635.717719 
Q 827.173693 636.797719 828.253693 636.797719 
z
" style="fill: #ffffff; opacity: 0.8"/>
    </g>
    <!-- figures.forest_plot -->
    <g transform="translate(828.253693 634.020094) scale(0.072 -0.072)">
     <use xlink:href="#DejaVuSans-Bold-66"/>
     <use xlink:href="#DejaVuSans-Bold-69" transform="translate(43.505859 0)"/>
     <use xlink:href="#DejaVuSans-Bold-67" transform="translate(77.783203 0)"/>
     <use xlink:href="#DejaVuSans-Bold-75" transform="translate(149.365234 0)"/>
     <use xlink:href="#DejaVuSans-Bold-72" transform="translate(220.556641 0)"/>
     <use xlink:href="#DejaVuSans-Bold-65" transform="translate(269.873047 0)"/>
     <use xlink:href="#DejaVuSans-Bold-73" transform="translate(337.695312 0)"/>
     <use xlink:href="#DejaVuSans-Bold-2e" transform="translate(397.216797 0)"/>
     <use xlink:href="#DejaVuSans-Bold-66" transform="translate(435.205078 0)"/>
     <use xlink:href="#DejaVuSans-Bold-6f" transform="translate(478.710938 0)"/>
     <use xlink:href="#DejaVuSans-Bold-72" transform="translate(547.412109 0)"/>
     <use xlink:href="#DejaVuSans-Bold-65" transform="translate(596.728516 0)"/>
     <use xlink:href="#DejaVuSans-Bold-73" transform="translate(664.550781 0)"/>
     <use xlink:href="#DejaVuSans-Bold-74" transform="translate(724.072266 0)"/>
     <use xlink:href="#DejaVuSans-Bold-5f" transform="translate(771.875 0)"/>
     <use xlink:href="#DejaVuSans-Bold-70" transform="translate(821.875 0)"/>
     <use xlink:href="#DejaVuSans-Bold-6c" transform="translate(893.457031 0)"/>
     <use xlink:href="#DejaVuSans-Bold-6f" transform="translate(927.734375 0)"/>
     <use xlink:href="#DejaVuSans-Bold-74" transform="translate(996.435547 0)"/>
    </g>
   </g>
   <g id="text_24">
    <g id="patch_44">
     <path d="M 889.087571 559.233233 
L 980.133821 559.233233 
Q 981.213821 559.233233 981.213821 558.153233 
L 981.213821 550.984733 
Q 981.213821 549.904733 980.133821 549.904733 
L 889.087571 549.904733 
Q 888.007571 549.904733 888.007571 550.984733 
L 888.007571 558.153233 
Q 888.007571 559.233233 889.087571 559.233233 
z
" style="fill: #ffffff; opacity: 0.8"/>
    </g>
    <!-- figures.trajectory_plot -->
    <g transform="translate(889.087571 556.455608) scale(0.072 -0.072)">
     <defs>
      <path id="DejaVuSans-Bold-6a" d="M 538 3500 
L 1656 3500 
L 1656 63 
Q 1656 -641 1318 -1011 
Q 981 -1381 341 -1381 
L -213 -1381 
L -213 -647 
L -19 -647 
Q 300 -647 419 -503 
Q 538 -359 538 63 
L 538 3500 
z
M 538 4863 
L 1656 4863 
L 1656 3950 
L 538 3950 
L 538 4863 
z
" transform="scale(0.015625)"/>
     </defs>
     <use xlink:href="#DejaVuSans-Bold-66"/>
     <use xlink:href="#DejaVuSans-Bold-69" transform="translate(43.505859 0)"/>
     <use xlink:href="#DejaVuSans-Bold-67" transform="translate(77.783203 0)"/>
     <use xlink:href="#DejaVuSans-Bold-75" transform="translate(149.365234 0)"/>
     <use xlink:href="#DejaVuSans-Bold-72" transform="translate(220.556641 0)"/>
     <use xlink:href="#DejaVuSans-Bold-65" transform="translate(269.873047 0)"/>
     <use xlink:href="#DejaVuSans-Bold-73" transform="translate(337.695312 0)"/>
     <use xlink:href="#DejaVuSans-Bold-2e" transform="translate(397.216797 0)"/>
     <use xlink:href="#DejaVuSans-Bold-74" transform="translate(435.205078 0)"/>
     <use xlink:href="#DejaVuSans-Bold-72" transform="translate(483.007812 0)"/>
     <use xlink:href="#DejaVuSans-Bold-61" transform="translate(532.324219 0)"/>
     <use xlink:href="#DejaVuSans-Bold-6a" transform="translate(599.804688 0)"/>
     <use xlink:href="#DejaVuSans-Bold-65" transform="translate(634.082031 0)"/>
     <use xlink:href="#DejaVuSans-Bold-63" transform="translate(701.904297 0)"/>
     <use xlink:href="#DejaVuSans-Bold-74" transform="translate(761.181641 0)"/>
     <use xlink:href="#DejaVuSans-Bold-6f" transform="translate(808.984375 0)"/>
     <use xlink:href="#DejaVuSans-Bold-72" transform="translate(877.685547 0)"/>
     <use xlink:href="#DejaVuSans-Bold-79" transform="translate(927.001953 0)"/>
     <use xlink:href="#DejaVuSans-Bold-5f" transform="translate(992.1875 0)"/>
     <use xlink:href="#DejaVuSans-Bold-70" transform="translate(1042.1875 0)"/>
     <use xlink:href="#DejaVuSans-Bold-6c" transform="translate(1113.769531 0)"/>
     <use xlink:href="#DejaVuSans-Bold-6f" transform="translate(1148.046875 0)"/>
     <use xlink:href="#DejaVuSans-Bold-74" transform="translate(1216.748047 0)"/>
    </g>
   </g>
   <g id="text_25">
    <g id="patch_45">
     <path d="M 926.384997 453.384302 
L 1021.125747 453.384302 
Q 1022.205747 453.384302 1022.205747 452.304302 
L 1022.205747 445.135802 
Q 1022.205747 444.055802 1021.125747 444.055802 
L 926.384997 444.055802 
Q 925.304997 444.055802 925.304997 445.135802 
L 925.304997 452.304302 
Q 925.304997 453.384302 926.384997 453.384302 
z
" style="fill: #ffffff; opacity: 0.8"/>
    </g>
    <!-- figures.strobe_diagram -->
    <g transform="translate(926.384997 450.606677) scale(0.072 -0.072)">
     <use xlink:href="#DejaVuSans-Bold-66"/>
     <use xlink:href="#DejaVuSans-Bold-69" transform="translate(43.505859 0)"/>
     <use xlink:href="#DejaVuSans-Bold-67" transform="translate(77.783203 0)"/>
     <use xlink:href="#DejaVuSans-Bold-75" transform="translate(149.365234 0)"/>
     <use xlink:href="#DejaVuSans-Bold-72" transform="translate(220.556641 0)"/>
     <use xlink:href="#DejaVuSans-Bold-65" transform="translate(269.873047 0)"/>
     <use xlink:href="#DejaVuSans-Bold-73" transform="translate(337.695312 0)"/>
     <use xlink:href="#DejaVuSans-Bold-2e" transform="translate(397.216797 0)"/>
     <use xlink:href="#DejaVuSans-Bold-73" transform="translate(435.205078 0)"/>
     <use xlink:href="#DejaVuSans-Bold-74" transform="translate(494.726562 0)"/>
     <use xlink:href="#DejaVuSans-Bold-72" transform="translate(542.529297 0)"/>
     <use xlink:href="#DejaVuSans-Bold-6f" transform="translate(591.845703 0)"/>
     <use xlink:href="#DejaVuSans-Bold-62" transform="translate(660.546875 0)"/>
     <use xlink:href="#DejaVuSans-Bold-65" transform="translate(732.128906 0)"/>
     <use xlink:href="#DejaVuSans-Bold-5f" transform="translate(799.951172 0)"/>
     <use xlink:href="#DejaVuSans-Bold-64" transform="translate(849.951172 0)"/>
     <use xlink:href="#DejaVuSans-Bold-69" transform="translate(921.533203 0)"/>
     <use xlink:href="#DejaVuSans-Bold-61" transform="translate(955.810547 0)"/>
     <use xlink:href="#DejaVuSans-Bold-67" transform="translate(1023.291016 0)"/>
     <use xlink:href="#DejaVuSans-Bold-72" transform="translate(1094.873047 0)"/>
     <use xlink:href="#DejaVuSans-Bold-61" transform="translate(1144.189453 0)"/>
     <use xlink:href="#DejaVuSans-Bold-6d" transform="translate(1211.669922 0)"/>
    </g>
   </g>
   <g id="text_26">
    <!-- Analysis pipeline — function call graph -->
    <g transform="translate(394.092656 17.077969) scale(0.13 -0.13)">
     <defs>
      <path id="DejaVuSans-Bold-41" d="M 3419 850 
L 1538 850 
L 1241 0 
L 31 0 
L 1759 4666 
L 3194 4666 
L 4922 0 
L 3713 0 
L 3419 850 
z
M 1838 1716 
L 3116 1716 
L 2478 3572 
L 1838 1716 
z
" transform="scale(0.015625)"/>
      <path id="DejaVuSans-Bold-20" transform="scale(0.015625)"/>
      <path id="DejaVuSans-Bold-2014" d="M 344 2156 
L 6056 2156 
L 6056 1350 
L 344 1350 
L 344 2156 
z
" transform="scale(0.015625)"/>
     </defs>
     <use xlink:href="#DejaVuSans-Bold-41"/>
     <use xlink:href="#DejaVuSans-Bold-6e" transform="translate(77.392578 0)"/>
     <use xlink:href="#DejaVuSans-Bold-61" transform="translate(148.583984 0)"/>
     <use xlink:href="#DejaVuSans-Bold-6c" transform="translate(216.064453 0)"/>
     <use xlink:href="#DejaVuSans-Bold-79" transform="translate(250.341797 0)"/>
     <use xlink:href="#DejaVuSans-Bold-73" transform="translate(315.527344 0)"/>
     <use xlink:href="#DejaVuSans-Bold-69" transform="translate(375.048828 0)"/>
     <use xlink:href="#DejaVuSans-Bold-73" transform="translate(409.326172 0)"/>
     <use xlink:href="#DejaVuSans-Bold-20" transform="translate(468.847656 0)"/>
     <use xlink:href="#DejaVuSans-Bold-70" transform="translate(503.662109 0)"/>
     <use xlink:href="#DejaVuSans-Bold-69" transform="translate(575.244141 0)"/>
     <use xlink:href="#DejaVuSans-Bold-70" transform="translate(609.521484 0)"/>
     <use xlink:href="#DejaVuSans-Bold-65" transform="translate(681.103516 0)"/>
     <use xlink:href="#DejaVuSans-Bold-6c" transform="translate(748.925781 0)"/>
     <use xlink:href="#DejaVuSans-Bold-69" transform="translate(783.203125 0)"/>
     <use xlink:href="#DejaVuSans-Bold-6e" transform="translate(817.480469 0)"/>
     <use xlink:href="#DejaVuSans-Bold-65" transform="translate(888.671875 0)"/>
     <use xlink:href="#DejaVuSans-Bold-20" transform="translate(956.494141 0)"/>
     <use xlink:href="#DejaVuSans-Bold-2014" transform="translate(991.308594 0)"/>
     <use xlink:href="#DejaVuSans-Bold-20" transform="translate(1091.308594 0)"/>
     <use xlink:href="#DejaVuSans-Bold-66" transform="translate(1126.123047 0)"/>
     <use xlink:href="#DejaVuSans-Bold-75" transform="translate(1169.628906 0)"/>
     <use xlink:href="#DejaVuSans-Bold-6e" transform="translate(1240.820312 0)"/>
     <use xlink:href="#DejaVuSans-Bold-63" transform="translate(1312.011719 0)"/>
     <use xlink:href="#DejaVuSans-Bold-74" transform="translate(1371.289062 0)"/>
     <use xlink:href="#DejaVuSans-Bold-69" transform="translate(1419.091797 0)"/>
     <use xlink:href="#DejaVuSans-Bold-6f" transform="translate(1453.369141 0)"/>
     <use xlink:href="#DejaVuSans-Bold-6e" transform="translate(1522.070312 0)"/>
     <use xlink:href="#DejaVuSans-Bold-20" transform="translate(1593.261719 0)"/>
     <use xlink:href="#DejaVuSans-Bold-63" transform="translate(1628.076172 0)"/>
     <use xlink:href="#DejaVuSans-Bold-61" transform="translate(1687.353516 0)"/>
     <use xlink:href="#DejaVuSans-Bold-6c" transform="translate(1754.833984 0)"/>
     <use xlink:href="#DejaVuSans-Bold-6c" transform="translate(1789.111328 0)"/>
     <use xlink:href="#DejaVuSans-Bold-20" transform="translate(1823.388672 0)"/>
     <use xlink:href="#DejaVuSans-Bold-67" transform="translate(1858.203125 0)"/>
     <use xlink:href="#DejaVuSans-Bold-72" transform="translate(1929.785156 0)"/>
     <use xlink:href="#DejaVuSans-Bold-61" transform="translate(1979.101562 0)"/>
     <use xlink:href="#DejaVuSans-Bold-70" transform="translate(2046.582031 0)"/>
     <use xlink:href="#DejaVuSans-Bold-68" transform="translate(2118.164062 0)"/>
    </g>
   </g>
   <g id="legend_1">
    <g id="text_27">
     <!-- module -->
     <g transform="translate(41.680937 37.876406) scale(0.1 -0.1)">
      <use xlink:href="#DejaVuSans-Bold-6d"/>
      <use xlink:href="#DejaVuSans-Bold-6f" transform="translate(104.199219 0)"/>
      <use xlink:href="#DejaVuSans-Bold-64" transform="translate(172.900391 0)"/>
      <use xlink:href="#DejaVuSans-Bold-75" transform="translate(244.482422 0)"/>
      <use xlink:href="#DejaVuSans-Bold-6c" transform="translate(315.673828 0)"/>
      <use xlink:href="#DejaVuSans-Bold-65" transform="translate(349.951172 0)"/>
     </g>
    </g>
    <g id="line2d_1">
     <path d="M 14.4 47.234844 
L 22.4 47.234844 
L 30.4 47.234844 
" style="fill: none; stroke: #ffffff; stroke-width: 1.5; stroke-linecap: square"/>
     <defs>
      <path id="md8d4698422" d="M 0 4.5 
C 1.193414 4.5 2.338109 4.025852 3.181981 3.181981 
C 4.025852 2.338109 4.5 1.193414 4.5 0 
C 4.5 -1.193414 4.025852 -2.338109 3.181981 -3.181981 
C 2.338109 -4.025852 1.193414 -4.5 0 -4.5 
C -1.193414 -4.5 -2.338109 -4.025852 -3.181981 -3.181981 
C -4.025852 -2.338109 -4.5 -1.193414 -4.5 0 
C -4.5 1.193414 -4.025852 2.338109 -3.181981 3.181981 
C -2.338109 4.025852 -1.193414 4.5 0 4.5 
z
" style="stroke: #ffffff"/>
     </defs>
     <g>
      <use xlink:href="#md8d4698422" x="22.4" y="47.234844" style="fill: #0072b2; stroke: #ffffff"/>
     </g>
    </g>
    <g id="text_28">
     <!-- data_loading -->
     <g transform="translate(36.8 50.034844) scale(0.08 -0.08)">
      <use xlink:href="#DejaVuSans-Bold-64"/>
      <use xlink:href="#DejaVuSans-Bold-61" transform="translate(71.582031 0)"/>
      <use xlink:href="#DejaVuSans-Bold-74" transform="translate(139.0625 0)"/>
      <use xlink:href="#DejaVuSans-Bold-61" transform="translate(186.865234 0)"/>
      <use xlink:href="#DejaVuSans-Bold-5f" transform="translate(254.345703 0)"/>
      <use xlink:href="#DejaVuSans-Bold-6c" transform="translate(304.345703 0)"/>
      <use xlink:href="#DejaVuSans-Bold-6f" transform="translate(338.623047 0)"/>
      <use xlink:href="#DejaVuSans-Bold-61" transform="translate(407.324219 0)"/>
      <use xlink:href="#DejaVuSans-Bold-64" transform="translate(474.804688 0)"/>
      <use xlink:href="#DejaVuSans-Bold-69" transform="translate(546.386719 0)"/>
      <use xlink:href="#DejaVuSans-Bold-6e" transform="translate(580.664062 0)"/>
      <use xlink:href="#DejaVuSans-Bold-67" transform="translate(651.855469 0)"/>
     </g>
    </g>
    <g id="line2d_2">
     <path d="M 14.4 59.199844 
L 22.4 59.199844 
L 30.4 59.199844 
" style="fill: none; stroke: #ffffff; stroke-width: 1.5; stroke-linecap: square"/>
     <defs>
      <path id="m7b844a1b68" d="M 0 4.5 
C 1.193414 4.5 2.338109 4.025852 3.181981 3.181981 
C 4.025852 2.338109 4.5 1.193414 4.5 0 
C 4.5 -1.193414 4.025852 -2.338109 3.181981 -3.181981 
C 2.338109 -4.025852 1.193414 -4.5 0 -4.5 
C -1.193414 -4.5 -2.338109 -4.025852 -3.181981 -3.181981 
C -4.025852 -2.338109 -4.5 -1.193414 -4.5 0 
C -4.5 1.193414 -4.025852 2.338109 -3.181981 3.181981 
C -2.338109 4.025852 -1.193414 4.5 0 4.5 
z
" style="stroke: #ffffff"/>
     </defs>
     <g>
      <use xlink:href="#m7b844a1b68" x="22.4" y="59.199844" style="fill: #009e73; stroke: #ffffff"/>
     </g>
    </g>
    <g id="text_29">
     <!-- cleaning -->
     <g transform="translate(36.8 61.999844) scale(0.08 -0.08)">
      <use xlink:href="#DejaVuSans-Bold-63"/>
      <use xlink:href="#DejaVuSans-Bold-6c" transform="translate(59.277344 0)"/>
      <use xlink:href="#DejaVuSans-Bold-65" transform="translate(93.554688 0)"/>
      <use xlink:href="#DejaVuSans-Bold-61" transform="translate(161.376953 0)"/>
      <use xlink:href="#DejaVuSans-Bold-6e" transform="translate(228.857422 0)"/>
      <use xlink:href="#DejaVuSans-Bold-69" transform="translate(300.048828 0)"/>
      <use xlink:href="#DejaVuSans-Bold-6e" transform="translate(334.326172 0)"/>
      <use xlink:href="#DejaVuSans-Bold-67" transform="translate(405.517578 0)"/>
     </g>
    </g>
    <g id="line2d_3">
     <path d="M 14.4 71.004844 
L 22.4 71.004844 
L 30.4 71.004844 
" style="fill: none; stroke: #ffffff; stroke-width: 1.5; stroke-linecap: square"/>
     <defs>
      <path id="m33a0f85396" d="M 0 4.5 
C 1.193414 4.5 2.338109 4.025852 3.181981 3.181981 
C 4.025852 2.338109 4.5 1.193414 4.5 0 
C 4.5 -1.193414 4.025852 -2.338109 3.181981 -3.181981 
C 2.338109 -4.025852 1.193414 -4.5 0 -4.5 
C -1.193414 -4.5 -2.338109 -4.025852 -3.181981 -3.181981 
C -4.025852 -2.338109 -4.5 -1.193414 -4.5 0 
C -4.5 1.193414 -4.025852 2.338109 -3.181981 3.181981 
C -2.338109 4.025852 -1.193414 4.5 0 4.5 
z
" style="stroke: #ffffff"/>
     </defs>
     <g>
      <use xlink:href="#m33a0f85396" x="22.4" y="71.004844" style="fill: #e69f00; stroke: #ffffff"/>
     </g>
    </g>
    <g id="text_30">
     <!-- cohort -->
     <g transform="translate(36.8 73.804844) scale(0.08 -0.08)">
      <use xlink:href="#DejaVuSans-Bold-63"/>
      <use xlink:href="#DejaVuSans-Bold-6f" transform="translate(59.277344 0)"/>
      <use xlink:href="#DejaVuSans-Bold-68" transform="translate(127.978516 0)"/>
      <use xlink:href="#DejaVuSans-Bold-6f" transform="translate(199.169922 0)"/>
      <use xlink:href="#DejaVuSans-Bold-72" transform="translate(267.871094 0)"/>
      <use xlink:href="#DejaVuSans-Bold-74" transform="translate(317.1875 0)"/>
     </g>
    </g>
    <g id="line2d_4">
     <path d="M 14.4 82.747344 
L 22.4 82.747344 
L 30.4 82.747344 
" style="fill: none; stroke: #ffffff; stroke-width: 1.5; stroke-linecap: square"/>
     <defs>
      <path id="mc80f5e11c8" d="M 0 4.5 
C 1.193414 4.5 2.338109 4.025852 3.181981 3.181981 
C 4.025852 2.338109 4.5 1.193414 4.5 0 
C 4.5 -1.193414 4.025852 -2.338109 3.181981 -3.181981 
C 2.338109 -4.025852 1.193414 -4.5 0 -4.5 
C -1.193414 -4.5 -2.338109 -4.025852 -3.181981 -3.181981 
C -4.025852 -2.338109 -4.5 -1.193414 -4.5 0 
C -4.5 1.193414 -4.025852 2.338109 -3.181981 3.181981 
C -2.338109 4.025852 -1.193414 4.5 0 4.5 
z
" style="stroke: #ffffff"/>
     </defs>
     <g>
      <use xlink:href="#mc80f5e11c8" x="22.4" y="82.747344" style="fill: #cc79a7; stroke: #ffffff"/>
     </g>
    </g>
    <g id="text_31">
     <!-- analysis -->
     <g transform="translate(36.8 85.547344) scale(0.08 -0.08)">
      <use xlink:href="#DejaVuSans-Bold-61"/>
      <use xlink:href="#DejaVuSans-Bold-6e" transform="translate(67.480469 0)"/>
      <use xlink:href="#DejaVuSans-Bold-61" transform="translate(138.671875 0)"/>
      <use xlink:href="#DejaVuSans-Bold-6c" transform="translate(206.152344 0)"/>
      <use xlink:href="#DejaVuSans-Bold-79" transform="translate(240.429688 0)"/>
      <use xlink:href="#DejaVuSans-Bold-73" transform="translate(305.615234 0)"/>
      <use xlink:href="#DejaVuSans-Bold-69" transform="translate(365.136719 0)"/>
      <use xlink:href="#DejaVuSans-Bold-73" transform="translate(399.414062 0)"/>
     </g>
    </g>
    <g id="line2d_5">
     <path d="M 14.4 94.552344 
L 22.4 94.552344 
L 30.4 94.552344 
" style="fill: none; stroke: #ffffff; stroke-width: 1.5; stroke-linecap: square"/>
     <defs>
      <path id="m9176938b38" d="M 0 4.5 
C 1.193414 4.5 2.338109 4.025852 3.181981 3.181981 
C 4.025852 2.338109 4.5 1.193414 4.5 0 
C 4.5 -1.193414 4.025852 -2.338109 3.181981 -3.181981 
C 2.338109 -4.025852 1.193414 -4.5 0 -4.5 
C -1.193414 -4.5 -2.338109 -4.025852 -3.181981 -3.181981 
C -4.025852 -2.338109 -4.5 -1.193414 -4.5 0 
C -4.5 1.193414 -4.025852 2.338109 -3.181981 3.181981 
C -2.338109 4.025852 -1.193414 4.5 0 4.5 
z
" style="stroke: #ffffff"/>
     </defs>
     <g>
      <use xlink:href="#m9176938b38" x="22.4" y="94.552344" style="fill: #56b4e9; stroke: #ffffff"/>
     </g>
    </g>
    <g id="text_32">
     <!-- figures -->
     <g transform="translate(36.8 97.352344) scale(0.08 -0.08)">
      <use xlink:href="#DejaVuSans-Bold-66"/>
      <use xlink:href="#DejaVuSans-Bold-69" transform="translate(43.505859 0)"/>
      <use xlink:href="#DejaVuSans-Bold-67" transform="translate(77.783203 0)"/>
      <use xlink:href="#DejaVuSans-Bold-75" transform="translate(149.365234 0)"/>
      <use xlink:href="#DejaVuSans-Bold-72" transform="translate(220.556641 0)"/>
      <use xlink:href="#DejaVuSans-Bold-65" transform="translate(269.873047 0)"/>
      <use xlink:href="#DejaVuSans-Bold-73" transform="translate(337.695312 0)"/>
     </g>
    </g>
    <g id="line2d_6">
     <path d="M 14.4 106.357344 
L 22.4 106.357344 
L 30.4 106.357344 
" style="fill: none; stroke: #ffffff; stroke-width: 1.5; stroke-linecap: square"/>
     <defs>
      <path id="md897ad3d45" d="M 0 4.5 
C 1.193414 4.5 2.338109 4.025852 3.181981 3.181981 
C 4.025852 2.338109 4.5 1.193414 4.5 0 
C 4.5 -1.193414 4.025852 -2.338109 3.181981 -3.181981 
C 2.338109 -4.025852 1.193414 -4.5 0 -4.5 
C -1.193414 -4.5 -2.338109 -4.025852 -3.181981 -3.181981 
C -4.025852 -2.338109 -4.5 -1.193414 -4.5 0 
C -4.5 1.193414 -4.025852 2.338109 -3.181981 3.181981 
C -2.338109 4.025852 -1.193414 4.5 0 4.5 
z
" style="stroke: #ffffff"/>
     </defs>
     <g>
      <use xlink:href="#md897ad3d45" x="22.4" y="106.357344" style="fill: #d55e00; stroke: #ffffff"/>
     </g>
    </g>
    <g id="text_33">
     <!-- pipeline -->
     <g transform="translate(36.8 109.157344) scale(0.08 -0.08)">
      <use xlink:href="#DejaVuSans-Bold-70"/>
      <use xlink:href="#DejaVuSans-Bold-69" transform="translate(71.582031 0)"/>
      <use xlink:href="#DejaVuSans-Bold-70" transform="translate(105.859375 0)"/>
      <use xlink:href="#DejaVuSans-Bold-65" transform="translate(177.441406 0)"/>
      <use xlink:href="#DejaVuSans-Bold-6c" transform="translate(245.263672 0)"/>
      <use xlink:href="#DejaVuSans-Bold-69" transform="translate(279.541016 0)"/>
      <use xlink:href="#DejaVuSans-Bold-6e" transform="translate(313.818359 0)"/>
      <use xlink:href="#DejaVuSans-Bold-65" transform="translate(385.009766 0)"/>
     </g>
    </g>
    <g id="line2d_7">
     <path d="M 14.4 118.099844 
L 22.4 118.099844 
L 30.4 118.099844 
" style="fill: none; stroke: #ffffff; stroke-width: 1.5; stroke-linecap: square"/>
     <defs>
      <path id="m68f4361223" d="M 0 4.5 
C 1.193414 4.5 2.338109 4.025852 3.181981 3.181981 
C 4.025852 2.338109 4.5 1.193414 4.5 0 
C 4.5 -1.193414 4.025852 -2.338109 3.181981 -3.181981 
C 2.338109 -4.025852 1.193414 -4.5 0 -4.5 
C -1.193414 -4.5 -2.338109 -4.025852 -3.181981 -3.181981 
C -4.025852 -2.338109 -4.5 -1.193414 -4.5 0 
C -4.5 1.193414 -4.025852 2.338109 -3.181981 3.181981 
C -2.338109 4.025852 -1.193414 4.5 0 4.5 
z
" style="stroke: #ffffff"/>
     </defs>
     <g>
      <use xlink:href="#m68f4361223" x="22.4" y="118.099844" style="fill: #999999; stroke: #ffffff"/>
     </g>
    </g>
    <g id="text_34">
     <!-- make_schematic -->
     <g transform="translate(36.8 120.899844) scale(0.08 -0.08)">
      <use xlink:href="#DejaVuSans-Bold-6d"/>
      <use xlink:href="#DejaVuSans-Bold-61" transform="translate(104.199219 0)"/>
      <use xlink:href="#DejaVuSans-Bold-6b" transform="translate(171.679688 0)"/>
      <use xlink:href="#DejaVuSans-Bold-65" transform="translate(235.558594 0)"/>
      <use xlink:href="#DejaVuSans-Bold-5f" transform="translate(303.380859 0)"/>
      <use xlink:href="#DejaVuSans-Bold-73" transform="translate(353.380859 0)"/>
      <use xlink:href="#DejaVuSans-Bold-63" transform="translate(412.902344 0)"/>
      <use xlink:href="#DejaVuSans-Bold-68" transform="translate(472.179688 0)"/>
      <use xlink:href="#DejaVuSans-Bold-65" transform="translate(543.371094 0)"/>
      <use xlink:href="#DejaVuSans-Bold-6d" transform="translate(611.193359 0)"/>
      <use xlink:href="#DejaVuSans-Bold-61" transform="translate(715.392578 0)"/>
      <use xlink:href="#DejaVuSans-Bold-74" transform="translate(782.873047 0)"/>
      <use xlink:href="#DejaVuSans-Bold-69" transform="translate(830.675781 0)"/>
      <use xlink:href="#DejaVuSans-Bold-63" transform="translate(864.953125 0)"/>
     </g>
    </g>
    <g id="line2d_8">
     <path d="M 14.4 130.064844 
L 22.4 130.064844 
L 30.4 130.064844 
" style="fill: none; stroke: #ffffff; stroke-width: 1.5; stroke-linecap: square"/>
     <g>
      <use xlink:href="#m68f4361223" x="22.4" y="130.064844" style="fill: #999999; stroke: #ffffff"/>
     </g>
    </g>
    <g id="text_35">
     <!-- callgraph -->
     <g transform="translate(36.8 132.864844) scale(0.08 -0.08)">
      <use xlink:href="#DejaVuSans-Bold-63"/>
      <use xlink:href="#DejaVuSans-Bold-61" transform="translate(59.277344 0)"/>
      <use xlink:href="#DejaVuSans-Bold-6c" transform="translate(126.757812 0)"/>
      <use xlink:href="#DejaVuSans-Bold-6c" transform="translate(161.035156 0)"/>
      <use xlink:href="#DejaVuSans-Bold-67" transform="translate(195.3125 0)"/>
      <use xlink:href="#DejaVuSans-Bold-72" transform="translate(266.894531 0)"/>
      <use xlink:href="#DejaVuSans-Bold-61" transform="translate(316.210938 0)"/>
      <use xlink:href="#DejaVuSans-Bold-70" transform="translate(383.691406 0)"/>
      <use xlink:href="#DejaVuSans-Bold-68" transform="translate(455.273438 0)"/>
     </g>
    </g>
   </g>
  </g>
 </g>
 <defs>
  <clipPath id="p40db900c06">
   <rect x="7.2" y="23.077969" width="1058.4" height="682.32"/>
  </clipPath>
 </defs>
</svg>
