<?xml version="1.0" encoding="utf-8" standalone="no"?>
<!DOCTYPE svg PUBLIC "-//W3C//DTD SVG 1.1//EN"
  "http://www.w3.org/Graphics/SVG/1.1/DTD/svg11.dtd">
<svg xmlns:xlink="http://www.w3.org/1999/xlink" width="819.637812pt" height="439.2pt" viewBox="0 0 819.637812 439.2" xmlns="http://www.w3.org/2000/svg" version="1.1">
 <metadata>
  <rdf:RDF xmlns:dc="http://purl.org/dc/elements/1.1/" xmlns:cc="http://creativecommons.org/ns#" xmlns:rdf="http://www.w3.org/1999/02/22-rdf-syntax-ns#">
   <cc:Work>
    <dc:type rdf:resource="http://purl.org/dc/dcmitype/StillImage"/>
    <dc:date>2026-05-26T14:02:57.045026</dc:date>
    <dc:format>image/svg+xml</dc:format>
    <dc:creator>
     <cc:Agent>
      <dc:title>Matplotlib v3.10.8, https://matplotlib.org/</dc:title>
     </cc:Agent>
    </dc:creator>
   </cc:Work>
  </rdf:RDF>
 </metadata>
 <defs>
  <style type="text/css">*{stroke-linejoin: round; stroke-linecap: butt}</style>
 </defs>
 <g id="figure_1">
  <g id="patch_1">
   <path d="M 0 439.2 
L 819.637812 439.2 
L 819.637812 0 
L 0 0 
z
" style="fill: #ffffff"/>
  </g>
  <g id="axes_1">
   <g id="patch_2">
    <path d="M 78.906006 111.344516 
L 271.351806 111.344516 
Q 276.045606 111.344516 276.045606 105.863226 
L 276.045606 38.717419 
Q 276.045606 33.236129 271.351806 33.236129 
L 78.906006 33.236129 
Q 74.212206 33.236129 74.212206 38.717419 
L 74.212206 105.863226 
Q 74.212206 111.344516 78.906006 111.344516 
z
" clip-path="url(#p05a3cc2147)" style="fill: #f5f5f5; stroke: #0072b2; stroke-width: 1.6; stroke-linejoin: miter"/>
   </g>
   <g id="patch_3">
    <path d="M 90.640506 190.138065 
L 259.617306 190.138065 
Q 264.311106 190.138065 264.311106 184.656774 
L 264.311106 131.214194 
Q 264.311106 125.732903 259.617306 125.732903 
L 90.640506 125.732903 
Q 85.946706 125.732903 85.946706 131.214194 
L 85.946706 184.656774 
Q 85.946706 190.138065 90.640506 190.138065 
z
" clip-path="url(#p05a3cc2147)" style="fill: #eaf3fa; stroke: #0072b2; stroke-width: 1.6; stroke-linejoin: miter"/>
   </g>
   <g id="patch_4">
    <path d="M 90.640506 272.357419 
L 259.617306 272.357419 
Q 264.311106 272.357419 264.311106 266.876129 
L 264.311106 213.433548 
Q 264.311106 207.952258 259.617306 207.952258 
L 90.640506 207.952258 
Q 85.946706 207.952258 85.946706 213.433548 
L 85.946706 266.876129 
Q 85.946706 272.357419 90.640506 272.357419 
z
" clip-path="url(#p05a3cc2147)" style="fill: #eaf3fa; stroke: #0072b2; stroke-width: 1.6; stroke-linejoin: miter"/>
   </g>
   <g id="patch_5">
    <path d="M 90.640506 354.576774 
L 259.617306 354.576774 
Q 264.311106 354.576774 264.311106 349.095484 
L 264.311106 295.652903 
Q 264.311106 290.171613 259.617306 290.171613 
L 90.640506 290.171613 
Q 85.946706 290.171613 85.946706 295.652903 
L 85.946706 349.095484 
Q 85.946706 354.576774 90.640506 354.576774 
z
" clip-path="url(#p05a3cc2147)" style="fill: #eaf3fa; stroke: #0072b2; stroke-width: 1.6; stroke-linejoin: miter"/>
   </g>
   <g id="patch_6">
    <path d="M 331.197756 241.525161 
L 464.971056 241.525161 
Q 469.664856 241.525161 469.664856 236.043871 
L 469.664856 155.194839 
Q 469.664856 149.713548 464.971056 149.713548 
L 331.197756 149.713548 
Q 326.503956 149.713548 326.503956 155.194839 
L 326.503956 236.043871 
Q 326.503956 241.525161 331.197756 241.525161 
z
" clip-path="url(#p05a3cc2147)" style="fill: #fbefd7; stroke: #e69f00; stroke-width: 1.6; stroke-linejoin: miter"/>
   </g>
   <g id="patch_7">
    <path d="M 548.286006 159.305806 
L 740.731806 159.305806 
Q 745.425606 159.305806 745.425606 153.824516 
L 745.425606 52.420645 
Q 745.425606 46.939355 740.731806 46.939355 
L 548.286006 46.939355 
Q 543.592206 46.939355 543.592206 52.420645 
L 543.592206 153.824516 
Q 543.592206 159.305806 548.286006 159.305806 
z
" clip-path="url(#p05a3cc2147)" style="fill: #e2f3ec; stroke: #009e73; stroke-width: 1.6; stroke-linejoin: miter"/>
   </g>
   <g id="patch_8">
    <path d="M 548.286006 364.854194 
L 740.731806 364.854194 
Q 745.425606 364.854194 745.425606 359.372903 
L 745.425606 271.672258 
Q 745.425606 266.190968 740.731806 266.190968 
L 548.286006 266.190968 
Q 543.592206 266.190968 543.592206 271.672258 
L 543.592206 359.372903 
Q 543.592206 364.854194 548.286006 364.854194 
z
" clip-path="url(#p05a3cc2147)" style="fill: #fbe6dd; stroke: #d55e00; stroke-width: 1.6; stroke-linejoin: miter"/>
   </g>
   <g id="text_1">
    <!-- Exposure (per 1 SD) -->
    <g style="fill: #444444" transform="translate(124.690625 394.316129) scale(0.1 -0.1)">
     <defs>
      <path id="DejaVuSans-Oblique-45" d="M 1081 4666 
L 4031 4666 
L 3928 4134 
L 1606 4134 
L 1338 2753 
L 3566 2753 
L 3463 2222 
L 1234 2222 
L 909 531 
L 3284 531 
L 3181 0 
L 172 0 
L 1081 4666 
z
" transform="scale(0.015625)"/>
      <path id="DejaVuSans-Oblique-78" d="M 3841 3500 
L 2234 1784 
L 3219 0 
L 2559 0 
L 1819 1388 
L 531 0 
L -166 0 
L 1556 1844 
L 641 3500 
L 1300 3500 
L 1972 2234 
L 3144 3500 
L 3841 3500 
z
" transform="scale(0.015625)"/>
      <path id="DejaVuSans-Oblique-70" d="M 3175 2156 
Q 3175 2616 2975 2859 
Q 2775 3103 2400 3103 
Q 2144 3103 1911 2972 
Q 1678 2841 1497 2591 
Q 1319 2344 1212 1994 
Q 1106 1644 1106 1300 
Q 1106 863 1306 627 
Q 1506 391 1875 391 
Q 2147 391 2380 519 
Q 2613 647 2778 891 
Q 2956 1147 3065 1494 
Q 3175 1841 3175 2156 
z
M 1394 2969 
Q 1625 3272 1939 3428 
Q 2253 3584 2638 3584 
Q 3175 3584 3472 3232 
Q 3769 2881 3769 2247 
Q 3769 1728 3584 1258 
Q 3400 788 3053 416 
Q 2822 169 2531 39 
Q 2241 -91 1919 -91 
Q 1547 -91 1294 64 
Q 1041 219 916 525 
L 556 -1331 
L -19 -1331 
L 922 3500 
L 1497 3500 
L 1394 2969 
z
" transform="scale(0.015625)"/>
      <path id="DejaVuSans-Oblique-6f" d="M 1625 -91 
Q 1009 -91 651 289 
Q 294 669 294 1325 
Q 294 1706 417 2101 
Q 541 2497 738 2766 
Q 1047 3184 1428 3384 
Q 1809 3584 2291 3584 
Q 2888 3584 3255 3212 
Q 3622 2841 3622 2241 
Q 3622 1825 3500 1412 
Q 3378 1000 3181 728 
Q 2875 309 2494 109 
Q 2113 -91 1625 -91 
z
M 891 1344 
Q 891 869 1089 633 
Q 1288 397 1691 397 
Q 2269 397 2648 901 
Q 3028 1406 3028 2181 
Q 3028 2634 2825 2865 
Q 2622 3097 2228 3097 
Q 1903 3097 1650 2945 
Q 1397 2794 1197 2484 
Q 1050 2253 970 1956 
Q 891 1659 891 1344 
z
" transform="scale(0.015625)"/>
      <path id="DejaVuSans-Oblique-73" d="M 3200 3397 
L 3091 2853 
Q 2863 2978 2609 3040 
Q 2356 3103 2088 3103 
Q 1634 3103 1373 2948 
Q 1113 2794 1113 2528 
Q 1113 2219 1719 2053 
Q 1766 2041 1788 2034 
L 1972 1978 
Q 2547 1819 2739 1644 
Q 2931 1469 2931 1166 
Q 2931 609 2489 259 
Q 2047 -91 1331 -91 
Q 1053 -91 747 -37 
Q 441 16 72 128 
L 184 722 
Q 500 559 806 475 
Q 1113 391 1394 391 
Q 1816 391 2080 572 
Q 2344 753 2344 1031 
Q 2344 1331 1650 1516 
L 1591 1531 
L 1394 1581 
Q 956 1697 753 1886 
Q 550 2075 550 2369 
Q 550 2928 970 3256 
Q 1391 3584 2113 3584 
Q 2397 3584 2667 3537 
Q 2938 3491 3200 3397 
z
" transform="scale(0.015625)"/>
      <path id="DejaVuSans-Oblique-75" d="M 428 1388 
L 838 3500 
L 1416 3500 
L 1006 1409 
Q 975 1256 961 1147 
Q 947 1038 947 966 
Q 947 700 1109 554 
Q 1272 409 1569 409 
Q 2031 409 2368 721 
Q 2706 1034 2809 1563 
L 3194 3500 
L 3769 3500 
L 3091 0 
L 2516 0 
L 2631 550 
Q 2388 244 2052 76 
Q 1716 -91 1338 -91 
Q 878 -91 622 161 
Q 366 413 366 863 
Q 366 956 381 1097 
Q 397 1238 428 1388 
z
" transform="scale(0.015625)"/>
      <path id="DejaVuSans-Oblique-72" d="M 2853 2969 
Q 2766 3016 2653 3041 
Q 2541 3066 2413 3066 
Q 1953 3066 1609 2717 
Q 1266 2369 1153 1784 
L 800 0 
L 225 0 
L 909 3500 
L 1484 3500 
L 1375 2956 
Q 1603 3259 1920 3421 
Q 2238 3584 2597 3584 
Q 2691 3584 2781 3573 
Q 2872 3563 2963 3538 
L 2853 2969 
z
" transform="scale(0.015625)"/>
      <path id="DejaVuSans-Oblique-65" d="M 3078 2063 
Q 3088 2113 3092 2166 
Q 3097 2219 3097 2272 
Q 3097 2653 2873 2875 
Q 2650 3097 2266 3097 
Q 1838 3097 1509 2826 
Q 1181 2556 1013 2059 
L 3078 2063 
z
M 3578 1613 
L 903 1613 
Q 884 1494 878 1425 
Q 872 1356 872 1306 
Q 872 872 1139 634 
Q 1406 397 1894 397 
Q 2269 397 2603 481 
Q 2938 566 3225 728 
L 3116 159 
Q 2806 34 2476 -28 
Q 2147 -91 1806 -91 
Q 1078 -91 686 257 
Q 294 606 294 1247 
Q 294 1794 489 2264 
Q 684 2734 1063 3103 
Q 1306 3334 1642 3459 
Q 1978 3584 2356 3584 
Q 2950 3584 3301 3228 
Q 3653 2872 3653 2272 
Q 3653 2128 3634 1964 
Q 3616 1800 3578 1613 
z
" transform="scale(0.015625)"/>
      <path id="DejaVuSans-Oblique-20" transform="scale(0.015625)"/>
      <path id="DejaVuSans-Oblique-28" d="M 2731 4856 
Q 1903 3822 1495 2892 
Q 1088 1963 1088 1100 
Q 1088 606 1206 120 
Q 1325 -366 1563 -844 
L 1063 -844 
Q 775 -306 634 201 
Q 494 709 494 1197 
Q 494 2125 923 3036 
Q 1353 3947 2222 4856 
L 2731 4856 
z
" transform="scale(0.015625)"/>
      <path id="DejaVuSans-Oblique-31" d="M 416 531 
L 1447 531 
L 2144 4122 
L 978 3897 
L 1088 4441 
L 2247 4666 
L 2881 4666 
L 2075 531 
L 3103 531 
L 3003 0 
L 313 0 
L 416 531 
z
" transform="scale(0.015625)"/>
      <path id="DejaVuSans-Oblique-53" d="M 3859 4513 
L 3738 3897 
Q 3422 4066 3111 4152 
Q 2800 4238 2509 4238 
Q 1944 4238 1609 3991 
Q 1275 3744 1275 3334 
Q 1275 3109 1398 2989 
Q 1522 2869 2034 2731 
L 2413 2638 
Q 3053 2472 3303 2217 
Q 3553 1963 3553 1503 
Q 3553 797 2998 353 
Q 2444 -91 1538 -91 
Q 1166 -91 791 -17 
Q 416 56 38 206 
L 166 856 
Q 513 641 861 531 
Q 1209 422 1556 422 
Q 2147 422 2503 684 
Q 2859 947 2859 1369 
Q 2859 1650 2717 1795 
Q 2575 1941 2106 2059 
L 1728 2156 
Q 1081 2325 845 2545 
Q 609 2766 609 3163 
Q 609 3859 1145 4304 
Q 1681 4750 2541 4750 
Q 2875 4750 3203 4690 
Q 3531 4631 3859 4513 
z
" transform="scale(0.015625)"/>
      <path id="DejaVuSans-Oblique-44" d="M 1081 4666 
L 2438 4666 
Q 3519 4666 4070 4208 
Q 4622 3750 4622 2847 
Q 4622 2250 4412 1698 
Q 4203 1147 3834 769 
Q 3463 381 2891 190 
Q 2319 0 1538 0 
L 172 0 
L 1081 4666 
z
M 1613 4147 
L 909 519 
L 1734 519 
Q 2794 519 3375 1128 
Q 3956 1738 3956 2847 
Q 3956 3519 3581 3833 
Q 3206 4147 2406 4147 
L 1613 4147 
z
" transform="scale(0.015625)"/>
      <path id="DejaVuSans-Oblique-29" d="M -397 -844 
Q 434 191 840 1120 
Q 1247 2050 1247 2913 
Q 1247 3406 1130 3892 
Q 1013 4378 775 4856 
L 1275 4856 
Q 1563 4316 1703 3812 
Q 1844 3309 1844 2822 
Q 1844 1891 1411 973 
Q 978 56 116 -844 
L -397 -844 
z
" transform="scale(0.015625)"/>
     </defs>
     <use xlink:href="#DejaVuSans-Oblique-45"/>
     <use xlink:href="#DejaVuSans-Oblique-78" transform="translate(63.183594 0)"/>
     <use xlink:href="#DejaVuSans-Oblique-70" transform="translate(122.363281 0)"/>
     <use xlink:href="#DejaVuSans-Oblique-6f" transform="translate(185.839844 0)"/>
     <use xlink:href="#DejaVuSans-Oblique-73" transform="translate(247.021484 0)"/>
     <use xlink:href="#DejaVuSans-Oblique-75" transform="translate(299.121094 0)"/>
     <use xlink:href="#DejaVuSans-Oblique-72" transform="translate(362.5 0)"/>
     <use xlink:href="#DejaVuSans-Oblique-65" transform="translate(403.613281 0)"/>
     <use xlink:href="#DejaVuSans-Oblique-20" transform="translate(465.136719 0)"/>
     <use xlink:href="#DejaVuSans-Oblique-28" transform="translate(496.923828 0)"/>
     <use xlink:href="#DejaVuSans-Oblique-70" transform="translate(535.9375 0)"/>
     <use xlink:href="#DejaVuSans-Oblique-65" transform="translate(599.414062 0)"/>
     <use xlink:href="#DejaVuSans-Oblique-72" transform="translate(660.9375 0)"/>
     <use xlink:href="#DejaVuSans-Oblique-20" transform="translate(702.050781 0)"/>
     <use xlink:href="#DejaVuSans-Oblique-31" transform="translate(733.837891 0)"/>
     <use xlink:href="#DejaVuSans-Oblique-20" transform="translate(797.460938 0)"/>
     <use xlink:href="#DejaVuSans-Oblique-53" transform="translate(829.248047 0)"/>
     <use xlink:href="#DejaVuSans-Oblique-44" transform="translate(892.724609 0)"/>
     <use xlink:href="#DejaVuSans-Oblique-29" transform="translate(969.726562 0)"/>
    </g>
   </g>
   <g id="patch_9">
    <path d="M 276.776935 212.130512 
Q 301.274962 204.183812 323.646025 196.927059 
" clip-path="url(#p05a3cc2147)" style="fill: none; stroke: #444444; stroke-width: 2; stroke-linecap: round"/>
    <path d="M 313.917767 195.457021 
L 323.646025 196.927059 
L 316.63304 203.827642 
z
" clip-path="url(#p05a3cc2147)" style="fill: #444444; stroke: #444444; stroke-width: 2; stroke-linecap: round"/>
   </g>
   <g id="patch_10">
    <path d="M 469.97881 177.154208 
Q 506.62934 144.231531 540.951008 113.40084 
" clip-path="url(#p05a3cc2147)" style="fill: none; stroke: #009e73; stroke-width: 2.8; stroke-linecap: round"/>
    <path d="M 531.4641 116.008248 
L 540.951008 113.40084 
L 537.34479 122.554811 
z
" clip-path="url(#p05a3cc2147)" style="fill: #009e73; stroke: #009e73; stroke-width: 2.8; stroke-linecap: round"/>
   </g>
   <g id="patch_11">
    <path d="M 469.63431 207.539422 
Q 506.627923 260.708803 542.089035 311.675585 
" clip-path="url(#p05a3cc2147)" style="fill: none; stroke-dasharray: 12,9.6; stroke-dashoffset: 0; stroke: #d55e00; stroke-width: 2.4; stroke-linecap: round"/>
    <path d="M 540.674883 301.939047 
L 542.089035 311.675585 
L 533.451314 306.964983 
z
" clip-path="url(#p05a3cc2147)" style="fill: #d55e00; stroke-dasharray: 12,9.6; stroke-dashoffset: 0; stroke: #d55e00; stroke-width: 2.4; stroke-linecap: round"/>
   </g>
   <g id="text_2">
    <!-- Does preoperative muscle health gate functional recovery after lumbar decompression? -->
    <g transform="translate(86.192031 20.903226) scale(0.13 -0.13)">
     <defs>
      <path id="DejaVuSans-Bold-44" d="M 1791 3756 
L 1791 909 
L 2222 909 
Q 2959 909 3348 1275 
Q 3738 1641 3738 2338 
Q 3738 3031 3350 3393 
Q 2963 3756 2222 3756 
L 1791 3756 
z
M 588 4666 
L 1856 4666 
Q 2919 4666 3439 4514 
Q 3959 4363 4331 4000 
Q 4659 3684 4818 3271 
Q 4978 2859 4978 2338 
Q 4978 1809 4818 1395 
Q 4659 981 4331 666 
Q 3956 303 3431 151 
Q 2906 0 1856 0 
L 588 0 
L 588 4666 
z
" transform="scale(0.015625)"/>
      <path id="DejaVuSans-Bold-6f" d="M 2203 2784 
Q 1831 2784 1636 2517 
Q 1441 2250 1441 1747 
Q 1441 1244 1636 976 
Q 1831 709 2203 709 
Q 2569 709 2762 976 
Q 2956 1244 2956 1747 
Q 2956 2250 2762 2517 
Q 2569 2784 2203 2784 
z
M 2203 3584 
Q 3106 3584 3614 3096 
Q 4122 2609 4122 1747 
Q 4122 884 3614 396 
Q 3106 -91 2203 -91 
Q 1297 -91 786 396 
Q 275 884 275 1747 
Q 275 2609 786 3096 
Q 1297 3584 2203 3584 
z
" transform="scale(0.015625)"/>
      <path id="DejaVuSans-Bold-65" d="M 4031 1759 
L 4031 1441 
L 1416 1441 
Q 1456 1047 1700 850 
Q 1944 653 2381 653 
Q 2734 653 3104 758 
Q 3475 863 3866 1075 
L 3866 213 
Q 3469 63 3072 -14 
Q 2675 -91 2278 -91 
Q 1328 -91 801 392 
Q 275 875 275 1747 
Q 275 2603 792 3093 
Q 1309 3584 2216 3584 
Q 3041 3584 3536 3087 
Q 4031 2591 4031 1759 
z
M 2881 2131 
Q 2881 2450 2695 2645 
Q 2509 2841 2209 2841 
Q 1884 2841 1681 2658 
Q 1478 2475 1428 2131 
L 2881 2131 
z
" transform="scale(0.015625)"/>
      <path id="DejaVuSans-Bold-73" d="M 3272 3391 
L 3272 2541 
Q 2913 2691 2578 2766 
Q 2244 2841 1947 2841 
Q 1628 2841 1473 2761 
Q 1319 2681 1319 2516 
Q 1319 2381 1436 2309 
Q 1553 2238 1856 2203 
L 2053 2175 
Q 2913 2066 3209 1816 
Q 3506 1566 3506 1031 
Q 3506 472 3093 190 
Q 2681 -91 1863 -91 
Q 1516 -91 1145 -36 
Q 775 19 384 128 
L 384 978 
Q 719 816 1070 734 
Q 1422 653 1784 653 
Q 2113 653 2278 743 
Q 2444 834 2444 1013 
Q 2444 1163 2330 1236 
Q 2216 1309 1875 1350 
L 1678 1375 
Q 931 1469 631 1722 
Q 331 1975 331 2491 
Q 331 3047 712 3315 
Q 1094 3584 1881 3584 
Q 2191 3584 2531 3537 
Q 2872 3491 3272 3391 
z
" transform="scale(0.015625)"/>
      <path id="DejaVuSans-Bold-20" transform="scale(0.015625)"/>
      <path id="DejaVuSans-Bold-70" d="M 1656 506 
L 1656 -1331 
L 538 -1331 
L 538 3500 
L 1656 3500 
L 1656 2988 
Q 1888 3294 2169 3439 
Q 2450 3584 2816 3584 
Q 3463 3584 3878 3070 
Q 4294 2556 4294 1747 
Q 4294 938 3878 423 
Q 3463 -91 2816 -91 
Q 2450 -91 2169 54 
Q 1888 200 1656 506 
z
M 2400 2772 
Q 2041 2772 1848 2508 
Q 1656 2244 1656 1747 
Q 1656 1250 1848 986 
Q 2041 722 2400 722 
Q 2759 722 2948 984 
Q 3138 1247 3138 1747 
Q 3138 2247 2948 2509 
Q 2759 2772 2400 2772 
z
" transform="scale(0.015625)"/>
      <path id="DejaVuSans-Bold-72" d="M 3138 2547 
Q 2991 2616 2845 2648 
Q 2700 2681 2553 2681 
Q 2122 2681 1889 2404 
Q 1656 2128 1656 1613 
L 1656 0 
L 538 0 
L 538 3500 
L 1656 3500 
L 1656 2925 
Q 1872 3269 2151 3426 
Q 2431 3584 2822 3584 
Q 2878 3584 2943 3579 
Q 3009 3575 3134 3559 
L 3138 2547 
z
" transform="scale(0.015625)"/>
      <path id="DejaVuSans-Bold-61" d="M 2106 1575 
Q 1756 1575 1579 1456 
Q 1403 1338 1403 1106 
Q 1403 894 1545 773 
Q 1688 653 1941 653 
Q 2256 653 2472 879 
Q 2688 1106 2688 1447 
L 2688 1575 
L 2106 1575 
z
M 3816 1997 
L 3816 0 
L 2688 0 
L 2688 519 
Q 2463 200 2181 54 
Q 1900 -91 1497 -91 
Q 953 -91 614 226 
Q 275 544 275 1050 
Q 275 1666 698 1953 
Q 1122 2241 2028 2241 
L 2688 2241 
L 2688 2328 
Q 2688 2594 2478 2717 
Q 2269 2841 1825 2841 
Q 1466 2841 1156 2769 
Q 847 2697 581 2553 
L 581 3406 
Q 941 3494 1303 3539 
Q 1666 3584 2028 3584 
Q 2975 3584 3395 3211 
Q 3816 2838 3816 1997 
z
" transform="scale(0.015625)"/>
      <path id="DejaVuSans-Bold-74" d="M 1759 4494 
L 1759 3500 
L 2913 3500 
L 2913 2700 
L 1759 2700 
L 1759 1216 
Q 1759 972 1856 886 
Q 1953 800 2241 800 
L 2816 800 
L 2816 0 
L 1856 0 
Q 1194 0 917 276 
Q 641 553 641 1216 
L 641 2700 
L 84 2700 
L 84 3500 
L 641 3500 
L 641 4494 
L 1759 4494 
z
" transform="scale(0.015625)"/>
      <path id="DejaVuSans-Bold-69" d="M 538 3500 
L 1656 3500 
L 1656 0 
L 538 0 
L 538 3500 
z
M 538 4863 
L 1656 4863 
L 1656 3950 
L 538 3950 
L 538 4863 
z
" transform="scale(0.015625)"/>
      <path id="DejaVuSans-Bold-76" d="M 97 3500 
L 1216 3500 
L 2088 1081 
L 2956 3500 
L 4078 3500 
L 2700 0 
L 1472 0 
L 97 3500 
z
" transform="scale(0.015625)"/>
      <path id="DejaVuSans-Bold-6d" d="M 3781 2919 
Q 3994 3244 4286 3414 
Q 4578 3584 4928 3584 
Q 5531 3584 5847 3212 
Q 6163 2841 6163 2131 
L 6163 0 
L 5038 0 
L 5038 1825 
Q 5041 1866 5042 1909 
Q 5044 1953 5044 2034 
Q 5044 2406 4934 2573 
Q 4825 2741 4581 2741 
Q 4263 2741 4089 2478 
Q 3916 2216 3909 1719 
L 3909 0 
L 2784 0 
L 2784 1825 
Q 2784 2406 2684 2573 
Q 2584 2741 2328 2741 
Q 2006 2741 1831 2477 
Q 1656 2213 1656 1722 
L 1656 0 
L 531 0 
L 531 3500 
L 1656 3500 
L 1656 2988 
Q 1863 3284 2130 3434 
Q 2397 3584 2719 3584 
Q 3081 3584 3359 3409 
Q 3638 3234 3781 2919 
z
" transform="scale(0.015625)"/>
      <path id="DejaVuSans-Bold-75" d="M 500 1363 
L 500 3500 
L 1625 3500 
L 1625 3150 
Q 1625 2866 1622 2436 
Q 1619 2006 1619 1863 
Q 1619 1441 1641 1255 
Q 1663 1069 1716 984 
Q 1784 875 1895 815 
Q 2006 756 2150 756 
Q 2500 756 2700 1025 
Q 2900 1294 2900 1772 
L 2900 3500 
L 4019 3500 
L 4019 0 
L 2900 0 
L 2900 506 
Q 2647 200 2364 54 
Q 2081 -91 1741 -91 
Q 1134 -91 817 281 
Q 500 653 500 1363 
z
" transform="scale(0.015625)"/>
      <path id="DejaVuSans-Bold-63" d="M 3366 3391 
L 3366 2478 
Q 3138 2634 2908 2709 
Q 2678 2784 2431 2784 
Q 1963 2784 1702 2511 
Q 1441 2238 1441 1747 
Q 1441 1256 1702 982 
Q 1963 709 2431 709 
Q 2694 709 2930 787 
Q 3166 866 3366 1019 
L 3366 103 
Q 3103 6 2833 -42 
Q 2563 -91 2291 -91 
Q 1344 -91 809 395 
Q 275 881 275 1747 
Q 275 2613 809 3098 
Q 1344 3584 2291 3584 
Q 2566 3584 2833 3536 
Q 3100 3488 3366 3391 
z
" transform="scale(0.015625)"/>
      <path id="DejaVuSans-Bold-6c" d="M 538 4863 
L 1656 4863 
L 1656 0 
L 538 0 
L 538 4863 
z
" transform="scale(0.015625)"/>
      <path id="DejaVuSans-Bold-68" d="M 4056 2131 
L 4056 0 
L 2931 0 
L 2931 347 
L 2931 1625 
Q 2931 2084 2911 2256 
Q 2891 2428 2841 2509 
Q 2775 2619 2662 2680 
Q 2550 2741 2406 2741 
Q 2056 2741 1856 2470 
Q 1656 2200 1656 1722 
L 1656 0 
L 538 0 
L 538 4863 
L 1656 4863 
L 1656 2988 
Q 1909 3294 2193 3439 
Q 2478 3584 2822 3584 
Q 3428 3584 3742 3212 
Q 4056 2841 4056 2131 
z
" transform="scale(0.015625)"/>
      <path id="DejaVuSans-Bold-67" d="M 2919 594 
Q 2688 288 2409 144 
Q 2131 0 1766 0 
Q 1125 0 706 504 
Q 288 1009 288 1791 
Q 288 2575 706 3076 
Q 1125 3578 1766 3578 
Q 2131 3578 2409 3434 
Q 2688 3291 2919 2981 
L 2919 3500 
L 4044 3500 
L 4044 353 
Q 4044 -491 3511 -936 
Q 2978 -1381 1966 -1381 
Q 1638 -1381 1331 -1331 
Q 1025 -1281 716 -1178 
L 716 -306 
Q 1009 -475 1290 -558 
Q 1572 -641 1856 -641 
Q 2406 -641 2662 -400 
Q 2919 -159 2919 353 
L 2919 594 
z
M 2181 2772 
Q 1834 2772 1640 2515 
Q 1447 2259 1447 1791 
Q 1447 1309 1634 1061 
Q 1822 813 2181 813 
Q 2531 813 2725 1069 
Q 2919 1325 2919 1791 
Q 2919 2259 2725 2515 
Q 2531 2772 2181 2772 
z
" transform="scale(0.015625)"/>
      <path id="DejaVuSans-Bold-66" d="M 2841 4863 
L 2841 4128 
L 2222 4128 
Q 1984 4128 1890 4042 
Q 1797 3956 1797 3744 
L 1797 3500 
L 2753 3500 
L 2753 2700 
L 1797 2700 
L 1797 0 
L 678 0 
L 678 2700 
L 122 2700 
L 122 3500 
L 678 3500 
L 678 3744 
Q 678 4316 997 4589 
Q 1316 4863 1984 4863 
L 2841 4863 
z
" transform="scale(0.015625)"/>
      <path id="DejaVuSans-Bold-6e" d="M 4056 2131 
L 4056 0 
L 2931 0 
L 2931 347 
L 2931 1631 
Q 2931 2084 2911 2256 
Q 2891 2428 2841 2509 
Q 2775 2619 2662 2680 
Q 2550 2741 2406 2741 
Q 2056 2741 1856 2470 
Q 1656 2200 1656 1722 
L 1656 0 
L 538 0 
L 538 3500 
L 1656 3500 
L 1656 2988 
Q 1909 3294 2193 3439 
Q 2478 3584 2822 3584 
Q 3428 3584 3742 3212 
Q 4056 2841 4056 2131 
z
" transform="scale(0.015625)"/>
      <path id="DejaVuSans-Bold-79" d="M 78 3500 
L 1197 3500 
L 2138 1125 
L 2938 3500 
L 4056 3500 
L 2584 -331 
Q 2363 -916 2067 -1148 
Q 1772 -1381 1288 -1381 
L 641 -1381 
L 641 -647 
L 991 -647 
Q 1275 -647 1404 -556 
Q 1534 -466 1606 -231 
L 1638 -134 
L 78 3500 
z
" transform="scale(0.015625)"/>
      <path id="DejaVuSans-Bold-62" d="M 2400 722 
Q 2759 722 2948 984 
Q 3138 1247 3138 1747 
Q 3138 2247 2948 2509 
Q 2759 2772 2400 2772 
Q 2041 2772 1848 2508 
Q 1656 2244 1656 1747 
Q 1656 1250 1848 986 
Q 2041 722 2400 722 
z
M 1656 2988 
Q 1888 3294 2169 3439 
Q 2450 3584 2816 3584 
Q 3463 3584 3878 3070 
Q 4294 2556 4294 1747 
Q 4294 938 3878 423 
Q 3463 -91 2816 -91 
Q 2450 -91 2169 54 
Q 1888 200 1656 506 
L 1656 0 
L 538 0 
L 538 4863 
L 1656 4863 
L 1656 2988 
z
" transform="scale(0.015625)"/>
      <path id="DejaVuSans-Bold-64" d="M 2919 2988 
L 2919 4863 
L 4044 4863 
L 4044 0 
L 2919 0 
L 2919 506 
Q 2688 197 2409 53 
Q 2131 -91 1766 -91 
Q 1119 -91 703 423 
Q 288 938 288 1747 
Q 288 2556 703 3070 
Q 1119 3584 1766 3584 
Q 2128 3584 2408 3439 
Q 2688 3294 2919 2988 
z
M 2181 722 
Q 2541 722 2730 984 
Q 2919 1247 2919 1747 
Q 2919 2247 2730 2509 
Q 2541 2772 2181 2772 
Q 1825 2772 1636 2509 
Q 1447 2247 1447 1747 
Q 1447 1247 1636 984 
Q 1825 722 2181 722 
z
" transform="scale(0.015625)"/>
      <path id="DejaVuSans-Bold-3f" d="M 2216 1575 
L 1088 1575 
L 1088 1728 
Q 1088 1984 1191 2182 
Q 1294 2381 1625 2688 
L 1825 2869 
Q 2003 3031 2086 3175 
Q 2169 3319 2169 3463 
Q 2169 3681 2019 3804 
Q 1869 3928 1600 3928 
Q 1347 3928 1053 3823 
Q 759 3719 441 3513 
L 441 4494 
Q 819 4625 1131 4687 
Q 1444 4750 1734 4750 
Q 2497 4750 2897 4439 
Q 3297 4128 3297 3531 
Q 3297 3225 3175 2983 
Q 3053 2741 2759 2463 
L 2559 2284 
Q 2347 2091 2281 1973 
Q 2216 1856 2216 1716 
L 2216 1575 
z
M 1088 1113 
L 2216 1113 
L 2216 0 
L 1088 0 
L 1088 1113 
z
" transform="scale(0.015625)"/>
     </defs>
     <use xlink:href="#DejaVuSans-Bold-44"/>
     <use xlink:href="#DejaVuSans-Bold-6f" transform="translate(83.007812 0)"/>
     <use xlink:href="#DejaVuSans-Bold-65" transform="translate(151.708984 0)"/>
     <use xlink:href="#DejaVuSans-Bold-73" transform="translate(219.53125 0)"/>
     <use xlink:href="#DejaVuSans-Bold-20" transform="translate(279.052734 0)"/>
     <use xlink:href="#DejaVuSans-Bold-70" transform="translate(313.867188 0)"/>
     <use xlink:href="#DejaVuSans-Bold-72" transform="translate(385.449219 0)"/>
     <use xlink:href="#DejaVuSans-Bold-65" transform="translate(434.765625 0)"/>
     <use xlink:href="#DejaVuSans-Bold-6f" transform="translate(502.587891 0)"/>
     <use xlink:href="#DejaVuSans-Bold-70" transform="translate(571.289062 0)"/>
     <use xlink:href="#DejaVuSans-Bold-65" transform="translate(642.871094 0)"/>
     <use xlink:href="#DejaVuSans-Bold-72" transform="translate(710.693359 0)"/>
     <use xlink:href="#DejaVuSans-Bold-61" transform="translate(760.009766 0)"/>
     <use xlink:href="#DejaVuSans-Bold-74" transform="translate(827.490234 0)"/>
     <use xlink:href="#DejaVuSans-Bold-69" transform="translate(875.292969 0)"/>
     <use xlink:href="#DejaVuSans-Bold-76" transform="translate(909.570312 0)"/>
     <use xlink:href="#DejaVuSans-Bold-65" transform="translate(974.755859 0)"/>
     <use xlink:href="#DejaVuSans-Bold-20" transform="translate(1042.578125 0)"/>
     <use xlink:href="#DejaVuSans-Bold-6d" transform="translate(1077.392578 0)"/>
     <use xlink:href="#DejaVuSans-Bold-75" transform="translate(1181.591797 0)"/>
     <use xlink:href="#DejaVuSans-Bold-73" transform="translate(1252.783203 0)"/>
     <use xlink:href="#DejaVuSans-Bold-63" transform="translate(1312.304688 0)"/>
     <use xlink:href="#DejaVuSans-Bold-6c" transform="translate(1371.582031 0)"/>
     <use xlink:href="#DejaVuSans-Bold-65" transform="translate(1405.859375 0)"/>
     <use xlink:href="#DejaVuSans-Bold-20" transform="translate(1473.681641 0)"/>
     <use xlink:href="#DejaVuSans-Bold-68" transform="translate(1508.496094 0)"/>
     <use xlink:href="#DejaVuSans-Bold-65" transform="translate(1579.6875 0)"/>
     <use xlink:href="#DejaVuSans-Bold-61" transform="translate(1647.509766 0)"/>
     <use xlink:href="#DejaVuSans-Bold-6c" transform="translate(1714.990234 0)"/>
     <use xlink:href="#DejaVuSans-Bold-74" transform="translate(1749.267578 0)"/>
     <use xlink:href="#DejaVuSans-Bold-68" transform="translate(1797.070312 0)"/>
     <use xlink:href="#DejaVuSans-Bold-20" transform="translate(1868.261719 0)"/>
     <use xlink:href="#DejaVuSans-Bold-67" transform="translate(1903.076172 0)"/>
     <use xlink:href="#DejaVuSans-Bold-61" transform="translate(1974.658203 0)"/>
     <use xlink:href="#DejaVuSans-Bold-74" transform="translate(2042.138672 0)"/>
     <use xlink:href="#DejaVuSans-Bold-65" transform="translate(2089.941406 0)"/>
     <use xlink:href="#DejaVuSans-Bold-20" transform="translate(2157.763672 0)"/>
     <use xlink:href="#DejaVuSans-Bold-66" transform="translate(2192.578125 0)"/>
     <use xlink:href="#DejaVuSans-Bold-75" transform="translate(2236.083984 0)"/>
     <use xlink:href="#DejaVuSans-Bold-6e" transform="translate(2307.275391 0)"/>
     <use xlink:href="#DejaVuSans-Bold-63" transform="translate(2378.466797 0)"/>
     <use xlink:href="#DejaVuSans-Bold-74" transform="translate(2437.744141 0)"/>
     <use xlink:href="#DejaVuSans-Bold-69" transform="translate(2485.546875 0)"/>
     <use xlink:href="#DejaVuSans-Bold-6f" transform="translate(2519.824219 0)"/>
     <use xlink:href="#DejaVuSans-Bold-6e" transform="translate(2588.525391 0)"/>
     <use xlink:href="#DejaVuSans-Bold-61" transform="translate(2659.716797 0)"/>
     <use xlink:href="#DejaVuSans-Bold-6c" transform="translate(2727.197266 0)"/>
     <use xlink:href="#DejaVuSans-Bold-20" transform="translate(2761.474609 0)"/>
     <use xlink:href="#DejaVuSans-Bold-72" transform="translate(2796.289062 0)"/>
     <use xlink:href="#DejaVuSans-Bold-65" transform="translate(2845.605469 0)"/>
     <use xlink:href="#DejaVuSans-Bold-63" transform="translate(2913.427734 0)"/>
     <use xlink:href="#DejaVuSans-Bold-6f" transform="translate(2972.705078 0)"/>
     <use xlink:href="#DejaVuSans-Bold-76" transform="translate(3041.40625 0)"/>
     <use xlink:href="#DejaVuSans-Bold-65" transform="translate(3106.591797 0)"/>
     <use xlink:href="#DejaVuSans-Bold-72" transform="translate(3174.414062 0)"/>
     <use xlink:href="#DejaVuSans-Bold-79" transform="translate(3223.730469 0)"/>
     <use xlink:href="#DejaVuSans-Bold-20" transform="translate(3288.916016 0)"/>
     <use xlink:href="#DejaVuSans-Bold-61" transform="translate(3323.730469 0)"/>
     <use xlink:href="#DejaVuSans-Bold-66" transform="translate(3391.210938 0)"/>
     <use xlink:href="#DejaVuSans-Bold-74" transform="translate(3434.716797 0)"/>
     <use xlink:href="#DejaVuSans-Bold-65" transform="translate(3482.519531 0)"/>
     <use xlink:href="#DejaVuSans-Bold-72" transform="translate(3550.341797 0)"/>
     <use xlink:href="#DejaVuSans-Bold-20" transform="translate(3599.658203 0)"/>
     <use xlink:href="#DejaVuSans-Bold-6c" transform="translate(3634.472656 0)"/>
     <use xlink:href="#DejaVuSans-Bold-75" transform="translate(3668.75 0)"/>
     <use xlink:href="#DejaVuSans-Bold-6d" transform="translate(3739.941406 0)"/>
     <use xlink:href="#DejaVuSans-Bold-62" transform="translate(3844.140625 0)"/>
     <use xlink:href="#DejaVuSans-Bold-61" transform="translate(3915.722656 0)"/>
     <use xlink:href="#DejaVuSans-Bold-72" transform="translate(3983.203125 0)"/>
     <use xlink:href="#DejaVuSans-Bold-20" transform="translate(4032.519531 0)"/>
     <use xlink:href="#DejaVuSans-Bold-64" transform="translate(4067.333984 0)"/>
     <use xlink:href="#DejaVuSans-Bold-65" transform="translate(4138.916016 0)"/>
     <use xlink:href="#DejaVuSans-Bold-63" transform="translate(4206.738281 0)"/>
     <use xlink:href="#DejaVuSans-Bold-6f" transform="translate(4266.015625 0)"/>
     <use xlink:href="#DejaVuSans-Bold-6d" transform="translate(4334.716797 0)"/>
     <use xlink:href="#DejaVuSans-Bold-70" transform="translate(4438.916016 0)"/>
     <use xlink:href="#DejaVuSans-Bold-72" transform="translate(4510.498047 0)"/>
     <use xlink:href="#DejaVuSans-Bold-65" transform="translate(4559.814453 0)"/>
     <use xlink:href="#DejaVuSans-Bold-73" transform="translate(4627.636719 0)"/>
     <use xlink:href="#DejaVuSans-Bold-73" transform="translate(4687.158203 0)"/>
     <use xlink:href="#DejaVuSans-Bold-69" transform="translate(4746.679688 0)"/>
     <use xlink:href="#DejaVuSans-Bold-6f" transform="translate(4780.957031 0)"/>
     <use xlink:href="#DejaVuSans-Bold-6e" transform="translate(4849.658203 0)"/>
     <use xlink:href="#DejaVuSans-Bold-3f" transform="translate(4920.849609 0)"/>
    </g>
   </g>
   <g id="text_3">
    <!-- Muscle volume &amp; quality predict functional recovery (PROMIS-PF, ODI) but not radicular leg-pain relief — a dissociation that also guards against a global-frailty confound. -->
    <g style="fill: #444444" transform="translate(7.2 414.870968) scale(0.095 -0.095)">
     <defs>
      <path id="DejaVuSans-Oblique-4d" d="M 1081 4666 
L 2028 4666 
L 2572 1522 
L 4378 4666 
L 5350 4666 
L 4441 0 
L 3828 0 
L 4622 4091 
L 2791 897 
L 2175 897 
L 1581 4103 
L 788 0 
L 172 0 
L 1081 4666 
z
" transform="scale(0.015625)"/>
      <path id="DejaVuSans-Oblique-63" d="M 3431 3366 
L 3316 2797 
Q 3109 2947 2876 3022 
Q 2644 3097 2394 3097 
Q 2119 3097 1870 3000 
Q 1622 2903 1453 2725 
Q 1184 2453 1037 2087 
Q 891 1722 891 1331 
Q 891 859 1127 628 
Q 1363 397 1844 397 
Q 2081 397 2348 469 
Q 2616 541 2906 684 
L 2797 116 
Q 2547 13 2283 -39 
Q 2019 -91 1741 -91 
Q 1044 -91 669 257 
Q 294 606 294 1253 
Q 294 1797 489 2255 
Q 684 2713 1069 3078 
Q 1331 3328 1684 3456 
Q 2038 3584 2456 3584 
Q 2700 3584 2940 3529 
Q 3181 3475 3431 3366 
z
" transform="scale(0.015625)"/>
      <path id="DejaVuSans-Oblique-6c" d="M 1172 4863 
L 1747 4863 
L 800 0 
L 225 0 
L 1172 4863 
z
" transform="scale(0.015625)"/>
      <path id="DejaVuSans-Oblique-76" d="M 459 3500 
L 1069 3500 
L 1581 525 
L 3256 3500 
L 3866 3500 
L 1875 0 
L 1100 0 
L 459 3500 
z
" transform="scale(0.015625)"/>
      <path id="DejaVuSans-Oblique-6d" d="M 5747 2113 
L 5338 0 
L 4763 0 
L 5166 2094 
Q 5191 2228 5203 2325 
Q 5216 2422 5216 2491 
Q 5216 2772 5059 2928 
Q 4903 3084 4622 3084 
Q 4203 3084 3875 2770 
Q 3547 2456 3450 1953 
L 3066 0 
L 2491 0 
L 2900 2094 
Q 2925 2209 2937 2307 
Q 2950 2406 2950 2484 
Q 2950 2769 2794 2926 
Q 2638 3084 2363 3084 
Q 1938 3084 1609 2770 
Q 1281 2456 1184 1953 
L 800 0 
L 225 0 
L 909 3500 
L 1484 3500 
L 1375 2956 
Q 1609 3263 1923 3423 
Q 2238 3584 2597 3584 
Q 2978 3584 3223 3384 
Q 3469 3184 3519 2828 
Q 3781 3197 4126 3390 
Q 4472 3584 4856 3584 
Q 5306 3584 5551 3325 
Q 5797 3066 5797 2591 
Q 5797 2488 5784 2364 
Q 5772 2241 5747 2113 
z
" transform="scale(0.015625)"/>
      <path id="DejaVuSans-Oblique-26" d="M 3022 813 
L 1691 2509 
Q 1313 2234 1117 1925 
Q 922 1616 922 1294 
Q 922 897 1189 656 
Q 1456 416 1900 416 
Q 2194 416 2480 517 
Q 2766 619 3022 813 
z
M 4709 2503 
Q 4569 2006 4339 1593 
Q 4109 1181 3788 844 
L 4441 0 
L 3653 0 
L 3322 434 
Q 2991 175 2609 42 
Q 2228 -91 1813 -91 
Q 1122 -91 711 250 
Q 300 591 300 1153 
Q 300 1634 589 2062 
Q 878 2491 1447 2853 
Q 1350 2997 1304 3145 
Q 1259 3294 1259 3463 
Q 1259 3675 1331 3865 
Q 1403 4056 1538 4213 
Q 1753 4469 2078 4609 
Q 2403 4750 2778 4750 
Q 3022 4750 3269 4694 
Q 3516 4638 3769 4525 
L 3659 3956 
Q 3425 4103 3192 4179 
Q 2959 4256 2741 4256 
Q 2353 4256 2111 4054 
Q 1869 3853 1869 3541 
Q 1869 3403 1928 3268 
Q 1988 3134 2203 2859 
L 3475 1234 
Q 3709 1481 3875 1801 
Q 4041 2122 4128 2503 
L 4709 2503 
z
" transform="scale(0.015625)"/>
      <path id="DejaVuSans-Oblique-71" d="M 2669 525 
Q 2438 222 2123 65 
Q 1809 -91 1428 -91 
Q 897 -91 595 267 
Q 294 625 294 1253 
Q 294 1759 480 2231 
Q 666 2703 1013 3078 
Q 1238 3322 1530 3453 
Q 1822 3584 2144 3584 
Q 2531 3584 2781 3431 
Q 3031 3278 3144 2969 
L 3244 3494 
L 3822 3494 
L 2888 -1319 
L 2309 -1319 
L 2669 525 
z
M 891 1338 
Q 891 875 1084 633 
Q 1278 391 1644 391 
Q 2188 391 2572 911 
Q 2956 1431 2956 2175 
Q 2956 2625 2757 2864 
Q 2559 3103 2188 3103 
Q 1916 3103 1684 2976 
Q 1453 2850 1281 2606 
Q 1100 2350 995 2006 
Q 891 1663 891 1338 
z
" transform="scale(0.015625)"/>
      <path id="DejaVuSans-Oblique-61" d="M 3438 1997 
L 3047 0 
L 2472 0 
L 2578 531 
Q 2325 219 2001 64 
Q 1678 -91 1281 -91 
Q 834 -91 548 182 
Q 263 456 263 884 
Q 263 1497 752 1853 
Q 1241 2209 2100 2209 
L 2900 2209 
L 2931 2363 
Q 2938 2388 2941 2417 
Q 2944 2447 2944 2509 
Q 2944 2788 2717 2942 
Q 2491 3097 2081 3097 
Q 1800 3097 1504 3025 
Q 1209 2953 897 2809 
L 997 3341 
Q 1322 3463 1633 3523 
Q 1944 3584 2234 3584 
Q 2853 3584 3176 3315 
Q 3500 3047 3500 2534 
Q 3500 2431 3484 2292 
Q 3469 2153 3438 1997 
z
M 2816 1759 
L 2241 1759 
Q 1534 1759 1195 1570 
Q 856 1381 856 984 
Q 856 709 1029 553 
Q 1203 397 1509 397 
Q 1978 397 2328 733 
Q 2678 1069 2791 1631 
L 2816 1759 
z
" transform="scale(0.015625)"/>
      <path id="DejaVuSans-Oblique-69" d="M 1172 4863 
L 1747 4863 
L 1606 4134 
L 1031 4134 
L 1172 4863 
z
M 909 3500 
L 1484 3500 
L 800 0 
L 225 0 
L 909 3500 
z
" transform="scale(0.015625)"/>
      <path id="DejaVuSans-Oblique-74" d="M 2706 3500 
L 2619 3053 
L 1472 3053 
L 1100 1153 
Q 1081 1047 1072 975 
Q 1063 903 1063 863 
Q 1063 663 1183 572 
Q 1303 481 1569 481 
L 2150 481 
L 2053 0 
L 1503 0 
Q 991 0 739 200 
Q 488 400 488 806 
Q 488 878 497 964 
Q 506 1050 525 1153 
L 897 3053 
L 409 3053 
L 500 3500 
L 978 3500 
L 1172 4494 
L 1747 4494 
L 1556 3500 
L 2706 3500 
z
" transform="scale(0.015625)"/>
      <path id="DejaVuSans-Oblique-79" d="M 1588 -325 
Q 1188 -997 936 -1164 
Q 684 -1331 294 -1331 
L -159 -1331 
L -63 -850 
L 269 -850 
Q 509 -850 678 -719 
Q 847 -588 1056 -206 
L 1234 128 
L 459 3500 
L 1069 3500 
L 1650 819 
L 3256 3500 
L 3859 3500 
L 1588 -325 
z
" transform="scale(0.015625)"/>
      <path id="DejaVuSans-Oblique-64" d="M 2675 525 
Q 2444 222 2128 65 
Q 1813 -91 1428 -91 
Q 903 -91 598 267 
Q 294 625 294 1247 
Q 294 1766 478 2236 
Q 663 2706 1013 3078 
Q 1244 3325 1534 3454 
Q 1825 3584 2144 3584 
Q 2481 3584 2739 3421 
Q 2997 3259 3138 2956 
L 3513 4863 
L 4091 4863 
L 3144 0 
L 2566 0 
L 2675 525 
z
M 891 1350 
Q 891 897 1095 644 
Q 1300 391 1663 391 
Q 1931 391 2161 520 
Q 2391 650 2566 903 
Q 2750 1166 2856 1509 
Q 2963 1853 2963 2188 
Q 2963 2622 2758 2865 
Q 2553 3109 2194 3109 
Q 1922 3109 1687 2981 
Q 1453 2853 1288 2613 
Q 1106 2353 998 2009 
Q 891 1666 891 1350 
z
" transform="scale(0.015625)"/>
      <path id="DejaVuSans-Oblique-66" d="M 3059 4863 
L 2969 4384 
L 2419 4384 
Q 2106 4384 1964 4261 
Q 1822 4138 1753 3809 
L 1691 3500 
L 2638 3500 
L 2553 3053 
L 1606 3053 
L 1013 0 
L 434 0 
L 1031 3053 
L 481 3053 
L 563 3500 
L 1113 3500 
L 1159 3744 
Q 1278 4363 1576 4613 
Q 1875 4863 2516 4863 
L 3059 4863 
z
" transform="scale(0.015625)"/>
      <path id="DejaVuSans-Oblique-6e" d="M 3566 2113 
L 3156 0 
L 2578 0 
L 2988 2091 
Q 3016 2238 3031 2350 
Q 3047 2463 3047 2528 
Q 3047 2791 2881 2937 
Q 2716 3084 2419 3084 
Q 1956 3084 1622 2776 
Q 1288 2469 1184 1941 
L 800 0 
L 225 0 
L 903 3500 
L 1478 3500 
L 1363 2950 
Q 1603 3253 1940 3418 
Q 2278 3584 2650 3584 
Q 3113 3584 3367 3334 
Q 3622 3084 3622 2631 
Q 3622 2519 3608 2391 
Q 3594 2263 3566 2113 
z
" transform="scale(0.015625)"/>
      <path id="DejaVuSans-Oblique-50" d="M 1081 4666 
L 2541 4666 
Q 3178 4666 3512 4369 
Q 3847 4072 3847 3500 
Q 3847 2731 3353 2303 
Q 2859 1875 1966 1875 
L 1172 1875 
L 806 0 
L 172 0 
L 1081 4666 
z
M 1613 4147 
L 1275 2394 
L 2069 2394 
Q 2606 2394 2893 2669 
Q 3181 2944 3181 3456 
Q 3181 3784 2986 3965 
Q 2791 4147 2438 4147 
L 1613 4147 
z
" transform="scale(0.015625)"/>
      <path id="DejaVuSans-Oblique-52" d="M 1613 4147 
L 1294 2491 
L 2106 2491 
Q 2584 2491 2879 2755 
Q 3175 3019 3175 3444 
Q 3175 3784 2976 3965 
Q 2778 4147 2406 4147 
L 1613 4147 
z
M 2772 2241 
Q 2972 2194 3105 2009 
Q 3238 1825 3413 1275 
L 3809 0 
L 3144 0 
L 2778 1197 
Q 2638 1659 2453 1815 
Q 2269 1972 1888 1972 
L 1191 1972 
L 806 0 
L 172 0 
L 1081 4666 
L 2503 4666 
Q 3150 4666 3495 4373 
Q 3841 4081 3841 3531 
Q 3841 3044 3547 2687 
Q 3253 2331 2772 2241 
z
" transform="scale(0.015625)"/>
      <path id="DejaVuSans-Oblique-4f" d="M 2919 4238 
Q 2400 4238 2003 3986 
Q 1606 3734 1313 3219 
Q 1125 2891 1026 2522 
Q 928 2153 928 1778 
Q 928 1128 1239 775 
Q 1550 422 2119 422 
Q 2631 422 3032 676 
Q 3434 931 3719 1434 
Q 3909 1772 4009 2142 
Q 4109 2513 4109 2881 
Q 4109 3528 3796 3883 
Q 3484 4238 2919 4238 
z
M 2100 -91 
Q 1241 -91 748 418 
Q 256 928 256 1813 
Q 256 2319 448 2847 
Q 641 3375 978 3788 
Q 1375 4272 1862 4511 
Q 2350 4750 2938 4750 
Q 3794 4750 4287 4245 
Q 4781 3741 4781 2869 
Q 4781 2331 4593 1812 
Q 4406 1294 4056 872 
Q 3656 384 3173 146 
Q 2691 -91 2100 -91 
z
" transform="scale(0.015625)"/>
      <path id="DejaVuSans-Oblique-49" d="M 1081 4666 
L 1716 4666 
L 806 0 
L 172 0 
L 1081 4666 
z
" transform="scale(0.015625)"/>
      <path id="DejaVuSans-Oblique-2d" d="M 391 2009 
L 2075 2009 
L 1978 1497 
L 288 1497 
L 391 2009 
z
" transform="scale(0.015625)"/>
      <path id="DejaVuSans-Oblique-46" d="M 1081 4666 
L 3756 4666 
L 3653 4134 
L 1606 4134 
L 1338 2759 
L 3188 2759 
L 3084 2228 
L 1234 2228 
L 800 0 
L 172 0 
L 1081 4666 
z
" transform="scale(0.015625)"/>
      <path id="DejaVuSans-Oblique-2c" d="M 575 794 
L 1234 794 
L 1131 256 
L 422 -744 
L 19 -744 
L 469 256 
L 575 794 
z
" transform="scale(0.015625)"/>
      <path id="DejaVuSans-Oblique-62" d="M 3169 2138 
Q 3169 2591 2961 2847 
Q 2753 3103 2388 3103 
Q 2122 3103 1889 2973 
Q 1656 2844 1484 2597 
Q 1303 2338 1198 1995 
Q 1094 1653 1094 1313 
Q 1094 881 1298 636 
Q 1503 391 1863 391 
Q 2134 391 2365 517 
Q 2597 644 2772 891 
Q 2950 1147 3059 1487 
Q 3169 1828 3169 2138 
z
M 1381 2969 
Q 1594 3256 1914 3420 
Q 2234 3584 2584 3584 
Q 3122 3584 3439 3221 
Q 3756 2859 3756 2241 
Q 3756 1734 3570 1259 
Q 3384 784 3041 416 
Q 2816 172 2522 40 
Q 2228 -91 1906 -91 
Q 1566 -91 1316 65 
Q 1066 222 909 531 
L 806 0 
L 231 0 
L 1178 4863 
L 1753 4863 
L 1381 2969 
z
" transform="scale(0.015625)"/>
      <path id="DejaVuSans-Oblique-67" d="M 3816 3500 
L 3219 434 
Q 3047 -456 2561 -893 
Q 2075 -1331 1253 -1331 
Q 950 -1331 690 -1286 
Q 431 -1241 206 -1147 
L 313 -588 
Q 525 -725 762 -790 
Q 1000 -856 1269 -856 
Q 1816 -856 2167 -557 
Q 2519 -259 2631 300 
L 2681 563 
Q 2441 288 2122 144 
Q 1803 0 1434 0 
Q 903 0 598 351 
Q 294 703 294 1319 
Q 294 1803 478 2267 
Q 663 2731 997 3091 
Q 1219 3328 1514 3456 
Q 1809 3584 2131 3584 
Q 2484 3584 2746 3420 
Q 3009 3256 3138 2956 
L 3238 3500 
L 3816 3500 
z
M 2950 2216 
Q 2950 2641 2750 2872 
Q 2550 3103 2181 3103 
Q 1953 3103 1747 3012 
Q 1541 2922 1394 2759 
Q 1156 2491 1023 2127 
Q 891 1763 891 1375 
Q 891 944 1092 712 
Q 1294 481 1672 481 
Q 2219 481 2584 976 
Q 2950 1472 2950 2216 
z
" transform="scale(0.015625)"/>
      <path id="DejaVuSans-Oblique-2014" d="M 356 1978 
L 6131 1978 
L 6044 1528 
L 269 1528 
L 356 1978 
z
" transform="scale(0.015625)"/>
      <path id="DejaVuSans-Oblique-68" d="M 3566 2113 
L 3156 0 
L 2578 0 
L 2988 2091 
Q 3016 2238 3031 2350 
Q 3047 2463 3047 2528 
Q 3047 2791 2881 2937 
Q 2716 3084 2419 3084 
Q 1956 3084 1617 2771 
Q 1278 2459 1178 1941 
L 800 0 
L 225 0 
L 1172 4863 
L 1747 4863 
L 1375 2950 
Q 1594 3244 1934 3414 
Q 2275 3584 2650 3584 
Q 3113 3584 3367 3334 
Q 3622 3084 3622 2631 
Q 3622 2519 3608 2391 
Q 3594 2263 3566 2113 
z
" transform="scale(0.015625)"/>
      <path id="DejaVuSans-Oblique-2e" d="M 525 794 
L 1184 794 
L 1031 0 
L 372 0 
L 525 794 
z
" transform="scale(0.015625)"/>
     </defs>
     <use xlink:href="#DejaVuSans-Oblique-4d"/>
     <use xlink:href="#DejaVuSans-Oblique-75" transform="translate(86.279297 0)"/>
     <use xlink:href="#DejaVuSans-Oblique-73" transform="translate(149.658203 0)"/>
     <use xlink:href="#DejaVuSans-Oblique-63" transform="translate(201.757812 0)"/>
     <use xlink:href="#DejaVuSans-Oblique-6c" transform="translate(256.738281 0)"/>
     <use xlink:href="#DejaVuSans-Oblique-65" transform="translate(284.521484 0)"/>
     <use xlink:href="#DejaVuSans-Oblique-20" transform="translate(346.044922 0)"/>
     <use xlink:href="#DejaVuSans-Oblique-76" transform="translate(377.832031 0)"/>
     <use xlink:href="#DejaVuSans-Oblique-6f" transform="translate(437.011719 0)"/>
     <use xlink:href="#DejaVuSans-Oblique-6c" transform="translate(498.193359 0)"/>
     <use xlink:href="#DejaVuSans-Oblique-75" transform="translate(525.976562 0)"/>
     <use xlink:href="#DejaVuSans-Oblique-6d" transform="translate(589.355469 0)"/>
     <use xlink:href="#DejaVuSans-Oblique-65" transform="translate(686.767578 0)"/>
     <use xlink:href="#DejaVuSans-Oblique-20" transform="translate(748.291016 0)"/>
     <use xlink:href="#DejaVuSans-Oblique-26" transform="translate(780.078125 0)"/>
     <use xlink:href="#DejaVuSans-Oblique-20" transform="translate(858.056641 0)"/>
     <use xlink:href="#DejaVuSans-Oblique-71" transform="translate(889.84375 0)"/>
     <use xlink:href="#DejaVuSans-Oblique-75" transform="translate(953.320312 0)"/>
     <use xlink:href="#DejaVuSans-Oblique-61" transform="translate(1016.699219 0)"/>
     <use xlink:href="#DejaVuSans-Oblique-6c" transform="translate(1077.978516 0)"/>
     <use xlink:href="#DejaVuSans-Oblique-69" transform="translate(1105.761719 0)"/>
     <use xlink:href="#DejaVuSans-Oblique-74" transform="translate(1133.544922 0)"/>
     <use xlink:href="#DejaVuSans-Oblique-79" transform="translate(1172.753906 0)"/>
     <use xlink:href="#DejaVuSans-Oblique-20" transform="translate(1231.933594 0)"/>
     <use xlink:href="#DejaVuSans-Oblique-70" transform="translate(1263.720703 0)"/>
     <use xlink:href="#DejaVuSans-Oblique-72" transform="translate(1327.197266 0)"/>
     <use xlink:href="#DejaVuSans-Oblique-65" transform="translate(1368.310547 0)"/>
     <use xlink:href="#DejaVuSans-Oblique-64" transform="translate(1429.833984 0)"/>
     <use xlink:href="#DejaVuSans-Oblique-69" transform="translate(1493.310547 0)"/>
     <use xlink:href="#DejaVuSans-Oblique-63" transform="translate(1521.09375 0)"/>
     <use xlink:href="#DejaVuSans-Oblique-74" transform="translate(1576.074219 0)"/>
     <use xlink:href="#DejaVuSans-Oblique-20" transform="translate(1615.283203 0)"/>
     <use xlink:href="#DejaVuSans-Oblique-66" transform="translate(1647.070312 0)"/>
     <use xlink:href="#DejaVuSans-Oblique-75" transform="translate(1682.275391 0)"/>
     <use xlink:href="#DejaVuSans-Oblique-6e" transform="translate(1745.654297 0)"/>
     <use xlink:href="#DejaVuSans-Oblique-63" transform="translate(1809.033203 0)"/>
     <use xlink:href="#DejaVuSans-Oblique-74" transform="translate(1864.013672 0)"/>
     <use xlink:href="#DejaVuSans-Oblique-69" transform="translate(1903.222656 0)"/>
     <use xlink:href="#DejaVuSans-Oblique-6f" transform="translate(1931.005859 0)"/>
     <use xlink:href="#DejaVuSans-Oblique-6e" transform="translate(1992.1875 0)"/>
     <use xlink:href="#DejaVuSans-Oblique-61" transform="translate(2055.566406 0)"/>
     <use xlink:href="#DejaVuSans-Oblique-6c" transform="translate(2116.845703 0)"/>
     <use xlink:href="#DejaVuSans-Oblique-20" transform="translate(2144.628906 0)"/>
     <use xlink:href="#DejaVuSans-Oblique-72" transform="translate(2176.416016 0)"/>
     <use xlink:href="#DejaVuSans-Oblique-65" transform="translate(2217.529297 0)"/>
     <use xlink:href="#DejaVuSans-Oblique-63" transform="translate(2279.052734 0)"/>
     <use xlink:href="#DejaVuSans-Oblique-6f" transform="translate(2334.033203 0)"/>
     <use xlink:href="#DejaVuSans-Oblique-76" transform="translate(2395.214844 0)"/>
     <use xlink:href="#DejaVuSans-Oblique-65" transform="translate(2454.394531 0)"/>
     <use xlink:href="#DejaVuSans-Oblique-72" transform="translate(2515.917969 0)"/>
     <use xlink:href="#DejaVuSans-Oblique-79" transform="translate(2557.03125 0)"/>
     <use xlink:href="#DejaVuSans-Oblique-20" transform="translate(2616.210938 0)"/>
     <use xlink:href="#DejaVuSans-Oblique-28" transform="translate(2647.998047 0)"/>
     <use xlink:href="#DejaVuSans-Oblique-50" transform="translate(2687.011719 0)"/>
     <use xlink:href="#DejaVuSans-Oblique-52" transform="translate(2747.314453 0)"/>
     <use xlink:href="#DejaVuSans-Oblique-4f" transform="translate(2816.796875 0)"/>
     <use xlink:href="#DejaVuSans-Oblique-4d" transform="translate(2895.507812 0)"/>
     <use xlink:href="#DejaVuSans-Oblique-49" transform="translate(2981.787109 0)"/>
     <use xlink:href="#DejaVuSans-Oblique-53" transform="translate(3011.279297 0)"/>
     <use xlink:href="#DejaVuSans-Oblique-2d" transform="translate(3074.755859 0)"/>
     <use xlink:href="#DejaVuSans-Oblique-50" transform="translate(3110.839844 0)"/>
     <use xlink:href="#DejaVuSans-Oblique-46" transform="translate(3171.142578 0)"/>
     <use xlink:href="#DejaVuSans-Oblique-2c" transform="translate(3215.787109 0)"/>
     <use xlink:href="#DejaVuSans-Oblique-20" transform="translate(3247.574219 0)"/>
     <use xlink:href="#DejaVuSans-Oblique-4f" transform="translate(3279.361328 0)"/>
     <use xlink:href="#DejaVuSans-Oblique-44" transform="translate(3358.072266 0)"/>
     <use xlink:href="#DejaVuSans-Oblique-49" transform="translate(3435.074219 0)"/>
     <use xlink:href="#DejaVuSans-Oblique-29" transform="translate(3464.566406 0)"/>
     <use xlink:href="#DejaVuSans-Oblique-20" transform="translate(3503.580078 0)"/>
     <use xlink:href="#DejaVuSans-Oblique-62" transform="translate(3535.367188 0)"/>
     <use xlink:href="#DejaVuSans-Oblique-75" transform="translate(3598.84375 0)"/>
     <use xlink:href="#DejaVuSans-Oblique-74" transform="translate(3662.222656 0)"/>
     <use xlink:href="#DejaVuSans-Oblique-20" transform="translate(3701.431641 0)"/>
     <use xlink:href="#DejaVuSans-Oblique-6e" transform="translate(3733.21875 0)"/>
     <use xlink:href="#DejaVuSans-Oblique-6f" transform="translate(3796.597656 0)"/>
     <use xlink:href="#DejaVuSans-Oblique-74" transform="translate(3857.779297 0)"/>
     <use xlink:href="#DejaVuSans-Oblique-20" transform="translate(3896.988281 0)"/>
     <use xlink:href="#DejaVuSans-Oblique-72" transform="translate(3928.775391 0)"/>
     <use xlink:href="#DejaVuSans-Oblique-61" transform="translate(3969.888672 0)"/>
     <use xlink:href="#DejaVuSans-Oblique-64" transform="translate(4031.167969 0)"/>
     <use xlink:href="#DejaVuSans-Oblique-69" transform="translate(4094.644531 0)"/>
     <use xlink:href="#DejaVuSans-Oblique-63" transform="translate(4122.427734 0)"/>
     <use xlink:href="#DejaVuSans-Oblique-75" transform="translate(4177.408203 0)"/>
     <use xlink:href="#DejaVuSans-Oblique-6c" transform="translate(4240.787109 0)"/>
     <use xlink:href="#DejaVuSans-Oblique-61" transform="translate(4268.570312 0)"/>
     <use xlink:href="#DejaVuSans-Oblique-72" transform="translate(4329.849609 0)"/>
     <use xlink:href="#DejaVuSans-Oblique-20" transform="translate(4370.962891 0)"/>
     <use xlink:href="#DejaVuSans-Oblique-6c" transform="translate(4402.75 0)"/>
     <use xlink:href="#DejaVuSans-Oblique-65" transform="translate(4430.533203 0)"/>
     <use xlink:href="#DejaVuSans-Oblique-67" transform="translate(4492.056641 0)"/>
     <use xlink:href="#DejaVuSans-Oblique-2d" transform="translate(4555.533203 0)"/>
     <use xlink:href="#DejaVuSans-Oblique-70" transform="translate(4591.617188 0)"/>
     <use xlink:href="#DejaVuSans-Oblique-61" transform="translate(4655.09375 0)"/>
     <use xlink:href="#DejaVuSans-Oblique-69" transform="translate(4716.373047 0)"/>
     <use xlink:href="#DejaVuSans-Oblique-6e" transform="translate(4744.15625 0)"/>
     <use xlink:href="#DejaVuSans-Oblique-20" transform="translate(4807.535156 0)"/>
     <use xlink:href="#DejaVuSans-Oblique-72" transform="translate(4839.322266 0)"/>
     <use xlink:href="#DejaVuSans-Oblique-65" transform="translate(4880.435547 0)"/>
     <use xlink:href="#DejaVuSans-Oblique-6c" transform="translate(4941.958984 0)"/>
     <use xlink:href="#DejaVuSans-Oblique-69" transform="translate(4969.742188 0)"/>
     <use xlink:href="#DejaVuSans-Oblique-65" transform="translate(4997.525391 0)"/>
     <use xlink:href="#DejaVuSans-Oblique-66" transform="translate(5059.048828 0)"/>
     <use xlink:href="#DejaVuSans-Oblique-20" transform="translate(5094.253906 0)"/>
     <use xlink:href="#DejaVuSans-Oblique-2014" transform="translate(5126.041016 0)"/>
     <use xlink:href="#DejaVuSans-Oblique-20" transform="translate(5226.041016 0)"/>
     <use xlink:href="#DejaVuSans-Oblique-61" transform="translate(5257.828125 0)"/>
     <use xlink:href="#DejaVuSans-Oblique-20" transform="translate(5319.107422 0)"/>
     <use xlink:href="#DejaVuSans-Oblique-64" transform="translate(5350.894531 0)"/>
     <use xlink:href="#DejaVuSans-Oblique-69" transform="translate(5414.371094 0)"/>
     <use xlink:href="#DejaVuSans-Oblique-73" transform="translate(5442.154297 0)"/>
     <use xlink:href="#DejaVuSans-Oblique-73" transform="translate(5494.253906 0)"/>
     <use xlink:href="#DejaVuSans-Oblique-6f" transform="translate(5546.353516 0)"/>
     <use xlink:href="#DejaVuSans-Oblique-63" transform="translate(5607.535156 0)"/>
     <use xlink:href="#DejaVuSans-Oblique-69" transform="translate(5662.515625 0)"/>
     <use xlink:href="#DejaVuSans-Oblique-61" transform="translate(5690.298828 0)"/>
     <use xlink:href="#DejaVuSans-Oblique-74" transform="translate(5751.578125 0)"/>
     <use xlink:href="#DejaVuSans-Oblique-69" transform="translate(5790.787109 0)"/>
     <use xlink:href="#DejaVuSans-Oblique-6f" transform="translate(5818.570312 0)"/>
     <use xlink:href="#DejaVuSans-Oblique-6e" transform="translate(5879.751953 0)"/>
     <use xlink:href="#DejaVuSans-Oblique-20" transform="translate(5943.130859 0)"/>
     <use xlink:href="#DejaVuSans-Oblique-74" transform="translate(5974.917969 0)"/>
     <use xlink:href="#DejaVuSans-Oblique-68" transform="translate(6014.126953 0)"/>
     <use xlink:href="#DejaVuSans-Oblique-61" transform="translate(6077.505859 0)"/>
     <use xlink:href="#DejaVuSans-Oblique-74" transform="translate(6138.785156 0)"/>
     <use xlink:href="#DejaVuSans-Oblique-20" transform="translate(6177.994141 0)"/>
     <use xlink:href="#DejaVuSans-Oblique-61" transform="translate(6209.78125 0)"/>
     <use xlink:href="#DejaVuSans-Oblique-6c" transform="translate(6271.060547 0)"/>
     <use xlink:href="#DejaVuSans-Oblique-73" transform="translate(6298.84375 0)"/>
     <use xlink:href="#DejaVuSans-Oblique-6f" transform="translate(6350.943359 0)"/>
     <use xlink:href="#DejaVuSans-Oblique-20" transform="translate(6412.125 0)"/>
     <use xlink:href="#DejaVuSans-Oblique-67" transform="translate(6443.912109 0)"/>
     <use xlink:href="#DejaVuSans-Oblique-75" transform="translate(6507.388672 0)"/>
     <use xlink:href="#DejaVuSans-Oblique-61" transform="translate(6570.767578 0)"/>
     <use xlink:href="#DejaVuSans-Oblique-72" transform="translate(6632.046875 0)"/>
     <use xlink:href="#DejaVuSans-Oblique-64" transform="translate(6673.160156 0)"/>
     <use xlink:href="#DejaVuSans-Oblique-73" transform="translate(6736.636719 0)"/>
     <use xlink:href="#DejaVuSans-Oblique-20" transform="translate(6788.736328 0)"/>
     <use xlink:href="#DejaVuSans-Oblique-61" transform="translate(6820.523438 0)"/>
     <use xlink:href="#DejaVuSans-Oblique-67" transform="translate(6881.802734 0)"/>
     <use xlink:href="#DejaVuSans-Oblique-61" transform="translate(6945.279297 0)"/>
     <use xlink:href="#DejaVuSans-Oblique-69" transform="translate(7006.558594 0)"/>
     <use xlink:href="#DejaVuSans-Oblique-6e" transform="translate(7034.341797 0)"/>
     <use xlink:href="#DejaVuSans-Oblique-73" transform="translate(7097.720703 0)"/>
     <use xlink:href="#DejaVuSans-Oblique-74" transform="translate(7149.820312 0)"/>
     <use xlink:href="#DejaVuSans-Oblique-20" transform="translate(7189.029297 0)"/>
     <use xlink:href="#DejaVuSans-Oblique-61" transform="translate(7220.816406 0)"/>
     <use xlink:href="#DejaVuSans-Oblique-20" transform="translate(7282.095703 0)"/>
     <use xlink:href="#DejaVuSans-Oblique-67" transform="translate(7313.882812 0)"/>
     <use xlink:href="#DejaVuSans-Oblique-6c" transform="translate(7377.359375 0)"/>
     <use xlink:href="#DejaVuSans-Oblique-6f" transform="translate(7405.142578 0)"/>
     <use xlink:href="#DejaVuSans-Oblique-62" transform="translate(7466.324219 0)"/>
     <use xlink:href="#DejaVuSans-Oblique-61" transform="translate(7529.800781 0)"/>
     <use xlink:href="#DejaVuSans-Oblique-6c" transform="translate(7591.080078 0)"/>
     <use xlink:href="#DejaVuSans-Oblique-2d" transform="translate(7618.863281 0)"/>
     <use xlink:href="#DejaVuSans-Oblique-66" transform="translate(7654.947266 0)"/>
     <use xlink:href="#DejaVuSans-Oblique-72" transform="translate(7690.152344 0)"/>
     <use xlink:href="#DejaVuSans-Oblique-61" transform="translate(7731.265625 0)"/>
     <use xlink:href="#DejaVuSans-Oblique-69" transform="translate(7792.544922 0)"/>
     <use xlink:href="#DejaVuSans-Oblique-6c" transform="translate(7820.328125 0)"/>
     <use xlink:href="#DejaVuSans-Oblique-74" transform="translate(7848.111328 0)"/>
     <use xlink:href="#DejaVuSans-Oblique-79" transform="translate(7887.320312 0)"/>
     <use xlink:href="#DejaVuSans-Oblique-20" transform="translate(7946.5 0)"/>
     <use xlink:href="#DejaVuSans-Oblique-63" transform="translate(7978.287109 0)"/>
     <use xlink:href="#DejaVuSans-Oblique-6f" transform="translate(8033.267578 0)"/>
     <use xlink:href="#DejaVuSans-Oblique-6e" transform="translate(8094.449219 0)"/>
     <use xlink:href="#DejaVuSans-Oblique-66" transform="translate(8157.828125 0)"/>
     <use xlink:href="#DejaVuSans-Oblique-6f" transform="translate(8193.033203 0)"/>
     <use xlink:href="#DejaVuSans-Oblique-75" transform="translate(8254.214844 0)"/>
     <use xlink:href="#DejaVuSans-Oblique-6e" transform="translate(8317.59375 0)"/>
     <use xlink:href="#DejaVuSans-Oblique-64" transform="translate(8380.972656 0)"/>
     <use xlink:href="#DejaVuSans-Oblique-2e" transform="translate(8444.449219 0)"/>
    </g>
   </g>
   <g id="text_4">
    <!-- Preoperative volumetric -->
    <g style="fill: #0072b2" transform="translate(93.090156 62.117323) scale(0.12 -0.12)">
     <defs>
      <path id="DejaVuSans-Bold-50" d="M 588 4666 
L 2584 4666 
Q 3475 4666 3951 4270 
Q 4428 3875 4428 3144 
Q 4428 2409 3951 2014 
Q 3475 1619 2584 1619 
L 1791 1619 
L 1791 0 
L 588 0 
L 588 4666 
z
M 1791 3794 
L 1791 2491 
L 2456 2491 
Q 2806 2491 2997 2661 
Q 3188 2831 3188 3144 
Q 3188 3456 2997 3625 
Q 2806 3794 2456 3794 
L 1791 3794 
z
" transform="scale(0.015625)"/>
     </defs>
     <use xlink:href="#DejaVuSans-Bold-50"/>
     <use xlink:href="#DejaVuSans-Bold-72" transform="translate(73.291016 0)"/>
     <use xlink:href="#DejaVuSans-Bold-65" transform="translate(122.607422 0)"/>
     <use xlink:href="#DejaVuSans-Bold-6f" transform="translate(190.429688 0)"/>
     <use xlink:href="#DejaVuSans-Bold-70" transform="translate(259.130859 0)"/>
     <use xlink:href="#DejaVuSans-Bold-65" transform="translate(330.712891 0)"/>
     <use xlink:href="#DejaVuSans-Bold-72" transform="translate(398.535156 0)"/>
     <use xlink:href="#DejaVuSans-Bold-61" transform="translate(447.851562 0)"/>
     <use xlink:href="#DejaVuSans-Bold-74" transform="translate(515.332031 0)"/>
     <use xlink:href="#DejaVuSans-Bold-69" transform="translate(563.134766 0)"/>
     <use xlink:href="#DejaVuSans-Bold-76" transform="translate(597.412109 0)"/>
     <use xlink:href="#DejaVuSans-Bold-65" transform="translate(662.597656 0)"/>
     <use xlink:href="#DejaVuSans-Bold-20" transform="translate(730.419922 0)"/>
     <use xlink:href="#DejaVuSans-Bold-76" transform="translate(765.234375 0)"/>
     <use xlink:href="#DejaVuSans-Bold-6f" transform="translate(830.419922 0)"/>
     <use xlink:href="#DejaVuSans-Bold-6c" transform="translate(899.121094 0)"/>
     <use xlink:href="#DejaVuSans-Bold-75" transform="translate(933.398438 0)"/>
     <use xlink:href="#DejaVuSans-Bold-6d" transform="translate(1004.589844 0)"/>
     <use xlink:href="#DejaVuSans-Bold-65" transform="translate(1108.789062 0)"/>
     <use xlink:href="#DejaVuSans-Bold-74" transform="translate(1176.611328 0)"/>
     <use xlink:href="#DejaVuSans-Bold-72" transform="translate(1224.414062 0)"/>
     <use xlink:href="#DejaVuSans-Bold-69" transform="translate(1273.730469 0)"/>
     <use xlink:href="#DejaVuSans-Bold-63" transform="translate(1308.007812 0)"/>
    </g>
    <!-- muscle segmentation -->
    <g style="fill: #0072b2" transform="translate(102.498906 75.554698) scale(0.12 -0.12)">
     <use xlink:href="#DejaVuSans-Bold-6d"/>
     <use xlink:href="#DejaVuSans-Bold-75" transform="translate(104.199219 0)"/>
     <use xlink:href="#DejaVuSans-Bold-73" transform="translate(175.390625 0)"/>
     <use xlink:href="#DejaVuSans-Bold-63" transform="translate(234.912109 0)"/>
     <use xlink:href="#DejaVuSans-Bold-6c" transform="translate(294.189453 0)"/>
     <use xlink:href="#DejaVuSans-Bold-65" transform="translate(328.466797 0)"/>
     <use xlink:href="#DejaVuSans-Bold-20" transform="translate(396.289062 0)"/>
     <use xlink:href="#DejaVuSans-Bold-73" transform="translate(431.103516 0)"/>
     <use xlink:href="#DejaVuSans-Bold-65" transform="translate(490.625 0)"/>
     <use xlink:href="#DejaVuSans-Bold-67" transform="translate(558.447266 0)"/>
     <use xlink:href="#DejaVuSans-Bold-6d" transform="translate(630.029297 0)"/>
     <use xlink:href="#DejaVuSans-Bold-65" transform="translate(734.228516 0)"/>
     <use xlink:href="#DejaVuSans-Bold-6e" transform="translate(802.050781 0)"/>
     <use xlink:href="#DejaVuSans-Bold-74" transform="translate(873.242188 0)"/>
     <use xlink:href="#DejaVuSans-Bold-61" transform="translate(921.044922 0)"/>
     <use xlink:href="#DejaVuSans-Bold-74" transform="translate(988.525391 0)"/>
     <use xlink:href="#DejaVuSans-Bold-69" transform="translate(1036.328125 0)"/>
     <use xlink:href="#DejaVuSans-Bold-6f" transform="translate(1070.605469 0)"/>
     <use xlink:href="#DejaVuSans-Bold-6e" transform="translate(1139.306641 0)"/>
    </g>
    <!-- (CT / MRI) -->
    <g style="fill: #0072b2" transform="translate(141.955469 89.085823) scale(0.12 -0.12)">
     <defs>
      <path id="DejaVuSans-Bold-28" d="M 2413 -844 
L 1484 -844 
Q 1006 -72 778 623 
Q 550 1319 550 2003 
Q 550 2688 779 3389 
Q 1009 4091 1484 4856 
L 2413 4856 
Q 2013 4116 1813 3408 
Q 1613 2700 1613 2009 
Q 1613 1319 1811 609 
Q 2009 -100 2413 -844 
z
" transform="scale(0.015625)"/>
      <path id="DejaVuSans-Bold-43" d="M 4288 256 
Q 3956 84 3597 -3 
Q 3238 -91 2847 -91 
Q 1681 -91 1000 561 
Q 319 1213 319 2328 
Q 319 3447 1000 4098 
Q 1681 4750 2847 4750 
Q 3238 4750 3597 4662 
Q 3956 4575 4288 4403 
L 4288 3438 
Q 3953 3666 3628 3772 
Q 3303 3878 2944 3878 
Q 2300 3878 1931 3465 
Q 1563 3053 1563 2328 
Q 1563 1606 1931 1193 
Q 2300 781 2944 781 
Q 3303 781 3628 887 
Q 3953 994 4288 1222 
L 4288 256 
z
" transform="scale(0.015625)"/>
      <path id="DejaVuSans-Bold-54" d="M 31 4666 
L 4331 4666 
L 4331 3756 
L 2784 3756 
L 2784 0 
L 1581 0 
L 1581 3756 
L 31 3756 
L 31 4666 
z
" transform="scale(0.015625)"/>
      <path id="DejaVuSans-Bold-2f" d="M 1644 4666 
L 2338 4666 
L 691 -594 
L 0 -594 
L 1644 4666 
z
" transform="scale(0.015625)"/>
      <path id="DejaVuSans-Bold-4d" d="M 588 4666 
L 2119 4666 
L 3181 2169 
L 4250 4666 
L 5778 4666 
L 5778 0 
L 4641 0 
L 4641 3413 
L 3566 897 
L 2803 897 
L 1728 3413 
L 1728 0 
L 588 0 
L 588 4666 
z
" transform="scale(0.015625)"/>
      <path id="DejaVuSans-Bold-52" d="M 2297 2597 
Q 2675 2597 2839 2737 
Q 3003 2878 3003 3200 
Q 3003 3519 2839 3656 
Q 2675 3794 2297 3794 
L 1791 3794 
L 1791 2597 
L 2297 2597 
z
M 1791 1766 
L 1791 0 
L 588 0 
L 588 4666 
L 2425 4666 
Q 3347 4666 3776 4356 
Q 4206 4047 4206 3378 
Q 4206 2916 3982 2619 
Q 3759 2322 3309 2181 
Q 3556 2125 3751 1926 
Q 3947 1728 4147 1325 
L 4800 0 
L 3519 0 
L 2950 1159 
Q 2778 1509 2601 1637 
Q 2425 1766 2131 1766 
L 1791 1766 
z
" transform="scale(0.015625)"/>
      <path id="DejaVuSans-Bold-49" d="M 588 4666 
L 1791 4666 
L 1791 0 
L 588 0 
L 588 4666 
z
" transform="scale(0.015625)"/>
      <path id="DejaVuSans-Bold-29" d="M 513 -844 
Q 913 -100 1113 609 
Q 1313 1319 1313 2009 
Q 1313 2700 1113 3408 
Q 913 4116 513 4856 
L 1441 4856 
Q 1916 4091 2145 3389 
Q 2375 2688 2375 2003 
Q 2375 1319 2147 623 
Q 1919 -72 1441 -844 
L 513 -844 
z
" transform="scale(0.015625)"/>
     </defs>
     <use xlink:href="#DejaVuSans-Bold-28"/>
     <use xlink:href="#DejaVuSans-Bold-43" transform="translate(45.703125 0)"/>
     <use xlink:href="#DejaVuSans-Bold-54" transform="translate(119.091797 0)"/>
     <use xlink:href="#DejaVuSans-Bold-20" transform="translate(187.304688 0)"/>
     <use xlink:href="#DejaVuSans-Bold-2f" transform="translate(222.119141 0)"/>
     <use xlink:href="#DejaVuSans-Bold-20" transform="translate(258.642578 0)"/>
     <use xlink:href="#DejaVuSans-Bold-4d" transform="translate(293.457031 0)"/>
     <use xlink:href="#DejaVuSans-Bold-52" transform="translate(392.96875 0)"/>
     <use xlink:href="#DejaVuSans-Bold-49" transform="translate(469.970703 0)"/>
     <use xlink:href="#DejaVuSans-Bold-29" transform="translate(507.177734 0)"/>
    </g>
   </g>
   <g id="text_5">
    <!-- Iliopsoas -->
    <g transform="translate(150.065625 155.05689) scale(0.1 -0.1)">
     <use xlink:href="#DejaVuSans-Bold-49"/>
     <use xlink:href="#DejaVuSans-Bold-6c" transform="translate(37.207031 0)"/>
     <use xlink:href="#DejaVuSans-Bold-69" transform="translate(71.484375 0)"/>
     <use xlink:href="#DejaVuSans-Bold-6f" transform="translate(105.761719 0)"/>
     <use xlink:href="#DejaVuSans-Bold-70" transform="translate(174.462891 0)"/>
     <use xlink:href="#DejaVuSans-Bold-73" transform="translate(246.044922 0)"/>
     <use xlink:href="#DejaVuSans-Bold-6f" transform="translate(305.566406 0)"/>
     <use xlink:href="#DejaVuSans-Bold-61" transform="translate(374.267578 0)"/>
     <use xlink:href="#DejaVuSans-Bold-73" transform="translate(441.748047 0)"/>
    </g>
    <!-- volume + quality -->
    <g transform="translate(127.298438 166.254703) scale(0.1 -0.1)">
     <defs>
      <path id="DejaVuSans-Bold-2b" d="M 3053 4013 
L 3053 2375 
L 4684 2375 
L 4684 1638 
L 3053 1638 
L 3053 0 
L 2309 0 
L 2309 1638 
L 678 1638 
L 678 2375 
L 2309 2375 
L 2309 4013 
L 3053 4013 
z
" transform="scale(0.015625)"/>
      <path id="DejaVuSans-Bold-71" d="M 2181 2772 
Q 1825 2772 1636 2509 
Q 1447 2247 1447 1747 
Q 1447 1247 1636 984 
Q 1825 722 2181 722 
Q 2541 722 2730 984 
Q 2919 1247 2919 1747 
Q 2919 2247 2730 2509 
Q 2541 2772 2181 2772 
z
M 2919 506 
Q 2688 197 2409 53 
Q 2131 -91 1766 -91 
Q 1119 -91 703 423 
Q 288 938 288 1747 
Q 288 2556 703 3067 
Q 1119 3578 1766 3578 
Q 2131 3578 2409 3434 
Q 2688 3291 2919 2981 
L 2919 3500 
L 4044 3500 
L 4044 -1331 
L 2919 -1331 
L 2919 506 
z
" transform="scale(0.015625)"/>
     </defs>
     <use xlink:href="#DejaVuSans-Bold-76"/>
     <use xlink:href="#DejaVuSans-Bold-6f" transform="translate(65.185547 0)"/>
     <use xlink:href="#DejaVuSans-Bold-6c" transform="translate(133.886719 0)"/>
     <use xlink:href="#DejaVuSans-Bold-75" transform="translate(168.164062 0)"/>
     <use xlink:href="#DejaVuSans-Bold-6d" transform="translate(239.355469 0)"/>
     <use xlink:href="#DejaVuSans-Bold-65" transform="translate(343.554688 0)"/>
     <use xlink:href="#DejaVuSans-Bold-20" transform="translate(411.376953 0)"/>
     <use xlink:href="#DejaVuSans-Bold-2b" transform="translate(446.191406 0)"/>
     <use xlink:href="#DejaVuSans-Bold-20" transform="translate(529.980469 0)"/>
     <use xlink:href="#DejaVuSans-Bold-71" transform="translate(564.794922 0)"/>
     <use xlink:href="#DejaVuSans-Bold-75" transform="translate(636.376953 0)"/>
     <use xlink:href="#DejaVuSans-Bold-61" transform="translate(707.568359 0)"/>
     <use xlink:href="#DejaVuSans-Bold-6c" transform="translate(775.048828 0)"/>
     <use xlink:href="#DejaVuSans-Bold-69" transform="translate(809.326172 0)"/>
     <use xlink:href="#DejaVuSans-Bold-74" transform="translate(843.603516 0)"/>
     <use xlink:href="#DejaVuSans-Bold-79" transform="translate(891.40625 0)"/>
    </g>
   </g>
   <g id="text_6">
    <!-- Deep back (paraspinal) -->
    <g transform="translate(109.613281 237.276245) scale(0.1 -0.1)">
     <defs>
      <path id="DejaVuSans-Bold-6b" d="M 538 4863 
L 1656 4863 
L 1656 2216 
L 2944 3500 
L 4244 3500 
L 2534 1894 
L 4378 0 
L 3022 0 
L 1656 1459 
L 1656 0 
L 538 0 
L 538 4863 
z
" transform="scale(0.015625)"/>
     </defs>
     <use xlink:href="#DejaVuSans-Bold-44"/>
     <use xlink:href="#DejaVuSans-Bold-65" transform="translate(83.007812 0)"/>
     <use xlink:href="#DejaVuSans-Bold-65" transform="translate(150.830078 0)"/>
     <use xlink:href="#DejaVuSans-Bold-70" transform="translate(218.652344 0)"/>
     <use xlink:href="#DejaVuSans-Bold-20" transform="translate(290.234375 0)"/>
     <use xlink:href="#DejaVuSans-Bold-62" transform="translate(325.048828 0)"/>
     <use xlink:href="#DejaVuSans-Bold-61" transform="translate(396.630859 0)"/>
     <use xlink:href="#DejaVuSans-Bold-63" transform="translate(464.111328 0)"/>
     <use xlink:href="#DejaVuSans-Bold-6b" transform="translate(523.388672 0)"/>
     <use xlink:href="#DejaVuSans-Bold-20" transform="translate(589.892578 0)"/>
     <use xlink:href="#DejaVuSans-Bold-28" transform="translate(624.707031 0)"/>
     <use xlink:href="#DejaVuSans-Bold-70" transform="translate(670.410156 0)"/>
     <use xlink:href="#DejaVuSans-Bold-61" transform="translate(741.992188 0)"/>
     <use xlink:href="#DejaVuSans-Bold-72" transform="translate(809.472656 0)"/>
     <use xlink:href="#DejaVuSans-Bold-61" transform="translate(858.789062 0)"/>
     <use xlink:href="#DejaVuSans-Bold-73" transform="translate(926.269531 0)"/>
     <use xlink:href="#DejaVuSans-Bold-70" transform="translate(985.791016 0)"/>
     <use xlink:href="#DejaVuSans-Bold-69" transform="translate(1057.373047 0)"/>
     <use xlink:href="#DejaVuSans-Bold-6e" transform="translate(1091.650391 0)"/>
     <use xlink:href="#DejaVuSans-Bold-61" transform="translate(1162.841797 0)"/>
     <use xlink:href="#DejaVuSans-Bold-6c" transform="translate(1230.322266 0)"/>
     <use xlink:href="#DejaVuSans-Bold-29" transform="translate(1264.599609 0)"/>
    </g>
    <!-- volume + quality -->
    <g transform="translate(127.298438 248.474057) scale(0.1 -0.1)">
     <use xlink:href="#DejaVuSans-Bold-76"/>
     <use xlink:href="#DejaVuSans-Bold-6f" transform="translate(65.185547 0)"/>
     <use xlink:href="#DejaVuSans-Bold-6c" transform="translate(133.886719 0)"/>
     <use xlink:href="#DejaVuSans-Bold-75" transform="translate(168.164062 0)"/>
     <use xlink:href="#DejaVuSans-Bold-6d" transform="translate(239.355469 0)"/>
     <use xlink:href="#DejaVuSans-Bold-65" transform="translate(343.554688 0)"/>
     <use xlink:href="#DejaVuSans-Bold-20" transform="translate(411.376953 0)"/>
     <use xlink:href="#DejaVuSans-Bold-2b" transform="translate(446.191406 0)"/>
     <use xlink:href="#DejaVuSans-Bold-20" transform="translate(529.980469 0)"/>
     <use xlink:href="#DejaVuSans-Bold-71" transform="translate(564.794922 0)"/>
     <use xlink:href="#DejaVuSans-Bold-75" transform="translate(636.376953 0)"/>
     <use xlink:href="#DejaVuSans-Bold-61" transform="translate(707.568359 0)"/>
     <use xlink:href="#DejaVuSans-Bold-6c" transform="translate(775.048828 0)"/>
     <use xlink:href="#DejaVuSans-Bold-69" transform="translate(809.326172 0)"/>
     <use xlink:href="#DejaVuSans-Bold-74" transform="translate(843.603516 0)"/>
     <use xlink:href="#DejaVuSans-Bold-79" transform="translate(891.40625 0)"/>
    </g>
   </g>
   <g id="text_7">
    <!-- Gluteus medius -->
    <g transform="translate(131.264844 319.4956) scale(0.1 -0.1)">
     <defs>
      <path id="DejaVuSans-Bold-47" d="M 4781 347 
Q 4331 128 3847 18 
Q 3363 -91 2847 -91 
Q 1681 -91 1000 561 
Q 319 1213 319 2328 
Q 319 3456 1012 4103 
Q 1706 4750 2913 4750 
Q 3378 4750 3804 4662 
Q 4231 4575 4609 4403 
L 4609 3438 
Q 4219 3659 3833 3768 
Q 3447 3878 3059 3878 
Q 2341 3878 1952 3476 
Q 1563 3075 1563 2328 
Q 1563 1588 1938 1184 
Q 2313 781 3003 781 
Q 3191 781 3352 804 
Q 3513 828 3641 878 
L 3641 1784 
L 2906 1784 
L 2906 2591 
L 4781 2591 
L 4781 347 
z
" transform="scale(0.015625)"/>
     </defs>
     <use xlink:href="#DejaVuSans-Bold-47"/>
     <use xlink:href="#DejaVuSans-Bold-6c" transform="translate(82.080078 0)"/>
     <use xlink:href="#DejaVuSans-Bold-75" transform="translate(116.357422 0)"/>
     <use xlink:href="#DejaVuSans-Bold-74" transform="translate(187.548828 0)"/>
     <use xlink:href="#DejaVuSans-Bold-65" transform="translate(235.351562 0)"/>
     <use xlink:href="#DejaVuSans-Bold-75" transform="translate(303.173828 0)"/>
     <use xlink:href="#DejaVuSans-Bold-73" transform="translate(374.365234 0)"/>
     <use xlink:href="#DejaVuSans-Bold-20" transform="translate(433.886719 0)"/>
     <use xlink:href="#DejaVuSans-Bold-6d" transform="translate(468.701172 0)"/>
     <use xlink:href="#DejaVuSans-Bold-65" transform="translate(572.900391 0)"/>
     <use xlink:href="#DejaVuSans-Bold-64" transform="translate(640.722656 0)"/>
     <use xlink:href="#DejaVuSans-Bold-69" transform="translate(712.304688 0)"/>
     <use xlink:href="#DejaVuSans-Bold-75" transform="translate(746.582031 0)"/>
     <use xlink:href="#DejaVuSans-Bold-73" transform="translate(817.773438 0)"/>
    </g>
    <!-- volume + quality -->
    <g transform="translate(127.298438 330.693412) scale(0.1 -0.1)">
     <use xlink:href="#DejaVuSans-Bold-76"/>
     <use xlink:href="#DejaVuSans-Bold-6f" transform="translate(65.185547 0)"/>
     <use xlink:href="#DejaVuSans-Bold-6c" transform="translate(133.886719 0)"/>
     <use xlink:href="#DejaVuSans-Bold-75" transform="translate(168.164062 0)"/>
     <use xlink:href="#DejaVuSans-Bold-6d" transform="translate(239.355469 0)"/>
     <use xlink:href="#DejaVuSans-Bold-65" transform="translate(343.554688 0)"/>
     <use xlink:href="#DejaVuSans-Bold-20" transform="translate(411.376953 0)"/>
     <use xlink:href="#DejaVuSans-Bold-2b" transform="translate(446.191406 0)"/>
     <use xlink:href="#DejaVuSans-Bold-20" transform="translate(529.980469 0)"/>
     <use xlink:href="#DejaVuSans-Bold-71" transform="translate(564.794922 0)"/>
     <use xlink:href="#DejaVuSans-Bold-75" transform="translate(636.376953 0)"/>
     <use xlink:href="#DejaVuSans-Bold-61" transform="translate(707.568359 0)"/>
     <use xlink:href="#DejaVuSans-Bold-6c" transform="translate(775.048828 0)"/>
     <use xlink:href="#DejaVuSans-Bold-69" transform="translate(809.326172 0)"/>
     <use xlink:href="#DejaVuSans-Bold-74" transform="translate(843.603516 0)"/>
     <use xlink:href="#DejaVuSans-Bold-79" transform="translate(891.40625 0)"/>
    </g>
   </g>
   <g id="text_8">
    <!-- Lumbar -->
    <g style="fill: #d55e00" transform="translate(371.366633 192.069941) scale(0.125 -0.125)">
     <defs>
      <path id="DejaVuSans-Bold-4c" d="M 588 4666 
L 1791 4666 
L 1791 909 
L 3903 909 
L 3903 0 
L 588 0 
L 588 4666 
z
" transform="scale(0.015625)"/>
     </defs>
     <use xlink:href="#DejaVuSans-Bold-4c"/>
     <use xlink:href="#DejaVuSans-Bold-75" transform="translate(63.720703 0)"/>
     <use xlink:href="#DejaVuSans-Bold-6d" transform="translate(134.912109 0)"/>
     <use xlink:href="#DejaVuSans-Bold-62" transform="translate(239.111328 0)"/>
     <use xlink:href="#DejaVuSans-Bold-61" transform="translate(310.693359 0)"/>
     <use xlink:href="#DejaVuSans-Bold-72" transform="translate(378.173828 0)"/>
    </g>
    <!-- decompression -->
    <g style="fill: #d55e00" transform="translate(344.73968 206.067206) scale(0.125 -0.125)">
     <use xlink:href="#DejaVuSans-Bold-64"/>
     <use xlink:href="#DejaVuSans-Bold-65" transform="translate(71.582031 0)"/>
     <use xlink:href="#DejaVuSans-Bold-63" transform="translate(139.404297 0)"/>
     <use xlink:href="#DejaVuSans-Bold-6f" transform="translate(198.681641 0)"/>
     <use xlink:href="#DejaVuSans-Bold-6d" transform="translate(267.382812 0)"/>
     <use xlink:href="#DejaVuSans-Bold-70" transform="translate(371.582031 0)"/>
     <use xlink:href="#DejaVuSans-Bold-72" transform="translate(443.164062 0)"/>
     <use xlink:href="#DejaVuSans-Bold-65" transform="translate(492.480469 0)"/>
     <use xlink:href="#DejaVuSans-Bold-73" transform="translate(560.302734 0)"/>
     <use xlink:href="#DejaVuSans-Bold-73" transform="translate(619.824219 0)"/>
     <use xlink:href="#DejaVuSans-Bold-69" transform="translate(679.345703 0)"/>
     <use xlink:href="#DejaVuSans-Bold-6f" transform="translate(713.623047 0)"/>
     <use xlink:href="#DejaVuSans-Bold-6e" transform="translate(782.324219 0)"/>
    </g>
   </g>
   <g id="text_9">
    <!-- Functional recovery -->
    <g transform="translate(585.910703 82.422487) scale(0.105 -0.105)">
     <defs>
      <path id="DejaVuSans-Bold-46" d="M 588 4666 
L 3834 4666 
L 3834 3756 
L 1791 3756 
L 1791 2888 
L 3713 2888 
L 3713 1978 
L 1791 1978 
L 1791 0 
L 588 0 
L 588 4666 
z
" transform="scale(0.015625)"/>
     </defs>
     <use xlink:href="#DejaVuSans-Bold-46"/>
     <use xlink:href="#DejaVuSans-Bold-75" transform="translate(63.310547 0)"/>
     <use xlink:href="#DejaVuSans-Bold-6e" transform="translate(134.501953 0)"/>
     <use xlink:href="#DejaVuSans-Bold-63" transform="translate(205.693359 0)"/>
     <use xlink:href="#DejaVuSans-Bold-74" transform="translate(264.970703 0)"/>
     <use xlink:href="#DejaVuSans-Bold-69" transform="translate(312.773438 0)"/>
     <use xlink:href="#DejaVuSans-Bold-6f" transform="translate(347.050781 0)"/>
     <use xlink:href="#DejaVuSans-Bold-6e" transform="translate(415.751953 0)"/>
     <use xlink:href="#DejaVuSans-Bold-61" transform="translate(486.943359 0)"/>
     <use xlink:href="#DejaVuSans-Bold-6c" transform="translate(554.423828 0)"/>
     <use xlink:href="#DejaVuSans-Bold-20" transform="translate(588.701172 0)"/>
     <use xlink:href="#DejaVuSans-Bold-72" transform="translate(623.515625 0)"/>
     <use xlink:href="#DejaVuSans-Bold-65" transform="translate(672.832031 0)"/>
     <use xlink:href="#DejaVuSans-Bold-63" transform="translate(740.654297 0)"/>
     <use xlink:href="#DejaVuSans-Bold-6f" transform="translate(799.931641 0)"/>
     <use xlink:href="#DejaVuSans-Bold-76" transform="translate(868.632812 0)"/>
     <use xlink:href="#DejaVuSans-Bold-65" transform="translate(933.818359 0)"/>
     <use xlink:href="#DejaVuSans-Bold-72" transform="translate(1001.640625 0)"/>
     <use xlink:href="#DejaVuSans-Bold-79" transform="translate(1050.957031 0)"/>
    </g>
    <!--  -->
    <g transform="translate(644.508906 94.262221) scale(0.105 -0.105)"/>
    <!-- PROMIS Physical Function -->
    <g transform="translate(567.589844 106.019924) scale(0.105 -0.105)">
     <defs>
      <path id="DejaVuSans-Bold-4f" d="M 2719 3878 
Q 2169 3878 1866 3472 
Q 1563 3066 1563 2328 
Q 1563 1594 1866 1187 
Q 2169 781 2719 781 
Q 3272 781 3575 1187 
Q 3878 1594 3878 2328 
Q 3878 3066 3575 3472 
Q 3272 3878 2719 3878 
z
M 2719 4750 
Q 3844 4750 4481 4106 
Q 5119 3463 5119 2328 
Q 5119 1197 4481 553 
Q 3844 -91 2719 -91 
Q 1597 -91 958 553 
Q 319 1197 319 2328 
Q 319 3463 958 4106 
Q 1597 4750 2719 4750 
z
" transform="scale(0.015625)"/>
      <path id="DejaVuSans-Bold-53" d="M 3834 4519 
L 3834 3531 
Q 3450 3703 3084 3790 
Q 2719 3878 2394 3878 
Q 1963 3878 1756 3759 
Q 1550 3641 1550 3391 
Q 1550 3203 1689 3098 
Q 1828 2994 2194 2919 
L 2706 2816 
Q 3484 2659 3812 2340 
Q 4141 2022 4141 1434 
Q 4141 663 3683 286 
Q 3225 -91 2284 -91 
Q 1841 -91 1394 -6 
Q 947 78 500 244 
L 500 1259 
Q 947 1022 1364 901 
Q 1781 781 2169 781 
Q 2563 781 2772 912 
Q 2981 1044 2981 1288 
Q 2981 1506 2839 1625 
Q 2697 1744 2272 1838 
L 1806 1941 
Q 1106 2091 782 2419 
Q 459 2747 459 3303 
Q 459 4000 909 4375 
Q 1359 4750 2203 4750 
Q 2588 4750 2994 4692 
Q 3400 4634 3834 4519 
z
" transform="scale(0.015625)"/>
     </defs>
     <use xlink:href="#DejaVuSans-Bold-50"/>
     <use xlink:href="#DejaVuSans-Bold-52" transform="translate(73.291016 0)"/>
     <use xlink:href="#DejaVuSans-Bold-4f" transform="translate(150.292969 0)"/>
     <use xlink:href="#DejaVuSans-Bold-4d" transform="translate(235.302734 0)"/>
     <use xlink:href="#DejaVuSans-Bold-49" transform="translate(334.814453 0)"/>
     <use xlink:href="#DejaVuSans-Bold-53" transform="translate(372.021484 0)"/>
     <use xlink:href="#DejaVuSans-Bold-20" transform="translate(444.042969 0)"/>
     <use xlink:href="#DejaVuSans-Bold-50" transform="translate(478.857422 0)"/>
     <use xlink:href="#DejaVuSans-Bold-68" transform="translate(552.148438 0)"/>
     <use xlink:href="#DejaVuSans-Bold-79" transform="translate(623.339844 0)"/>
     <use xlink:href="#DejaVuSans-Bold-73" transform="translate(688.525391 0)"/>
     <use xlink:href="#DejaVuSans-Bold-69" transform="translate(748.046875 0)"/>
     <use xlink:href="#DejaVuSans-Bold-63" transform="translate(782.324219 0)"/>
     <use xlink:href="#DejaVuSans-Bold-61" transform="translate(841.601562 0)"/>
     <use xlink:href="#DejaVuSans-Bold-6c" transform="translate(909.082031 0)"/>
     <use xlink:href="#DejaVuSans-Bold-20" transform="translate(943.359375 0)"/>
     <use xlink:href="#DejaVuSans-Bold-46" transform="translate(978.173828 0)"/>
     <use xlink:href="#DejaVuSans-Bold-75" transform="translate(1041.484375 0)"/>
     <use xlink:href="#DejaVuSans-Bold-6e" transform="translate(1112.675781 0)"/>
     <use xlink:href="#DejaVuSans-Bold-63" transform="translate(1183.867188 0)"/>
     <use xlink:href="#DejaVuSans-Bold-74" transform="translate(1243.144531 0)"/>
     <use xlink:href="#DejaVuSans-Bold-69" transform="translate(1290.947266 0)"/>
     <use xlink:href="#DejaVuSans-Bold-6f" transform="translate(1325.224609 0)"/>
     <use xlink:href="#DejaVuSans-Bold-6e" transform="translate(1393.925781 0)"/>
    </g>
    <!-- ODI  ·  back-pain NRS -->
    <g transform="translate(581.463789 117.859659) scale(0.105 -0.105)">
     <defs>
      <path id="DejaVuSans-Bold-b7" d="M 653 2828 
L 1778 2828 
L 1778 1619 
L 653 1619 
L 653 2828 
z
" transform="scale(0.015625)"/>
      <path id="DejaVuSans-Bold-2d" d="M 347 2297 
L 2309 2297 
L 2309 1388 
L 347 1388 
L 347 2297 
z
" transform="scale(0.015625)"/>
      <path id="DejaVuSans-Bold-4e" d="M 588 4666 
L 1931 4666 
L 3628 1466 
L 3628 4666 
L 4769 4666 
L 4769 0 
L 3425 0 
L 1728 3200 
L 1728 0 
L 588 0 
L 588 4666 
z
" transform="scale(0.015625)"/>
     </defs>
     <use xlink:href="#DejaVuSans-Bold-4f"/>
     <use xlink:href="#DejaVuSans-Bold-44" transform="translate(85.009766 0)"/>
     <use xlink:href="#DejaVuSans-Bold-49" transform="translate(168.017578 0)"/>
     <use xlink:href="#DejaVuSans-Bold-20" transform="translate(205.224609 0)"/>
     <use xlink:href="#DejaVuSans-Bold-20" transform="translate(240.039062 0)"/>
     <use xlink:href="#DejaVuSans-Bold-b7" transform="translate(274.853516 0)"/>
     <use xlink:href="#DejaVuSans-Bold-20" transform="translate(312.841797 0)"/>
     <use xlink:href="#DejaVuSans-Bold-20" transform="translate(347.65625 0)"/>
     <use xlink:href="#DejaVuSans-Bold-62" transform="translate(382.470703 0)"/>
     <use xlink:href="#DejaVuSans-Bold-61" transform="translate(454.052734 0)"/>
     <use xlink:href="#DejaVuSans-Bold-63" transform="translate(521.533203 0)"/>
     <use xlink:href="#DejaVuSans-Bold-6b" transform="translate(580.810547 0)"/>
     <use xlink:href="#DejaVuSans-Bold-2d" transform="translate(647.314453 0)"/>
     <use xlink:href="#DejaVuSans-Bold-70" transform="translate(688.818359 0)"/>
     <use xlink:href="#DejaVuSans-Bold-61" transform="translate(760.400391 0)"/>
     <use xlink:href="#DejaVuSans-Bold-69" transform="translate(827.880859 0)"/>
     <use xlink:href="#DejaVuSans-Bold-6e" transform="translate(862.158203 0)"/>
     <use xlink:href="#DejaVuSans-Bold-20" transform="translate(933.349609 0)"/>
     <use xlink:href="#DejaVuSans-Bold-4e" transform="translate(968.164062 0)"/>
     <use xlink:href="#DejaVuSans-Bold-52" transform="translate(1051.855469 0)"/>
     <use xlink:href="#DejaVuSans-Bold-53" transform="translate(1128.857422 0)"/>
    </g>
    <!-- MCID achieved -->
    <g transform="translate(600.797734 129.617362) scale(0.105 -0.105)">
     <use xlink:href="#DejaVuSans-Bold-4d"/>
     <use xlink:href="#DejaVuSans-Bold-43" transform="translate(99.511719 0)"/>
     <use xlink:href="#DejaVuSans-Bold-49" transform="translate(172.900391 0)"/>
     <use xlink:href="#DejaVuSans-Bold-44" transform="translate(210.107422 0)"/>
     <use xlink:href="#DejaVuSans-Bold-20" transform="translate(293.115234 0)"/>
     <use xlink:href="#DejaVuSans-Bold-61" transform="translate(327.929688 0)"/>
     <use xlink:href="#DejaVuSans-Bold-63" transform="translate(395.410156 0)"/>
     <use xlink:href="#DejaVuSans-Bold-68" transform="translate(454.6875 0)"/>
     <use xlink:href="#DejaVuSans-Bold-69" transform="translate(525.878906 0)"/>
     <use xlink:href="#DejaVuSans-Bold-65" transform="translate(560.15625 0)"/>
     <use xlink:href="#DejaVuSans-Bold-76" transform="translate(627.978516 0)"/>
     <use xlink:href="#DejaVuSans-Bold-65" transform="translate(693.164062 0)"/>
     <use xlink:href="#DejaVuSans-Bold-64" transform="translate(760.986328 0)"/>
    </g>
   </g>
   <g id="text_10">
    <!-- Radicular leg pain (NRS) -->
    <g transform="translate(572.129453 306.621206) scale(0.105 -0.105)">
     <use xlink:href="#DejaVuSans-Bold-52"/>
     <use xlink:href="#DejaVuSans-Bold-61" transform="translate(77.001953 0)"/>
     <use xlink:href="#DejaVuSans-Bold-64" transform="translate(144.482422 0)"/>
     <use xlink:href="#DejaVuSans-Bold-69" transform="translate(216.064453 0)"/>
     <use xlink:href="#DejaVuSans-Bold-63" transform="translate(250.341797 0)"/>
     <use xlink:href="#DejaVuSans-Bold-75" transform="translate(309.619141 0)"/>
     <use xlink:href="#DejaVuSans-Bold-6c" transform="translate(380.810547 0)"/>
     <use xlink:href="#DejaVuSans-Bold-61" transform="translate(415.087891 0)"/>
     <use xlink:href="#DejaVuSans-Bold-72" transform="translate(482.568359 0)"/>
     <use xlink:href="#DejaVuSans-Bold-20" transform="translate(531.884766 0)"/>
     <use xlink:href="#DejaVuSans-Bold-6c" transform="translate(566.699219 0)"/>
     <use xlink:href="#DejaVuSans-Bold-65" transform="translate(600.976562 0)"/>
     <use xlink:href="#DejaVuSans-Bold-67" transform="translate(668.798828 0)"/>
     <use xlink:href="#DejaVuSans-Bold-20" transform="translate(740.380859 0)"/>
     <use xlink:href="#DejaVuSans-Bold-70" transform="translate(775.195312 0)"/>
     <use xlink:href="#DejaVuSans-Bold-61" transform="translate(846.777344 0)"/>
     <use xlink:href="#DejaVuSans-Bold-69" transform="translate(914.257812 0)"/>
     <use xlink:href="#DejaVuSans-Bold-6e" transform="translate(948.535156 0)"/>
     <use xlink:href="#DejaVuSans-Bold-20" transform="translate(1019.726562 0)"/>
     <use xlink:href="#DejaVuSans-Bold-28" transform="translate(1054.541016 0)"/>
     <use xlink:href="#DejaVuSans-Bold-4e" transform="translate(1100.244141 0)"/>
     <use xlink:href="#DejaVuSans-Bold-52" transform="translate(1183.935547 0)"/>
     <use xlink:href="#DejaVuSans-Bold-53" transform="translate(1260.9375 0)"/>
     <use xlink:href="#DejaVuSans-Bold-29" transform="translate(1332.958984 0)"/>
    </g>
    <!--  -->
    <g transform="translate(644.508906 318.46094) scale(0.105 -0.105)"/>
    <!-- NEGATIVE CONTROL -->
    <g transform="translate(585.409492 330.218643) scale(0.105 -0.105)">
     <defs>
      <path id="DejaVuSans-Bold-45" d="M 588 4666 
L 3834 4666 
L 3834 3756 
L 1791 3756 
L 1791 2888 
L 3713 2888 
L 3713 1978 
L 1791 1978 
L 1791 909 
L 3903 909 
L 3903 0 
L 588 0 
L 588 4666 
z
" transform="scale(0.015625)"/>
      <path id="DejaVuSans-Bold-41" d="M 3419 850 
L 1538 850 
L 1241 0 
L 31 0 
L 1759 4666 
L 3194 4666 
L 4922 0 
L 3713 0 
L 3419 850 
z
M 1838 1716 
L 3116 1716 
L 2478 3572 
L 1838 1716 
z
" transform="scale(0.015625)"/>
      <path id="DejaVuSans-Bold-56" d="M 31 4666 
L 1241 4666 
L 2478 1222 
L 3713 4666 
L 4922 4666 
L 3194 0 
L 1759 0 
L 31 4666 
z
" transform="scale(0.015625)"/>
     </defs>
     <use xlink:href="#DejaVuSans-Bold-4e"/>
     <use xlink:href="#DejaVuSans-Bold-45" transform="translate(83.691406 0)"/>
     <use xlink:href="#DejaVuSans-Bold-47" transform="translate(152.001953 0)"/>
     <use xlink:href="#DejaVuSans-Bold-41" transform="translate(234.082031 0)"/>
     <use xlink:href="#DejaVuSans-Bold-54" transform="translate(303.724609 0)"/>
     <use xlink:href="#DejaVuSans-Bold-49" transform="translate(371.9375 0)"/>
     <use xlink:href="#DejaVuSans-Bold-56" transform="translate(409.144531 0)"/>
     <use xlink:href="#DejaVuSans-Bold-45" transform="translate(486.537109 0)"/>
     <use xlink:href="#DejaVuSans-Bold-20" transform="translate(554.847656 0)"/>
     <use xlink:href="#DejaVuSans-Bold-43" transform="translate(589.662109 0)"/>
     <use xlink:href="#DejaVuSans-Bold-4f" transform="translate(663.050781 0)"/>
     <use xlink:href="#DejaVuSans-Bold-4e" transform="translate(748.060547 0)"/>
     <use xlink:href="#DejaVuSans-Bold-54" transform="translate(831.751953 0)"/>
     <use xlink:href="#DejaVuSans-Bold-52" transform="translate(899.964844 0)"/>
     <use xlink:href="#DejaVuSans-Bold-4f" transform="translate(976.966797 0)"/>
     <use xlink:href="#DejaVuSans-Bold-4c" transform="translate(1061.976562 0)"/>
    </g>
   </g>
   <g id="text_11">
    <!-- PREDICTS  (H1–H3) -->
    <g style="fill: #009e73" transform="translate(450.452711 127.945086) scale(0.105 -0.105)">
     <defs>
      <path id="DejaVuSans-Bold-48" d="M 588 4666 
L 1791 4666 
L 1791 2888 
L 3566 2888 
L 3566 4666 
L 4769 4666 
L 4769 0 
L 3566 0 
L 3566 1978 
L 1791 1978 
L 1791 0 
L 588 0 
L 588 4666 
z
" transform="scale(0.015625)"/>
      <path id="DejaVuSans-Bold-31" d="M 750 831 
L 1813 831 
L 1813 3847 
L 722 3622 
L 722 4441 
L 1806 4666 
L 2950 4666 
L 2950 831 
L 4013 831 
L 4013 0 
L 750 0 
L 750 831 
z
" transform="scale(0.015625)"/>
      <path id="DejaVuSans-Bold-2013" d="M 344 2156 
L 2856 2156 
L 2856 1350 
L 344 1350 
L 344 2156 
z
" transform="scale(0.015625)"/>
      <path id="DejaVuSans-Bold-33" d="M 2981 2516 
Q 3453 2394 3698 2092 
Q 3944 1791 3944 1325 
Q 3944 631 3412 270 
Q 2881 -91 1863 -91 
Q 1503 -91 1142 -33 
Q 781 25 428 141 
L 428 1069 
Q 766 900 1098 814 
Q 1431 728 1753 728 
Q 2231 728 2486 893 
Q 2741 1059 2741 1369 
Q 2741 1688 2480 1852 
Q 2219 2016 1709 2016 
L 1228 2016 
L 1228 2791 
L 1734 2791 
Q 2188 2791 2409 2933 
Q 2631 3075 2631 3366 
Q 2631 3634 2415 3781 
Q 2200 3928 1806 3928 
Q 1516 3928 1219 3862 
Q 922 3797 628 3669 
L 628 4550 
Q 984 4650 1334 4700 
Q 1684 4750 2022 4750 
Q 2931 4750 3382 4451 
Q 3834 4153 3834 3553 
Q 3834 3144 3618 2883 
Q 3403 2622 2981 2516 
z
" transform="scale(0.015625)"/>
     </defs>
     <use xlink:href="#DejaVuSans-Bold-50"/>
     <use xlink:href="#DejaVuSans-Bold-52" transform="translate(73.291016 0)"/>
     <use xlink:href="#DejaVuSans-Bold-45" transform="translate(150.292969 0)"/>
     <use xlink:href="#DejaVuSans-Bold-44" transform="translate(218.603516 0)"/>
     <use xlink:href="#DejaVuSans-Bold-49" transform="translate(301.611328 0)"/>
     <use xlink:href="#DejaVuSans-Bold-43" transform="translate(338.818359 0)"/>
     <use xlink:href="#DejaVuSans-Bold-54" transform="translate(412.207031 0)"/>
     <use xlink:href="#DejaVuSans-Bold-53" transform="translate(480.419922 0)"/>
     <use xlink:href="#DejaVuSans-Bold-20" transform="translate(552.441406 0)"/>
     <use xlink:href="#DejaVuSans-Bold-20" transform="translate(587.255859 0)"/>
     <use xlink:href="#DejaVuSans-Bold-28" transform="translate(622.070312 0)"/>
     <use xlink:href="#DejaVuSans-Bold-48" transform="translate(667.773438 0)"/>
     <use xlink:href="#DejaVuSans-Bold-31" transform="translate(751.464844 0)"/>
     <use xlink:href="#DejaVuSans-Bold-2013" transform="translate(821.044922 0)"/>
     <use xlink:href="#DejaVuSans-Bold-48" transform="translate(871.044922 0)"/>
     <use xlink:href="#DejaVuSans-Bold-33" transform="translate(954.736328 0)"/>
     <use xlink:href="#DejaVuSans-Bold-29" transform="translate(1024.316406 0)"/>
    </g>
   </g>
   <g id="text_12">
    <!-- does NOT predict  (H4) -->
    <g style="fill: #d55e00" transform="translate(438.896969 284.16186) scale(0.105 -0.105)">
     <defs>
      <path id="DejaVuSans-Bold-34" d="M 2356 3675 
L 1038 1722 
L 2356 1722 
L 2356 3675 
z
M 2156 4666 
L 3494 4666 
L 3494 1722 
L 4159 1722 
L 4159 850 
L 3494 850 
L 3494 0 
L 2356 0 
L 2356 850 
L 288 850 
L 288 1881 
L 2156 4666 
z
" transform="scale(0.015625)"/>
     </defs>
     <use xlink:href="#DejaVuSans-Bold-64"/>
     <use xlink:href="#DejaVuSans-Bold-6f" transform="translate(71.582031 0)"/>
     <use xlink:href="#DejaVuSans-Bold-65" transform="translate(140.283203 0)"/>
     <use xlink:href="#DejaVuSans-Bold-73" transform="translate(208.105469 0)"/>
     <use xlink:href="#DejaVuSans-Bold-20" transform="translate(267.626953 0)"/>
     <use xlink:href="#DejaVuSans-Bold-4e" transform="translate(302.441406 0)"/>
     <use xlink:href="#DejaVuSans-Bold-4f" transform="translate(386.132812 0)"/>
     <use xlink:href="#DejaVuSans-Bold-54" transform="translate(471.142578 0)"/>
     <use xlink:href="#DejaVuSans-Bold-20" transform="translate(539.355469 0)"/>
     <use xlink:href="#DejaVuSans-Bold-70" transform="translate(574.169922 0)"/>
     <use xlink:href="#DejaVuSans-Bold-72" transform="translate(645.751953 0)"/>
     <use xlink:href="#DejaVuSans-Bold-65" transform="translate(695.068359 0)"/>
     <use xlink:href="#DejaVuSans-Bold-64" transform="translate(762.890625 0)"/>
     <use xlink:href="#DejaVuSans-Bold-69" transform="translate(834.472656 0)"/>
     <use xlink:href="#DejaVuSans-Bold-63" transform="translate(868.75 0)"/>
     <use xlink:href="#DejaVuSans-Bold-74" transform="translate(928.027344 0)"/>
     <use xlink:href="#DejaVuSans-Bold-20" transform="translate(975.830078 0)"/>
     <use xlink:href="#DejaVuSans-Bold-20" transform="translate(1010.644531 0)"/>
     <use xlink:href="#DejaVuSans-Bold-28" transform="translate(1045.458984 0)"/>
     <use xlink:href="#DejaVuSans-Bold-48" transform="translate(1091.162109 0)"/>
     <use xlink:href="#DejaVuSans-Bold-34" transform="translate(1174.853516 0)"/>
     <use xlink:href="#DejaVuSans-Bold-29" transform="translate(1244.433594 0)"/>
    </g>
   </g>
   <g id="text_13">
    <!-- ✗ -->
    <g style="fill: #d55e00" transform="translate(501.602188 273.365343) scale(0.26 -0.26)">
     <defs>
      <path id="DejaVuSans-Bold-2717" d="M 3975 4688 
Q 4006 4688 4056 4638 
Q 4109 4588 4166 4506 
Q 4256 4666 4309 4666 
Q 4356 4666 4438 4581 
Q 4488 4528 4488 4463 
Q 4488 4378 4419 4306 
Q 3769 3600 3156 2753 
Q 3409 2134 3856 1388 
Q 3894 1325 3894 1288 
Q 3894 1216 3800 1138 
L 3700 1069 
Q 3713 1031 3713 969 
Q 3713 875 3644 825 
Q 3563 769 3525 769 
Q 3444 769 3381 850 
Q 3006 1331 2606 1981 
Q 2069 1281 1375 113 
Q 1275 -56 1038 -56 
Q 925 -56 913 75 
Q 753 163 753 353 
Q 753 603 788 700 
Q 803 744 888 875 
Q 1525 1869 2238 2700 
Q 1856 3606 1731 4097 
Q 1703 4206 1703 4238 
Q 1703 4281 1759 4363 
Q 1819 4444 1869 4444 
Q 1916 4444 1988 4353 
Q 2016 4406 2056 4444 
Q 2113 4494 2200 4494 
Q 2300 4494 2331 4400 
Q 2500 3875 2775 3400 
Q 3219 3975 3856 4613 
Q 3931 4688 3975 4688 
z
" transform="scale(0.015625)"/>
     </defs>
     <use xlink:href="#DejaVuSans-Bold-2717"/>
    </g>
   </g>
  </g>
 </g>
 <defs>
  <clipPath id="p05a3cc2147">
   <rect x="57.783906" y="7.2" width="704.07" height="424.8"/>
  </clipPath>
 </defs>
</svg>
